<?xml version="1.0" encoding="utf-8"?>
<!-- Generator: Adobe Illustrator 16.0.4, SVG Export Plug-In . SVG Version: 6.00 Build 0)  -->
<!DOCTYPE svg PUBLIC "-//W3C//DTD SVG 1.1//EN" "http://www.w3.org/Graphics/SVG/1.1/DTD/svg11.dtd">
<svg version="1.1" id="Capa_1" xmlns="http://www.w3.org/2000/svg" xmlns:xlink="http://www.w3.org/1999/xlink" x="0px" y="0px"
	 width="16px" height="16px" viewBox="0 0 16 16" enable-background="new 0 0 16 16" xml:space="preserve">
<g>
	<path d="M15,2H1C0.448,2,0,2.448,0,3v2h16V3C16,2.448,15.552,2,15,2z"/>
	<path d="M1,15c0,0.552,0.448,1,1,1h12c0.552,0,1-0.448,1-1V6H1V15z M6,8h4c0.552,0,1,0.448,1,1s-0.448,1-1,1H6
		c-0.552,0-1-0.448-1-1S5.448,8,6,8z"/>
</g>
</svg>
