<?xml version="1.0" encoding="utf-8"?>
<!-- Generator: Adobe Illustrator 16.0.4, SVG Export Plug-In . SVG Version: 6.00 Build 0)  -->
<!DOCTYPE svg PUBLIC "-//W3C//DTD SVG 1.1//EN" "http://www.w3.org/Graphics/SVG/1.1/DTD/svg11.dtd">
<svg version="1.1" id="Capa_1" xmlns="http://www.w3.org/2000/svg" xmlns:xlink="http://www.w3.org/1999/xlink" x="0px" y="0px"
	 width="16px" height="16px" viewBox="0 0 16 16" enable-background="new 0 0 16 16" xml:space="preserve">
<path d="M11.854,5.146l-3-3L8.691,2.039c-0.123-0.051-0.26-0.051-0.382,0L8.15,2.144L8.146,2.146l-3,3
	c-0.195,0.195-0.195,0.512,0,0.707s0.512,0.195,0.707,0L8,3.707V13.5C8,13.775,8.224,14,8.5,14C8.775,14,9,13.775,9,13.5V3.707
	l2.146,2.146c0.194,0.195,0.512,0.195,0.707,0C12.048,5.658,12.048,5.341,11.854,5.146z"/>
</svg>
