<?xml version="1.0" encoding="utf-8"?>
<!-- Generator: Adobe Illustrator 16.0.4, SVG Export Plug-In . SVG Version: 6.00 Build 0)  -->
<!DOCTYPE svg PUBLIC "-//W3C//DTD SVG 1.1//EN" "http://www.w3.org/Graphics/SVG/1.1/DTD/svg11.dtd">
<svg version="1.1" id="Capa_1" xmlns="http://www.w3.org/2000/svg" xmlns:xlink="http://www.w3.org/1999/xlink" x="0px" y="0px"
	 width="16.465px" height="16.465px" viewBox="0 0 16.465 16.465" enable-background="new 0 0 16.465 16.465" xml:space="preserve">
<path d="M13.805,3.197c-2.931-2.929-7.679-2.929-10.608,0c-2.929,2.929-2.929,7.678,0,10.608c2.929,2.928,7.678,2.928,10.608,0
	C16.732,10.875,16.732,6.126,13.805,3.197z M12,11.5v0.002l-0.038,0.189c-0.051,0.121-0.147,0.22-0.271,0.27L11.5,12H7.257
	c-0.276,0-0.5-0.225-0.5-0.5s0.224-0.5,0.5-0.5h3.036l-5.51-5.51c-0.195-0.195-0.195-0.512,0-0.707c0.195-0.195,0.512-0.195,0.707,0
	l5.51,5.51V7.257c0-0.276,0.225-0.5,0.5-0.5s0.5,0.224,0.5,0.5V11.5z"/>
</svg>
