<?xml version="1.0" encoding="utf-8"?>
<!-- Generator: Adobe Illustrator 16.0.4, SVG Export Plug-In . SVG Version: 6.00 Build 0)  -->
<!DOCTYPE svg PUBLIC "-//W3C//DTD SVG 1.1//EN" "http://www.w3.org/Graphics/SVG/1.1/DTD/svg11.dtd">
<svg version="1.1" id="Capa_1" xmlns="http://www.w3.org/2000/svg" xmlns:xlink="http://www.w3.org/1999/xlink" x="0px" y="0px"
	 width="16px" height="16px" viewBox="0 0 16 16" enable-background="new 0 0 16 16" xml:space="preserve">
<path d="M8.536,1.071c-4.122,0-7.464,3.342-7.464,7.464C1.071,12.658,4.413,16,8.536,16C12.658,16,16,12.658,16,8.536
	C16,4.413,12.658,1.071,8.536,1.071z M8.318,12.189c-0.196,0.195-0.515,0.195-0.711,0l-2.96-3.346c-0.1-0.1-0.148-0.232-0.146-0.363
	C4.5,8.35,4.547,8.219,4.647,8.119l2.959-3.345c0.196-0.196,0.515-0.196,0.711,0c0.197,0.196,0.197,0.515,0,0.711l-2.65,2.996
	l2.65,2.996C8.514,11.674,8.514,11.993,8.318,12.189z M11.904,12.189c-0.196,0.195-0.516,0.195-0.711,0l-2.96-3.346
	c-0.1-0.1-0.148-0.232-0.146-0.363C8.086,8.35,8.133,8.219,8.233,8.119l2.958-3.345c0.197-0.196,0.516-0.196,0.711,0
	c0.197,0.196,0.197,0.515,0,0.711L9.253,8.481l2.651,2.998C12.1,11.674,12.1,11.993,11.904,12.189z"/>
</svg>
