<?xml version="1.0" encoding="utf-8"?>
<!-- Generator: Adobe Illustrator 16.0.4, SVG Export Plug-In . SVG Version: 6.00 Build 0)  -->
<!DOCTYPE svg PUBLIC "-//W3C//DTD SVG 1.1//EN" "http://www.w3.org/Graphics/SVG/1.1/DTD/svg11.dtd">
<svg version="1.1" id="Capa_1" xmlns="http://www.w3.org/2000/svg" xmlns:xlink="http://www.w3.org/1999/xlink" x="0px" y="0px"
	 width="16px" height="16px" viewBox="0 0 16 16" enable-background="new 0 0 16 16" xml:space="preserve">
<g>
	<path d="M8.5,1C4.358,1,1,4.358,1,8.5C1,12.643,4.358,16,8.5,16c4.143,0,7.5-3.357,7.5-7.5C16,4.358,12.643,1,8.5,1z M8.5,15
		C4.916,15,2,12.084,2,8.5S4.916,2,8.5,2S15,4.916,15,8.5S12.084,15,8.5,15z"/>
	<path d="M8.8,6.163c-0.17-0.217-0.447-0.217-0.617,0l-0.011,0.02L5.118,10.04c-0.17,0.217-0.17,0.569,0,0.786l0.005,0.004
		C5.202,10.936,5.312,11,5.435,11h6.11c0.125,0,0.236-0.068,0.314-0.176l0.002,0.002c0.171-0.217,0.171-0.569,0-0.786L8.8,6.163z"/>
</g>
</svg>
