<?xml version="1.0" encoding="utf-8"?>
<!-- Generator: Adobe Illustrator 16.0.4, SVG Export Plug-In . SVG Version: 6.00 Build 0)  -->
<!DOCTYPE svg PUBLIC "-//W3C//DTD SVG 1.1//EN" "http://www.w3.org/Graphics/SVG/1.1/DTD/svg11.dtd">
<svg version="1.1" id="Capa_1" xmlns="http://www.w3.org/2000/svg" xmlns:xlink="http://www.w3.org/1999/xlink" x="0px" y="0px"
	 width="16px" height="16px" viewBox="0 0 16 16" enable-background="new 0 0 16 16" xml:space="preserve">
<path d="M8.5,1C4.358,1,1,4.358,1,8.5C1,12.643,4.358,16,8.5,16c4.143,0,7.5-3.357,7.5-7.5C16,4.358,12.643,1,8.5,1z M10.1,11.391
	c0.195,0.195,0.195,0.512,0,0.707s-0.512,0.195-0.707,0L6.15,8.855C6.052,8.757,6.004,8.629,6.004,8.5S6.052,8.243,6.15,8.145
	l3.243-3.243c0.195-0.195,0.512-0.195,0.707,0c0.195,0.195,0.195,0.512,0,0.707L7.209,8.5L10.1,11.391z"/>
</svg>
