<?xml version="1.0" encoding="utf-8"?>
<!-- Generator: Adobe Illustrator 16.0.4, SVG Export Plug-In . SVG Version: 6.00 Build 0)  -->
<!DOCTYPE svg PUBLIC "-//W3C//DTD SVG 1.1//EN" "http://www.w3.org/Graphics/SVG/1.1/DTD/svg11.dtd">
<svg version="1.1" id="Capa_1" xmlns="http://www.w3.org/2000/svg" xmlns:xlink="http://www.w3.org/1999/xlink" x="0px" y="0px"
	 width="16px" height="16px" viewBox="0 0 16 16" enable-background="new 0 0 16 16" xml:space="preserve">
<g>
	<path d="M10.5,9H1.705l1.147-1.147c0.195-0.195,0.195-0.512,0-0.707s-0.512-0.195-0.707,0L0.146,9.145C0.048,9.243,0,9.371,0,9.5
		s0.048,0.257,0.146,0.355l1.926,1.926c0.196,0.195,0.512,0.195,0.707,0c0.195-0.195,0.195-0.512,0-0.707L1.705,10H10.5
		c0.275,0,0.5-0.225,0.5-0.5S10.775,9,10.5,9z"/>
	<path d="M15.854,6.155l-1.926-1.926c-0.195-0.195-0.512-0.195-0.707,0s-0.195,0.512,0,0.707l1.074,1.074H5.5
		C5.224,6.01,5,6.234,5,6.51c0,0.276,0.224,0.5,0.5,0.5h8.795l-1.146,1.147c-0.195,0.195-0.195,0.512,0,0.707
		c0.194,0.194,0.512,0.194,0.707,0l1.998-1.999C15.952,6.767,16,6.639,16,6.51C16,6.381,15.952,6.253,15.854,6.155z"/>
</g>
</svg>
