<?xml version="1.0" encoding="utf-8"?>
<!-- Generator: Adobe Illustrator 16.0.4, SVG Export Plug-In . SVG Version: 6.00 Build 0)  -->
<!DOCTYPE svg PUBLIC "-//W3C//DTD SVG 1.1//EN" "http://www.w3.org/Graphics/SVG/1.1/DTD/svg11.dtd">
<svg version="1.1" id="Capa_1" xmlns="http://www.w3.org/2000/svg" xmlns:xlink="http://www.w3.org/1999/xlink" x="0px" y="0px"
	 width="16px" height="16px" viewBox="0 0 16 16" enable-background="new 0 0 16 16" xml:space="preserve">
<path d="M13.5,8C13.225,8,13,8.224,13,8.5v3.793L3.707,3H7.5C7.776,3,8,2.776,8,2.5S7.776,2,7.5,2h-5L2.309,2.039L2.15,2.144
	L2.146,2.146L2.143,2.152L2.039,2.309L2,2.5v5C2,7.776,2.224,8,2.5,8S3,7.776,3,7.5V3.707L12.293,13H8.5C8.224,13,8,13.225,8,13.5
	S8.224,14,8.5,14h5l0.191-0.039c0.121-0.051,0.22-0.148,0.27-0.27L14,13.502V8.5C14,8.224,13.775,8,13.5,8z"/>
</svg>
