<?xml version="1.0" encoding="utf-8"?>
<!-- Generator: Adobe Illustrator 16.0.4, SVG Export Plug-In . SVG Version: 6.00 Build 0)  -->
<!DOCTYPE svg PUBLIC "-//W3C//DTD SVG 1.1//EN" "http://www.w3.org/Graphics/SVG/1.1/DTD/svg11.dtd">
<svg version="1.1" id="Capa_1" xmlns="http://www.w3.org/2000/svg" xmlns:xlink="http://www.w3.org/1999/xlink" x="0px" y="0px"
	 width="16px" height="16px" viewBox="0 0 16 16" enable-background="new 0 0 16 16" xml:space="preserve">
<path d="M8.5,1C4.358,1,1,4.358,1,8.5C1,12.643,4.358,16,8.5,16c4.143,0,7.5-3.357,7.5-7.5C16,4.358,12.643,1,8.5,1z M13,8.502
	l-0.038,0.189l-0.108,0.162l-3,3c-0.194,0.194-0.512,0.194-0.707,0c-0.194-0.195-0.194-0.513,0-0.707L11.293,9H3.5
	C3.224,9,3,8.775,3,8.5C3,8.224,3.224,8,3.5,8h7.793L9.146,5.854c-0.195-0.195-0.195-0.512,0-0.707c0.194-0.195,0.512-0.195,0.707,0
	l3,3l0.107,0.162L13,8.5V8.502z"/>
</svg>
