<?xml version="1.0" encoding="utf-8"?>
<!-- Generator: Adobe Illustrator 16.0.4, SVG Export Plug-In . SVG Version: 6.00 Build 0)  -->
<!DOCTYPE svg PUBLIC "-//W3C//DTD SVG 1.1//EN" "http://www.w3.org/Graphics/SVG/1.1/DTD/svg11.dtd">
<svg version="1.1" id="Capa_1" xmlns="http://www.w3.org/2000/svg" xmlns:xlink="http://www.w3.org/1999/xlink" x="0px" y="0px"
	 width="16px" height="16px" viewBox="0 0 16 16" enable-background="new 0 0 16 16" xml:space="preserve">
<path d="M11,7H3.707l2.146-2.146c0.195-0.195,0.195-0.512,0-0.707s-0.512-0.195-0.707,0l-3,3c-0.195,0.195-0.195,0.511,0,0.707l3,3
	c0.195,0.195,0.512,0.195,0.707,0c0.195-0.194,0.195-0.512,0-0.707L3.707,8H11c2,0,3,1.846,3,3.5c0,0.275,0.225,0.5,0.5,0.5
	s0.5-0.225,0.5-0.5C15,9.294,14,7,11,7z"/>
</svg>
