<?xml version="1.0" encoding="utf-8"?>
<!-- Generator: Adobe Illustrator 16.0.4, SVG Export Plug-In . SVG Version: 6.00 Build 0)  -->
<!DOCTYPE svg PUBLIC "-//W3C//DTD SVG 1.1//EN" "http://www.w3.org/Graphics/SVG/1.1/DTD/svg11.dtd">
<svg version="1.1" id="Capa_1" xmlns="http://www.w3.org/2000/svg" xmlns:xlink="http://www.w3.org/1999/xlink" x="0px" y="0px"
	 width="16px" height="16px" viewBox="0 0 16 16" enable-background="new 0 0 16 16" xml:space="preserve">
<path d="M8.5,1C4.358,1,1,4.358,1,8.5C1,12.643,4.358,16,8.5,16c4.143,0,7.5-3.357,7.5-7.5C16,4.358,12.643,1,8.5,1z M10,11.545
	c0,0.123-0.064,0.232-0.169,0.312l-0.004,0.004c-0.218,0.171-0.569,0.171-0.786,0L5.183,8.809l-0.02-0.012
	c-0.217-0.17-0.217-0.447,0-0.617L9.04,5.118c0.217-0.17,0.569-0.17,0.786,0L9.824,5.12C9.932,5.199,10,5.31,10,5.435V11.545z"/>
</svg>
