<?xml version="1.0" encoding="utf-8"?>
<!-- Generator: Adobe Illustrator 16.0.4, SVG Export Plug-In . SVG Version: 6.00 Build 0)  -->
<!DOCTYPE svg PUBLIC "-//W3C//DTD SVG 1.1//EN" "http://www.w3.org/Graphics/SVG/1.1/DTD/svg11.dtd">
<svg version="1.1" id="Capa_1" xmlns="http://www.w3.org/2000/svg" xmlns:xlink="http://www.w3.org/1999/xlink" x="0px" y="0px"
	 width="16px" height="16.025px" viewBox="0 0 16 16.025" enable-background="new 0 0 16 16.025" xml:space="preserve">
<path d="M10.146,13.147L9,14.293V1.707l1.146,1.147c0.194,0.194,0.512,0.194,0.707,0c0.194-0.195,0.194-0.513,0-0.707l-2-2
	L8.691,0.039c-0.123-0.051-0.26-0.051-0.382,0L8.15,0.144L8.146,0.146l-2,2c-0.195,0.194-0.195,0.512,0,0.707
	c0.195,0.194,0.512,0.194,0.707,0L8,1.707v12.586l-1.146-1.146c-0.195-0.195-0.512-0.195-0.707,0c-0.195,0.194-0.195,0.512,0,0.707
	l2,2l0.004,0.003l0.158,0.104c0.122,0.052,0.259,0.052,0.382,0l0.162-0.107l2-2c0.194-0.195,0.194-0.513,0-0.707
	C10.658,12.952,10.341,12.952,10.146,13.147z"/>
</svg>
