<?xml version="1.0" encoding="utf-8"?>
<!-- Generator: Adobe Illustrator 16.0.4, SVG Export Plug-In . SVG Version: 6.00 Build 0)  -->
<!DOCTYPE svg PUBLIC "-//W3C//DTD SVG 1.1//EN" "http://www.w3.org/Graphics/SVG/1.1/DTD/svg11.dtd">
<svg version="1.1" id="Capa_1" xmlns="http://www.w3.org/2000/svg" xmlns:xlink="http://www.w3.org/1999/xlink" x="0px" y="0px"
	 width="16px" height="16px" viewBox="0 0 16 16" enable-background="new 0 0 16 16" xml:space="preserve">
<path d="M8.5,1C4.358,1,1,4.358,1,8.5C1,12.643,4.358,16,8.5,16c4.143,0,7.5-3.357,7.5-7.5C16,4.358,12.643,1,8.5,1z M13.5,9H5.707
	l2.146,2.146c0.195,0.194,0.195,0.512,0,0.707c-0.195,0.194-0.512,0.194-0.707,0l-3-3L4.143,8.848L4.039,8.691L4,8.502V8.5
	l0.039-0.191l0.104-0.157l0.004-0.006l3-3c0.195-0.195,0.512-0.195,0.707,0s0.195,0.512,0,0.707L5.707,8H13.5
	C13.775,8,14,8.224,14,8.5C14,8.775,13.775,9,13.5,9z"/>
</svg>
