<?xml version="1.0" encoding="utf-8"?>
<!-- Generator: Adobe Illustrator 16.0.4, SVG Export Plug-In . SVG Version: 6.00 Build 0)  -->
<!DOCTYPE svg PUBLIC "-//W3C//DTD SVG 1.1//EN" "http://www.w3.org/Graphics/SVG/1.1/DTD/svg11.dtd">
<svg version="1.1" id="Capa_1" xmlns="http://www.w3.org/2000/svg" xmlns:xlink="http://www.w3.org/1999/xlink" x="0px" y="0px"
	 width="16px" height="16px" viewBox="0 0 16 16" enable-background="new 0 0 16 16" xml:space="preserve">
<path d="M8.5,1C4.358,1,1,4.358,1,8.5C1,12.643,4.358,16,8.5,16c4.143,0,7.5-3.357,7.5-7.5C16,4.358,12.643,1,8.5,1z M11.837,8.8
	L7.96,11.861c-0.217,0.171-0.569,0.171-0.786,0l0.002-0.002C7.069,11.781,7,11.67,7,11.545v-6.11c0-0.123,0.065-0.233,0.169-0.312
	l0.005-0.005c0.217-0.17,0.569-0.17,0.786,0l3.856,3.055l0.021,0.011C12.055,8.354,12.055,8.63,11.837,8.8z"/>
</svg>
