<?xml version="1.0" encoding="utf-8"?>
<!-- Generator: Adobe Illustrator 16.0.4, SVG Export Plug-In . SVG Version: 6.00 Build 0)  -->
<!DOCTYPE svg PUBLIC "-//W3C//DTD SVG 1.1//EN" "http://www.w3.org/Graphics/SVG/1.1/DTD/svg11.dtd">
<svg version="1.1" id="Capa_1" xmlns="http://www.w3.org/2000/svg" xmlns:xlink="http://www.w3.org/1999/xlink" x="0px" y="0px"
	 width="16px" height="16px" viewBox="0 0 16 16" enable-background="new 0 0 16 16" xml:space="preserve">
<path d="M15.961,8.309l-0.107-0.162l-2-2c-0.195-0.195-0.513-0.195-0.707,0c-0.195,0.195-0.195,0.512,0,0.707L14.293,8H1.707
	l1.146-1.146c0.195-0.195,0.195-0.512,0-0.707s-0.512-0.195-0.707,0l-2,2L0.143,8.152L0.039,8.309L0,8.5v0.002l0.039,0.189
	l0.104,0.156l0.003,0.006l2,2c0.195,0.195,0.512,0.195,0.707,0c0.195-0.194,0.195-0.512,0-0.707L1.707,9h12.586l-1.146,1.146
	c-0.194,0.194-0.194,0.512,0,0.707c0.195,0.194,0.513,0.194,0.707,0l2-2l0.108-0.162L16,8.502V8.5L15.961,8.309z"/>
</svg>
