<?xml version="1.0" encoding="utf-8"?>
<!-- Generator: Adobe Illustrator 17.0.0, SVG Export Plug-In . SVG Version: 6.00 Build 0)  -->
<!DOCTYPE svg PUBLIC "-//W3C//DTD SVG 1.1//EN" "http://www.w3.org/Graphics/SVG/1.1/DTD/svg11.dtd">
<svg version="1.1" id="Capa_1" xmlns="http://www.w3.org/2000/svg" xmlns:xlink="http://www.w3.org/1999/xlink" x="0px" y="0px"
	 width="16.201px" height="16px" viewBox="0 0 16.201 16" enable-background="new 0 0 16.201 16" xml:space="preserve">
<path d="M3.853,10.971L3.624,12h10.72c0.276,0,0.5,0.225,0.5,0.5s-0.224,0.5-0.5,0.5H3c-0.152,0-0.295-0.068-0.39-0.187
	c-0.095-0.117-0.131-0.273-0.098-0.42l0.509-2.291L3,10L2.131,5.656L1.51,3H0.471c-0.277,0-0.5-0.224-0.5-0.5S0.195,2,0.471,2h1.435
	C2.139,2,2.34,2.16,2.393,2.386l0.388,1.658L3,4h12c0.554,0,1.172,0.375,0.889,1.268l-1.623,4.982C14,10.891,13.667,11,13.115,11H4
	L3.853,10.971z M4,14c-0.552,0-1,0.448-1,1s0.448,1,1,1c0.552,0,1-0.448,1-1S4.552,14,4,14z M13,14c-0.552,0-1,0.448-1,1
	s0.448,1,1,1c0.552,0,1-0.448,1-1S13.552,14,13,14z"/>
</svg>
