<?xml version="1.0" encoding="utf-8"?>
<!-- Generator: Adobe Illustrator 16.0.4, SVG Export Plug-In . SVG Version: 6.00 Build 0)  -->
<!DOCTYPE svg PUBLIC "-//W3C//DTD SVG 1.1//EN" "http://www.w3.org/Graphics/SVG/1.1/DTD/svg11.dtd">
<svg version="1.1" id="Capa_1" xmlns="http://www.w3.org/2000/svg" xmlns:xlink="http://www.w3.org/1999/xlink" x="0px" y="0px"
	 width="16px" height="16.18px" viewBox="0 0 16 16.18" enable-background="new 0 0 16 16.18" xml:space="preserve">
<path d="M13.23,10.061L4.914,0.178C4.778,0.017,4.556-0.042,4.36,0.03C4.163,0.102,4.031,0.29,4.031,0.5v13.047
	c0,0.216,0.138,0.407,0.343,0.475l0.157,0.025c0.155,0,0.305-0.072,0.401-0.202l2.236-3.012l1.551,4.437
	c0.199,0.568,0.821,0.868,1.389,0.669c0.568-0.198,0.869-0.82,0.67-1.389l-1.522-4.354l3.498,0.678
	c0.211,0.041,0.42-0.057,0.526-0.238C13.387,10.453,13.368,10.223,13.23,10.061z"/>
</svg>
