<?xml version="1.0" encoding="utf-8"?>
<!-- Generator: Adobe Illustrator 16.0.4, SVG Export Plug-In . SVG Version: 6.00 Build 0)  -->
<!DOCTYPE svg PUBLIC "-//W3C//DTD SVG 1.1//EN" "http://www.w3.org/Graphics/SVG/1.1/DTD/svg11.dtd">
<svg version="1.1" id="Capa_1" xmlns="http://www.w3.org/2000/svg" xmlns:xlink="http://www.w3.org/1999/xlink" x="0px" y="0px"
	 width="16.391px" height="16.391px" viewBox="0 0 16.391 16.391" enable-background="new 0 0 16.391 16.391" xml:space="preserve">
<path d="M13.813,3.254c-2.916-2.916-7.644-2.916-10.559,0c-2.916,2.916-2.916,7.644,0,10.559s7.644,2.916,10.559,0
	C16.729,10.897,16.729,6.169,13.813,3.254z M12.5,9H8.52L8.5,9.004c-0.276,0-0.5-0.225-0.5-0.5V3.5C8,3.224,8.224,3,8.5,3
	C8.776,3,9,3.224,9,3.5V8h3.5C12.776,8,13,8.224,13,8.5C13,8.776,12.776,9,12.5,9z"/>
</svg>
