<?xml version="1.0" encoding="utf-8"?>
<!-- Generator: Adobe Illustrator 16.0.4, SVG Export Plug-In . SVG Version: 6.00 Build 0)  -->
<!DOCTYPE svg PUBLIC "-//W3C//DTD SVG 1.1//EN" "http://www.w3.org/Graphics/SVG/1.1/DTD/svg11.dtd">
<svg version="1.1" id="Capa_1" xmlns="http://www.w3.org/2000/svg" xmlns:xlink="http://www.w3.org/1999/xlink" x="0px" y="0px"
	 width="16px" height="16px" viewBox="0 0 16 16" enable-background="new 0 0 16 16" xml:space="preserve">
<path d="M14.966,6h-0.897C13.52,6,13.038,5.535,13,5c0-2.854-2.301-5-5.175-5H5.203C2.331,0,0.002,2.313,0,5.167v5.669
	C0,13.689,2.331,16,5.203,16h5.6C13.677,16,16,13.689,16,10.835V7.173C16,6.603,15.54,6,14.966,6z M5,4h3c0.55,0,1,0.45,1,1
	S8.55,6,8,6H5C4.45,6,4,5.55,4,5S4.45,4,5,4z M11,12H5c-0.55,0-1-0.45-1-1s0.45-1,1-1h6c0.55,0,1,0.45,1,1S11.55,12,11,12z"/>
</svg>
