<?xml version="1.0" encoding="utf-8"?>
<!-- Generator: Adobe Illustrator 16.0.4, SVG Export Plug-In . SVG Version: 6.00 Build 0)  -->
<!DOCTYPE svg PUBLIC "-//W3C//DTD SVG 1.1//EN" "http://www.w3.org/Graphics/SVG/1.1/DTD/svg11.dtd">
<svg version="1.1" id="Capa_1" xmlns="http://www.w3.org/2000/svg" xmlns:xlink="http://www.w3.org/1999/xlink" x="0px" y="0px"
	 width="16px" height="16px" viewBox="0 0 16 16" enable-background="new 0 0 16 16" xml:space="preserve">
<path d="M13.521,0h-11c-1.38,0-2.497,1.109-2.517,2.484L0,2.479v11C0,14.871,1.129,16,2.521,16h8.5C11.573,16,12,15.552,12,15V4.5
	C12,4.224,11.797,4,11.521,4h-9C1.682,4,1,3.359,1,2.521C1,1.682,1.682,1,2.521,1H13v11.5c0,0.275,0.245,0.5,0.521,0.5
	C13.797,13,14,12.775,14,12.5v-12C14,0.224,13.797,0,13.521,0z M2.521,5h8.48l0.021,10h-8.5C1.682,15,1,14.318,1,13.479V4.511
	C1.42,4.819,1.945,5,2.521,5z"/>
</svg>
