<?xml version="1.0" encoding="utf-8"?>
<!-- Generator: Adobe Illustrator 16.0.4, SVG Export Plug-In . SVG Version: 6.00 Build 0)  -->
<!DOCTYPE svg PUBLIC "-//W3C//DTD SVG 1.1//EN" "http://www.w3.org/Graphics/SVG/1.1/DTD/svg11.dtd">
<svg version="1.1" id="Capa_1" xmlns="http://www.w3.org/2000/svg" xmlns:xlink="http://www.w3.org/1999/xlink" x="0px" y="0px"
	 width="16px" height="16px" viewBox="0 0 16 16" enable-background="new 0 0 16 16" xml:space="preserve">
<g>
	<path fill="#211915" d="M15,5h-2c0,0-0.578,0-1-1c-0.215-0.509-0.448-1-1-1H7C6.448,3,6.208,3.488,6,4C5.594,5,5,5,5,5H4
		c0-0.552-0.448-1-1-1H2C1.448,4,1,4.448,1,5C0.448,5,0,5.448,0,6v8c0,0.552,0.448,1,1,1h14c0.552,0,1-0.448,1-1V6
		C16,5.448,15.552,5,15,5z M15,14H1v-4h4.55c0.245,1.693,1.688,3,3.45,3c1.805,0,3.273-1.371,3.462-3.125H15V14z M6.5,9.5
		C6.5,8.121,7.622,7,9,7s2.5,1.121,2.5,2.5c0,1.378-1.122,2.5-2.5,2.5S6.5,10.878,6.5,9.5z M15,9h-2.55C12.205,7.306,10.762,6,9,6
		C7.238,6,5.795,7.306,5.55,9H1V6h4c0.584,0,1.44-0.425,1.926-1.624C7.009,4.173,7.065,4.061,7.102,4h3.792
		c0.065,0.11,0.151,0.313,0.185,0.389C11.727,5.922,12.793,6,13,6h2V9z"/>
	<circle fill="#211915" cx="2.5" cy="7.51" r="0.5"/>
</g>
</svg>
