<?xml version="1.0" encoding="utf-8"?>
<!-- Generator: Adobe Illustrator 16.0.4, SVG Export Plug-In . SVG Version: 6.00 Build 0)  -->
<!DOCTYPE svg PUBLIC "-//W3C//DTD SVG 1.1//EN" "http://www.w3.org/Graphics/SVG/1.1/DTD/svg11.dtd">
<svg version="1.1" id="Capa_1" xmlns="http://www.w3.org/2000/svg" xmlns:xlink="http://www.w3.org/1999/xlink" x="0px" y="0px"
	 width="16px" height="16px" viewBox="0 0 16 16" enable-background="new 0 0 16 16" xml:space="preserve">
<g>
	<path d="M16,9.449c0-1.428-0.797-2.701-2.045-3.554c0.088,0.396,0.139,0.803,0.139,1.221c0,3.228-2.74,5.919-6.348,6.497
		c0.763,0.308,1.617,0.488,2.529,0.488c0.858,0,1.67-0.158,2.401-0.434c0.927,0.316,1.939,0.398,2.776,0.398
		c-0.436-0.522-0.737-1.034-0.953-1.484C15.428,11.754,16,10.657,16,9.449z"/>
	<path d="M12.594,7.116C12.594,4.291,9.775,2,6.297,2C2.819,2,0,4.291,0,7.116c0,1.474,0.771,2.798,1.999,3.731
		c-0.231,0.596-0.622,1.375-1.285,2.172c1.258,0,2.878-0.164,4.125-0.931c0.469,0.091,0.956,0.144,1.458,0.144
		C9.775,12.232,12.594,9.941,12.594,7.116z"/>
</g>
</svg>
