<?xml version="1.0" encoding="utf-8"?>
<!-- Generator: Adobe Illustrator 16.0.4, SVG Export Plug-In . SVG Version: 6.00 Build 0)  -->
<!DOCTYPE svg PUBLIC "-//W3C//DTD SVG 1.1//EN" "http://www.w3.org/Graphics/SVG/1.1/DTD/svg11.dtd">
<svg version="1.1" id="Capa_1" xmlns="http://www.w3.org/2000/svg" xmlns:xlink="http://www.w3.org/1999/xlink" x="0px" y="0px"
	 width="16px" height="16px" viewBox="0 0 16 16" enable-background="new 0 0 16 16" xml:space="preserve">
<g>
	<path d="M8.042,0c-4.418,0-8,3.582-8,8s3.582,8,8,8s8-3.582,8-8S12.46,0,8.042,0z M8.042,15c-3.86,0-7-3.141-7-7c0-3.86,3.14-7,7-7
		c3.86,0,7,3.14,7,7C15.042,11.859,11.9,15,8.042,15z"/>
	<path d="M11.546,4.818c-0.323-0.212-0.757-0.121-0.969,0.203L7.201,10.18L5.587,8.686C5.303,8.424,4.86,8.441,4.597,8.725
		C4.334,9.009,4.352,9.451,4.636,9.714l2.231,2.063l0.026,0.017l0.053,0.054l0.096,0.037l0.115,0.047l0.117,0.018l0.168-0.002
		l0.068-0.016l0.196-0.082l0.031-0.022l0.12-0.087l0.056-0.092l0.003-0.004l3.832-5.856C11.96,5.464,11.869,5.03,11.546,4.818z"/>
</g>
</svg>
