<?xml version="1.0" encoding="utf-8"?>
<!-- Generator: Adobe Illustrator 16.0.4, SVG Export Plug-In . SVG Version: 6.00 Build 0)  -->
<!DOCTYPE svg PUBLIC "-//W3C//DTD SVG 1.1//EN" "http://www.w3.org/Graphics/SVG/1.1/DTD/svg11.dtd">
<svg version="1.1" id="Capa_1" xmlns="http://www.w3.org/2000/svg" xmlns:xlink="http://www.w3.org/1999/xlink" x="0px" y="0px"
	 width="16px" height="16px" viewBox="0 0 16 16" enable-background="new 0 0 16 16" xml:space="preserve">
<g>
	<path d="M8.536,1.072c-4.122,0-7.464,3.342-7.464,7.464S4.414,16,8.536,16S16,12.658,16,8.536S12.658,1.072,8.536,1.072z M8.536,15
		c-3.564,0-6.464-2.9-6.464-6.464c0-3.564,2.9-6.464,6.464-6.464C12.1,2.072,15,4.972,15,8.536C15,12.1,12.1,15,8.536,15z"/>
	<path d="M7.607,4.902c-0.195-0.195-0.512-0.195-0.707,0c-0.195,0.195-0.195,0.512,0,0.707L9.791,8.5L6.9,11.391
		c-0.195,0.195-0.195,0.512,0,0.707c0.195,0.195,0.512,0.195,0.707,0l3.243-3.242c0.099-0.099,0.147-0.228,0.146-0.355
		c0-0.129-0.048-0.257-0.146-0.355L7.607,4.902z"/>
</g>
</svg>
