<?xml version="1.0" encoding="utf-8"?>
<!-- Generator: Adobe Illustrator 16.0.4, SVG Export Plug-In . SVG Version: 6.00 Build 0)  -->
<!DOCTYPE svg PUBLIC "-//W3C//DTD SVG 1.1//EN" "http://www.w3.org/Graphics/SVG/1.1/DTD/svg11.dtd">
<svg version="1.1" id="Capa_1" xmlns="http://www.w3.org/2000/svg" xmlns:xlink="http://www.w3.org/1999/xlink" x="0px" y="0px"
	 width="16px" height="16px" viewBox="0 0 16 16" enable-background="new 0 0 16 16" xml:space="preserve">
<path d="M13,8l-0.102,0.01C12.965,7.684,13,7.346,13,7c0-2.761-2.238-5-5-5C5.239,2,3,4.239,3,7l0.005,0.05
	C1.309,7.292,0,8.736,0,10.5c0,1.762,1.306,3.205,3,3.45V14h5l-3.122-4H7V6c0-0.552,0.448-1,1-1s1,0.448,1,1v4h2.122L8,14h5
	c1.657,0,3-1.343,3-3S14.657,8,13,8z"/>
</svg>
