<?xml version="1.0" encoding="utf-8"?>
<!-- Generator: Adobe Illustrator 16.0.4, SVG Export Plug-In . SVG Version: 6.00 Build 0)  -->
<!DOCTYPE svg PUBLIC "-//W3C//DTD SVG 1.1//EN" "http://www.w3.org/Graphics/SVG/1.1/DTD/svg11.dtd">
<svg version="1.1" id="Capa_1" xmlns="http://www.w3.org/2000/svg" xmlns:xlink="http://www.w3.org/1999/xlink" x="0px" y="0px"
	 width="16px" height="16px" viewBox="0 0 16 16" enable-background="new 0 0 16 16" xml:space="preserve">
<g>
	<path d="M8,0C3.582,0,0,3.582,0,8s3.582,8,8,8s8-3.582,8-8S12.418,0,8,0z M11.924,4.765l-1.162,1.862L9.986,7.869L10,8
		c0,1.105-0.895,2-2,2L7.869,9.986l-1.243,0.774l-1.861,1.162C4.684,11.975,4.592,12,4.5,12c-0.129,0-0.257-0.05-0.354-0.146
		c-0.165-0.164-0.194-0.42-0.07-0.617l1.162-1.861l0.775-1.242L6,8c0-1.105,0.895-2,2-2l0.131,0.013l1.243-0.775l1.86-1.162
		c0.195-0.123,0.453-0.094,0.619,0.071C12.02,4.311,12.048,4.567,11.924,4.765z"/>
	<circle cx="8" cy="8" r="1"/>
</g>
</svg>
