<?xml version="1.0" encoding="utf-8"?>
<!-- Generator: Adobe Illustrator 16.0.4, SVG Export Plug-In . SVG Version: 6.00 Build 0)  -->
<!DOCTYPE svg PUBLIC "-//W3C//DTD SVG 1.1//EN" "http://www.w3.org/Graphics/SVG/1.1/DTD/svg11.dtd">
<svg version="1.1" id="Capa_1" xmlns="http://www.w3.org/2000/svg" xmlns:xlink="http://www.w3.org/1999/xlink" x="0px" y="0px"
	 width="16px" height="16px" viewBox="0 0 16 16" enable-background="new 0 0 16 16" xml:space="preserve">
<path d="M15,0H1C0.448,0,0,0.448,0,1v14c0,0.552,0.448,1,1,1h14c0.552,0,1-0.448,1-1V1C16,0.448,15.552,0,15,0z M7,13.5
	C7,13.775,6.776,14,6.5,14S6,13.775,6,13.5v-2.793l-3.146,3.146c-0.195,0.194-0.512,0.194-0.707,0c-0.195-0.195-0.195-0.513,0-0.707
	L5.293,10H2.5C2.224,10,2,9.775,2,9.5S2.224,9,2.5,9h4l0.191,0.039c0.122,0.051,0.22,0.148,0.27,0.27L7,9.5V13.5z M13.5,7h-4
	L9.309,6.961L9.15,6.856L9.146,6.854L9.143,6.848L9.039,6.691L9,6.502V2.5C9,2.224,9.225,2,9.5,2S10,2.224,10,2.5v2.793l3.146-3.146
	c0.194-0.195,0.512-0.195,0.707,0c0.194,0.195,0.194,0.512,0,0.707L10.707,6H13.5C13.775,6,14,6.224,14,6.5S13.775,7,13.5,7z"/>
</svg>
