<?xml version="1.0" encoding="utf-8"?>
<!-- Generator: Adobe Illustrator 16.0.4, SVG Export Plug-In . SVG Version: 6.00 Build 0)  -->
<!DOCTYPE svg PUBLIC "-//W3C//DTD SVG 1.1//EN" "http://www.w3.org/Graphics/SVG/1.1/DTD/svg11.dtd">
<svg version="1.1" id="Capa_1" xmlns="http://www.w3.org/2000/svg" xmlns:xlink="http://www.w3.org/1999/xlink" x="0px" y="0px"
	 width="16px" height="16px" viewBox="0 0 16 16" enable-background="new 0 0 16 16" xml:space="preserve">
<g>
	<path d="M12.482,10l-0.379-1H3.896l-0.379,1L2,14h12L12.482,10z M4.587,10h6.827l1.138,3H3.449L4.587,10z"/>
	<path d="M11.346,7l-0.379-1L8.934,0.639C8.784,0.254,8.413,0,8,0S7.216,0.254,7.067,0.639L5.034,6L4.655,7h5.621H11.346z M6.104,6
		L8,1l1.896,5H6.104z"/>
	<path d="M15.492,15H0.508C0.227,15,0,15.212,0,15.492C0,15.771,0.227,16,0.508,16h14.984C15.773,16,16,15.773,16,15.492
		S15.773,15,15.492,15z"/>
</g>
</svg>
