<?xml version="1.0" encoding="utf-8"?>
<!-- Generator: Adobe Illustrator 16.0.4, SVG Export Plug-In . SVG Version: 6.00 Build 0)  -->
<!DOCTYPE svg PUBLIC "-//W3C//DTD SVG 1.1//EN" "http://www.w3.org/Graphics/SVG/1.1/DTD/svg11.dtd">
<svg version="1.1" id="Capa_1" xmlns="http://www.w3.org/2000/svg" xmlns:xlink="http://www.w3.org/1999/xlink" x="0px" y="0px"
	 width="16px" height="16.032px" viewBox="0 0 16 16.032" enable-background="new 0 0 16 16.032" xml:space="preserve">
<g>
	<path d="M7.965,0c-3.308,0-6,2.692-6,6c0,0.235,0.015,0.468,0.043,0.698L2.029,6.83c0.027,0.19,0.059,0.379,0.104,0.564l0.028,0.1
		c0.051,0.197,0.11,0.393,0.181,0.583l0.021,0.054C2.442,8.336,2.53,8.538,2.631,8.732l0.012,0.022
		c0.105,0.201,0.221,0.397,0.349,0.588l0.011,0.017c0.125,0.185,0.261,0.362,0.406,0.533l0.035,0.041
		c0.132,0.153,0.275,0.298,0.423,0.438l0.098,0.092l0.129,0.121l0.09,0.057l0.298,0.244l0.104,0.089C5.276,11.547,4.939,12,5.707,12
		h4.516c0.768,0,0.432-0.453,1.123-1.026l0.104-0.089l0.298-0.244l0.09-0.057l0.129-0.121l0.099-0.092
		c0.147-0.141,0.289-0.285,0.422-0.438l0.035-0.041c0.146-0.171,0.281-0.349,0.406-0.533l0.012-0.017
		c0.127-0.189,0.242-0.385,0.348-0.588l0.012-0.021c0.102-0.195,0.189-0.396,0.268-0.601l0.021-0.054
		c0.071-0.19,0.13-0.386,0.182-0.583l0.027-0.1c0.045-0.185,0.077-0.374,0.104-0.564l0.022-0.132C13.95,6.468,13.965,6.235,13.965,6
		C13.965,2.692,11.273,0,7.965,0z"/>
	<path d="M5.707,15l1.803,0.922c0.143,0.072,0.299,0.109,0.455,0.109c0.154,0,0.309-0.035,0.451-0.107L10.245,15H7.904H5.707z"/>
	<path d="M10.5,13h-5C5.224,13,5,13.224,5,13.5C5,13.776,5.224,14,5.5,14h5c0.275,0,0.5-0.225,0.5-0.5C11,13.224,10.775,13,10.5,13z
		"/>
</g>
</svg>
