<?xml version="1.0" encoding="utf-8"?>
<!-- Generator: Adobe Illustrator 16.0.4, SVG Export Plug-In . SVG Version: 6.00 Build 0)  -->
<!DOCTYPE svg PUBLIC "-//W3C//DTD SVG 1.1//EN" "http://www.w3.org/Graphics/SVG/1.1/DTD/svg11.dtd">
<svg version="1.1" id="Capa_1" xmlns="http://www.w3.org/2000/svg" xmlns:xlink="http://www.w3.org/1999/xlink" x="0px" y="0px"
	 width="16px" height="16px" viewBox="0 0 16 16" enable-background="new 0 0 16 16" xml:space="preserve">
<path d="M14,2h-1V1c0-0.552-0.448-1-1-1H2C1.448,0,1,0.448,1,1v12c0,0.552,0.448,1,1,1h1v1c0,0.552,0.448,1,1,1h10
	c0.552,0,1-0.448,1-1V3C15,2.448,14.552,2,14,2z M6.458,2H10.5C10.775,2,11,2.224,11,2.5S10.775,3,10.5,3H6.458
	c-0.276,0-0.5-0.224-0.5-0.5S6.182,2,6.458,2z M3.458,5H10.5C10.775,5,11,5.224,11,5.5S10.775,6,10.5,6H3.458
	c-0.276,0-0.5-0.224-0.5-0.5S3.182,5,3.458,5z M3.458,8H10.5C10.775,8,11,8.224,11,8.5C11,8.775,10.775,9,10.5,9H3.458
	c-0.276,0-0.5-0.225-0.5-0.5C2.958,8.224,3.182,8,3.458,8z M3.458,12c-0.276,0-0.5-0.225-0.5-0.5s0.224-0.5,0.5-0.5H10.5
	c0.275,0,0.5,0.225,0.5,0.5S10.775,12,10.5,12H3.458z M14,15H4v-1h8c0.552,0,1-0.448,1-1V3h1V15z"/>
</svg>
