<?xml version="1.0" encoding="utf-8"?>
<!-- Generator: Adobe Illustrator 16.0.4, SVG Export Plug-In . SVG Version: 6.00 Build 0)  -->
<!DOCTYPE svg PUBLIC "-//W3C//DTD SVG 1.1//EN" "http://www.w3.org/Graphics/SVG/1.1/DTD/svg11.dtd">
<svg version="1.1" id="Capa_1" xmlns="http://www.w3.org/2000/svg" xmlns:xlink="http://www.w3.org/1999/xlink" x="0px" y="0px"
	 width="16px" height="16px" viewBox="0 0 16 16" enable-background="new 0 0 16 16" xml:space="preserve">
<g>
	<path d="M16,9.449c0-1.428-0.797-2.701-2.045-3.554c0.088,0.396,0.139,0.803,0.139,1.221c0,3.228-2.74,5.919-6.348,6.497
		c0.763,0.308,1.617,0.488,2.529,0.488c0.858,0,1.67-0.158,2.401-0.434c0.927,0.316,1.939,0.398,2.776,0.398
		c-0.436-0.522-0.737-1.034-0.953-1.484C15.428,11.754,16,10.657,16,9.449z"/>
	<path d="M12.566,6.62c0-3.075-2.812-5.576-6.271-5.576s-6.269,2.5-6.269,5.575c0,1.431,0.63,2.814,1.739,3.849
		c-0.249,0.606-0.579,1.179-0.982,1.704c-0.119,0.154-0.137,0.364-0.047,0.537c0.087,0.165,0.258,0.268,0.443,0.268h0.024
		c0.529-0.025,1.581-0.377,2.695-1.084c0.596,0.105,1.931,0.303,2.397,0.303C9.812,12.195,12.566,9.747,12.566,6.62z"/>
</g>
</svg>
