<?xml version="1.0" encoding="utf-8"?>
<!-- Generator: Adobe Illustrator 16.0.4, SVG Export Plug-In . SVG Version: 6.00 Build 0)  -->
<!DOCTYPE svg PUBLIC "-//W3C//DTD SVG 1.1//EN" "http://www.w3.org/Graphics/SVG/1.1/DTD/svg11.dtd">
<svg version="1.1" id="Capa_1" xmlns="http://www.w3.org/2000/svg" xmlns:xlink="http://www.w3.org/1999/xlink" x="0px" y="0px"
	 width="16px" height="16px" viewBox="0 0 16 16" enable-background="new 0 0 16 16" xml:space="preserve">
<g>
	<path d="M11.854,7.656L8.895,4.311c-0.196-0.196-0.516-0.196-0.711,0c-0.196,0.196-0.196,0.515,0,0.711l2.65,2.996l-2.65,2.996
		c-0.196,0.196-0.196,0.516,0,0.711c0.196,0.196,0.515,0.196,0.711,0l2.959-3.345c0.1-0.1,0.147-0.231,0.146-0.362
		C12,7.887,11.953,7.756,11.854,7.656z"/>
	<path d="M8.412,8.019c0.002-0.131-0.046-0.263-0.146-0.362L5.308,4.311c-0.196-0.196-0.515-0.196-0.711,0
		c-0.196,0.196-0.196,0.515,0,0.711l2.65,2.996l-2.65,2.996C4.4,11.211,4.4,11.529,4.596,11.727c0.196,0.195,0.515,0.195,0.711,0
		l2.959-3.346C8.366,8.281,8.414,8.15,8.412,8.019z"/>
</g>
</svg>
