<?xml version="1.0" encoding="utf-8"?>
<!-- Generator: Adobe Illustrator 16.0.4, SVG Export Plug-In . SVG Version: 6.00 Build 0)  -->
<!DOCTYPE svg PUBLIC "-//W3C//DTD SVG 1.1//EN" "http://www.w3.org/Graphics/SVG/1.1/DTD/svg11.dtd">
<svg version="1.1" id="Capa_1" xmlns="http://www.w3.org/2000/svg" xmlns:xlink="http://www.w3.org/1999/xlink" x="0px" y="0px"
	 width="16px" height="16px" viewBox="0 0 16 16" enable-background="new 0 0 16 16" xml:space="preserve">
<g>
	<path d="M5.167,7.982l2.65-2.996c0.196-0.196,0.196-0.515,0-0.711c-0.196-0.196-0.515-0.196-0.711,0L4.147,7.619
		C4.047,7.719,4,7.85,4.001,7.981C4,8.112,4.047,8.244,4.147,8.344l2.959,3.346c0.196,0.195,0.515,0.195,0.711,0
		c0.196-0.196,0.196-0.516,0-0.711L5.167,7.982z"/>
	<path d="M8.753,7.982l2.649-2.996C11.6,4.789,11.6,4.47,11.404,4.274c-0.196-0.196-0.516-0.196-0.711,0l-2.96,3.345
		c-0.1,0.1-0.148,0.231-0.146,0.362C7.586,8.112,7.633,8.244,7.733,8.344l2.958,3.346c0.197,0.195,0.516,0.195,0.711,0
		c0.197-0.196,0.197-0.516,0-0.711L8.753,7.982z"/>
</g>
</svg>
