<?xml version="1.0" encoding="utf-8"?>
<!-- Generator: Adobe Illustrator 16.0.4, SVG Export Plug-In . SVG Version: 6.00 Build 0)  -->
<!DOCTYPE svg PUBLIC "-//W3C//DTD SVG 1.1//EN" "http://www.w3.org/Graphics/SVG/1.1/DTD/svg11.dtd">
<svg version="1.1" id="Capa_1" xmlns="http://www.w3.org/2000/svg" xmlns:xlink="http://www.w3.org/1999/xlink" x="0px" y="0px"
	 width="16px" height="16px" viewBox="0 0 16 16" enable-background="new 0 0 16 16" xml:space="preserve">
<path d="M8.533,1.067c-4.124,0-7.467,3.343-7.467,7.467S4.41,16,8.533,16S16,12.657,16,8.533S12.657,1.067,8.533,1.067z
	 M12.189,9.395l-3.346,2.959c-0.1,0.1-0.23,0.147-0.362,0.146C8.35,12.5,8.219,12.453,8.119,12.354L4.774,9.395
	c-0.196-0.196-0.196-0.516,0-0.711c0.196-0.197,0.515-0.197,0.711,0l2.996,2.649l2.996-2.649c0.196-0.197,0.516-0.197,0.711,0
	C12.384,8.879,12.387,9.197,12.189,9.395z M12.189,5.808L8.844,8.768c-0.1,0.1-0.23,0.147-0.362,0.146
	C8.35,8.914,8.219,8.867,8.119,8.768L4.774,5.808c-0.196-0.196-0.196-0.515,0-0.711C4.97,4.9,5.289,4.9,5.485,5.096l2.996,2.65
	l2.996-2.65c0.196-0.196,0.516-0.196,0.711,0C12.384,5.292,12.387,5.611,12.189,5.808z"/>
</svg>
