<?xml version="1.0" encoding="utf-8"?>
<!-- Generator: Adobe Illustrator 16.0.4, SVG Export Plug-In . SVG Version: 6.00 Build 0)  -->
<!DOCTYPE svg PUBLIC "-//W3C//DTD SVG 1.1//EN" "http://www.w3.org/Graphics/SVG/1.1/DTD/svg11.dtd">
<svg version="1.1" id="Capa_1" xmlns="http://www.w3.org/2000/svg" xmlns:xlink="http://www.w3.org/1999/xlink" x="0px" y="0px"
	 width="16px" height="16px" viewBox="0 0 16 16" enable-background="new 0 0 16 16" xml:space="preserve">
<path d="M13.083,8c0.935-2.145,0.358-3.509-0.11-4.166c-0.713-0.997-2.01-1.544-3.148-1.325C7.844,2.887,7,4.229,7,7v2.314
	L5.842,8.156c-0.195-0.195-0.512-0.195-0.707,0c-0.195,0.195-0.195,0.512,0,0.707l2.012,2.011c0.101,0.101,0.234,0.147,0.366,0.144
	c0.132,0.004,0.265-0.043,0.366-0.144L9.9,8.854c0.195-0.195,0.195-0.513,0-0.708c-0.194-0.195-0.512-0.195-0.707,0L8,9.339V7
	c0-2.884,0.993-3.314,2.01-3.509c0.653-0.12,1.598,0.154,2.147,0.924c0.672,0.939,0.543,2.332-0.363,3.92
	c-0.096,0.169-0.086,0.378,0.026,0.536c0.111,0.158,0.309,0.238,0.496,0.204c0.121-0.021,0.481-0.076,0.709-0.076
	C14.115,8.999,15,9.896,15,11s-0.896,2-2,2l-9.927,0.006C1.911,12.834,1,11.732,1,10.5c0-1.229,0.922-2.285,2.146-2.46l0.43-0.062
	c0.246-0.035,0.429-0.246,0.429-0.495L3.997,6.951C4,5.16,5.104,3.688,6.625,3.451C6.897,3.408,7.084,3.153,7.042,2.88
	C6.999,2.607,6.75,2.422,6.47,2.463C4.46,2.776,3,4.663,2.997,6.949L3.005,7.05C1.292,7.295,0,8.777,0,10.5
	c0,1.746,1.258,3.248,3,3.5h10c1.654,0,3-1.346,3-3C16,9.364,14.695,8.03,13.083,8z"/>
</svg>
