<?xml version="1.0" encoding="utf-8"?>
<!-- Generator: Adobe Illustrator 16.0.4, SVG Export Plug-In . SVG Version: 6.00 Build 0)  -->
<!DOCTYPE svg PUBLIC "-//W3C//DTD SVG 1.1//EN" "http://www.w3.org/Graphics/SVG/1.1/DTD/svg11.dtd">
<svg version="1.1" id="Capa_1" xmlns="http://www.w3.org/2000/svg" xmlns:xlink="http://www.w3.org/1999/xlink" x="0px" y="0px"
	 width="16px" height="16px" viewBox="0 0 16 16" enable-background="new 0 0 16 16" xml:space="preserve">
<path d="M8.5,1C4.358,1,1,4.358,1,8.5C1,12.643,4.358,16,8.5,16c4.143,0,7.5-3.357,7.5-7.5C16,4.358,12.643,1,8.5,1z M11.854,9.854
	l-3,3l-0.162,0.108c-0.121,0.052-0.259,0.052-0.381,0l-0.158-0.104l-0.004-0.004l-3-3c-0.195-0.194-0.195-0.512,0-0.707
	c0.195-0.194,0.512-0.194,0.707,0L8,11.293V3.5C8,3.224,8.224,3,8.5,3C8.775,3,9,3.224,9,3.5v7.793l2.146-2.146
	c0.194-0.194,0.512-0.194,0.707,0C12.049,9.342,12.049,9.658,11.854,9.854z"/>
</svg>
