<?xml version="1.0" encoding="utf-8"?>
<!-- Generator: Adobe Illustrator 16.0.4, SVG Export Plug-In . SVG Version: 6.00 Build 0)  -->
<!DOCTYPE svg PUBLIC "-//W3C//DTD SVG 1.1//EN" "http://www.w3.org/Graphics/SVG/1.1/DTD/svg11.dtd">
<svg version="1.1" id="Capa_1" xmlns="http://www.w3.org/2000/svg" xmlns:xlink="http://www.w3.org/1999/xlink" x="0px" y="0px"
	 width="16px" height="16px" viewBox="0 0 16 16" enable-background="new 0 0 16 16" xml:space="preserve">
<path d="M14,2c-0.281-0.625-0.791-1-1.344-1H3.25C2.698,1,2.25,1.375,2,2L0,8.984V14.5C0,14.775,0.224,15,0.5,15h15
	c0.275,0,0.5-0.225,0.5-0.5V9.046L14,2z M2.945,2.333C2.991,2.23,3.108,2,3.25,2h9.406c0.137,0,0.295,0.141,0.406,0.356L14.947,9
	H10.5C10.225,9,10,9.225,10,9.5V11H6V9.5C6,9.225,5.776,9,5.5,9H1.036L2.945,2.333z M15,14H1v-4h4v1.5C5,11.775,5.224,12,5.5,12h5
	c0.275,0,0.5-0.225,0.5-0.5V10h4V14z"/>
</svg>
