<?xml version="1.0" encoding="utf-8"?>
<!-- Generator: Adobe Illustrator 16.0.4, SVG Export Plug-In . SVG Version: 6.00 Build 0)  -->
<!DOCTYPE svg PUBLIC "-//W3C//DTD SVG 1.1//EN" "http://www.w3.org/Graphics/SVG/1.1/DTD/svg11.dtd">
<svg version="1.1" id="Capa_1" xmlns="http://www.w3.org/2000/svg" xmlns:xlink="http://www.w3.org/1999/xlink" x="0px" y="0px"
	 width="16px" height="16px" viewBox="0 0 16 16" enable-background="new 0 0 16 16" xml:space="preserve">
<path d="M15,10V8c0-4.596-3.521-7-7-7C4.606,1,1,3.453,1,8v2c-0.552,0-1,0.448-1,1v2c0,0.552,0.448,1,1,1c0,0.552,0.448,1,1,1
	s1-0.448,1-1v-4c0-0.552-0.448-1-1-1V8c0-3.939,3.019-6,6-6c2.891,0,6,1.877,6,6v1c-0.552,0-1,0.448-1,1v4c0,0.552,0.448,1,1,1
	s1-0.448,1-1c0.552,0,1-0.448,1-1v-2C16,10.448,15.552,10,15,10z"/>
</svg>
