<?xml version="1.0" encoding="utf-8"?>
<!-- Generator: Adobe Illustrator 16.0.4, SVG Export Plug-In . SVG Version: 6.00 Build 0)  -->
<!DOCTYPE svg PUBLIC "-//W3C//DTD SVG 1.1//EN" "http://www.w3.org/Graphics/SVG/1.1/DTD/svg11.dtd">
<svg version="1.1" id="Capa_1" xmlns="http://www.w3.org/2000/svg" xmlns:xlink="http://www.w3.org/1999/xlink" x="0px" y="0px"
	 width="16px" height="16px" viewBox="0 0 16 16" enable-background="new 0 0 16 16" xml:space="preserve">
<g>
	<path d="M15.707,4.394l-4.1-4.101C11.419,0.105,11.165,0,10.898,0H5.101c-0.265,0-0.52,0.105-0.707,0.293l-4.1,4.101
		C0.105,4.581,0,4.835,0,5.101V10.9c0,0.265,0.105,0.52,0.293,0.707l4.1,4.101C4.581,15.895,4.835,16,5.101,16H10.9
		c0.265,0,0.52-0.105,0.707-0.293l4.1-4.102C15.895,11.419,16,11.165,16,10.898V5.101C16,4.836,15.895,4.581,15.707,4.394z
		 M15,10.898L10.898,15H5.101L1,10.898V5.101L5.101,1H10.9L15,5.101V10.898z"/>
	<path d="M8,3C7.448,3,7,3.448,7,4v5c0,0.552,0.448,1,1,1s1-0.448,1-1V4C9,3.448,8.552,3,8,3z"/>
	<circle cx="8" cy="12" r="1"/>
</g>
</svg>
