<?xml version="1.0" encoding="utf-8"?>
<!-- Generator: Adobe Illustrator 16.0.4, SVG Export Plug-In . SVG Version: 6.00 Build 0)  -->
<!DOCTYPE svg PUBLIC "-//W3C//DTD SVG 1.1//EN" "http://www.w3.org/Graphics/SVG/1.1/DTD/svg11.dtd">
<svg version="1.1" id="Capa_1" xmlns="http://www.w3.org/2000/svg" xmlns:xlink="http://www.w3.org/1999/xlink" x="0px" y="0px"
	 width="16px" height="16px" viewBox="0 0 16 16" enable-background="new 0 0 16 16" xml:space="preserve">
<path d="M15,0H1C0.448,0,0,0.448,0,1v14c0,0.552,0.448,1,1,1h14c0.552,0,1-0.448,1-1V1C16,0.448,15.552,0,15,0z M6.5,14h-4
	l-0.191-0.039l-0.158-0.105l-0.004-0.002l-0.004-0.006l-0.104-0.158L2,13.502V9.5C2,9.225,2.224,9,2.5,9S3,9.225,3,9.5v2.793
	l3.146-3.146c0.195-0.194,0.512-0.194,0.707,0c0.195,0.195,0.195,0.513,0,0.707L3.707,13H6.5C6.776,13,7,13.225,7,13.5
	S6.776,14,6.5,14z M14,6.5C14,6.776,13.775,7,13.5,7S13,6.776,13,6.5V3.707L9.854,6.854c-0.194,0.195-0.512,0.195-0.707,0
	c-0.194-0.195-0.194-0.512,0-0.707L12.293,3H9.5C9.225,3,9,2.776,9,2.5S9.225,2,9.5,2h4l0.191,0.039
	c0.121,0.051,0.22,0.148,0.27,0.27L14,2.5V6.5z"/>
</svg>
