<?xml version="1.0" encoding="utf-8"?>
<!-- Generator: Adobe Illustrator 16.0.4, SVG Export Plug-In . SVG Version: 6.00 Build 0)  -->
<!DOCTYPE svg PUBLIC "-//W3C//DTD SVG 1.1//EN" "http://www.w3.org/Graphics/SVG/1.1/DTD/svg11.dtd">
<svg version="1.1" id="Capa_1" xmlns="http://www.w3.org/2000/svg" xmlns:xlink="http://www.w3.org/1999/xlink" x="0px" y="0px"
	 width="16px" height="16px" viewBox="0 0 16 16" enable-background="new 0 0 16 16" xml:space="preserve">
<path d="M12.932,7.945c0.271-0.26,0.524-0.52,0.748-0.773c1.264-1.439,1.616-2.616,1.049-3.5c-0.24-0.373-0.744-0.817-1.785-0.817
	c-0.653,0-1.49,0.191-2.422,0.524C10.118,1.603,9.377,0,8,0C6.6,0,5.856,1.658,5.458,3.471C4.524,3.154,3.684,2.973,3.027,2.973
	c-1.1,0-1.617,0.468-1.856,0.86C0.395,5.105,1.606,6.72,3.068,8.055c-0.27,0.261-0.524,0.52-0.747,0.773
	c-1.264,1.439-1.617,2.617-1.049,3.5c0.24,0.373,0.744,0.816,1.784,0.816c0.654,0,1.491-0.19,2.423-0.523
	C5.882,14.396,6.623,16,8,16c1.4,0,2.145-1.658,2.542-3.471c0.935,0.316,1.774,0.498,2.431,0.498c1.101,0,1.616-0.469,1.856-0.86
	C15.605,10.895,14.395,9.279,12.932,7.945z M2.025,4.354c0.158-0.258,0.508-0.381,1.002-0.381c0.577,0,1.356,0.176,2.244,0.488
	C5.164,5.147,5.099,5.816,5.06,6.389c-0.447,0.33-0.86,0.664-1.251,1C2.398,6.108,1.664,4.945,2.025,4.354z M5.005,8.376
	L4.576,8.041L5.003,7.69L5,8L5.005,8.376z M3.056,12.145c-0.458,0-0.787-0.115-0.943-0.358c-0.375-0.583,0.333-1.765,1.715-3.079
	c0.429,0.35,0.853,0.671,1.235,0.941c0.041,0.59,0.109,1.277,0.222,1.98C4.399,11.958,3.624,12.145,3.056,12.145z M9.881,5.639
	l-0.318-0.2L9.016,5.12c0.258-0.13,0.51-0.251,0.756-0.362C9.814,5.041,9.85,5.336,9.881,5.639z M8,1
	c0.646,0,1.221,1.081,1.587,2.75C9.061,3.977,8.518,4.242,7.96,4.545C7.425,4.271,6.903,4.031,6.398,3.824C6.762,2.113,7.343,1,8,1z
	 M6.219,4.829l0.699,0.316L6.377,5.476l-0.26,0.178C6.146,5.37,6.18,5.095,6.219,4.829z M6.119,10.361l0.318,0.199l0.548,0.319
	c-0.258,0.13-0.51,0.251-0.757,0.362C6.186,10.96,6.15,10.665,6.119,10.361z M8,15c-0.647,0-1.221-1.081-1.587-2.75
	c0.526-0.227,1.07-0.492,1.627-0.795c0.534,0.273,1.056,0.513,1.562,0.721C9.238,13.887,8.657,15,8,15z M9.782,11.171
	c-0.228-0.097-0.462-0.204-0.699-0.315l0.541-0.332l0.259-0.178C9.854,10.63,9.82,10.906,9.782,11.171z M9.975,9.077
	C9.686,9.281,9.391,9.482,9.082,9.682C8.727,9.91,8.376,10.12,8.028,10.32c-0.353-0.192-0.709-0.394-1.069-0.612
	C6.637,9.511,6.328,9.311,6.028,9.107C6.011,8.746,6,8.378,6,8c0-0.367,0.011-0.725,0.026-1.077
	c0.288-0.204,0.583-0.406,0.892-0.605C7.273,6.09,7.624,5.88,7.972,5.68c0.353,0.192,0.709,0.393,1.069,0.612
	c0.322,0.197,0.631,0.398,0.932,0.6C9.988,7.254,10,7.622,10,8C10,8.367,9.988,8.725,9.975,9.077z M12.943,3.855
	c0.459,0,0.787,0.115,0.943,0.358c0.375,0.583-0.332,1.764-1.715,3.079c-0.43-0.35-0.854-0.67-1.236-0.941
	c-0.041-0.59-0.108-1.278-0.222-1.981C11.602,4.041,12.376,3.855,12.943,3.855z M10.995,7.624l0.429,0.335L10.996,8.31L11,8
	L10.995,7.624z M13.975,11.646c-0.158,0.258-0.508,0.381-1.002,0.381c-0.576,0-1.355-0.176-2.244-0.488
	c0.106-0.686,0.172-1.355,0.211-1.928c0.447-0.33,0.86-0.664,1.252-1C13.602,9.893,14.336,11.055,13.975,11.646z"/>
</svg>
