<?xml version="1.0" encoding="utf-8"?>
<!-- Generator: Adobe Illustrator 16.0.4, SVG Export Plug-In . SVG Version: 6.00 Build 0)  -->
<!DOCTYPE svg PUBLIC "-//W3C//DTD SVG 1.1//EN" "http://www.w3.org/Graphics/SVG/1.1/DTD/svg11.dtd">
<svg version="1.1" id="Capa_1" xmlns="http://www.w3.org/2000/svg" xmlns:xlink="http://www.w3.org/1999/xlink" x="0px" y="0px"
	 width="16px" height="16.614px" viewBox="0 0 16 16.614" enable-background="new 0 0 16 16.614" xml:space="preserve">
<g>
	<path d="M4.5,5C5.838,5,7,3.838,7,2.5S5.838,0,4.5,0S2,1.162,2,2.5S3.162,5,4.5,5z"/>
	<path d="M8.75,12c0-4-2.076-6-4.375-6S0,8,0,12C0,14.741,8.75,14.741,8.75,12z"/>
	<path d="M11.75,6.945c1.338,0,2.5-1.162,2.5-2.5c0-1.338-1.162-2.5-2.5-2.5s-2.5,1.162-2.5,2.5
		C9.25,5.783,10.412,6.945,11.75,6.945z"/>
	<path d="M11.625,7.945c-0.691,0-1.354,0.203-1.953,0.565C10.035,9.486,10.25,10.643,10.25,12c0,1.347-0.898,2.396-2.439,2.996
		C9.723,16.614,16,16.269,16,13.945C16,9.945,13.924,7.945,11.625,7.945z"/>
</g>
</svg>
