<?xml version="1.0" encoding="utf-8"?>
<!-- Generator: Adobe Illustrator 16.0.4, SVG Export Plug-In . SVG Version: 6.00 Build 0)  -->
<!DOCTYPE svg PUBLIC "-//W3C//DTD SVG 1.1//EN" "http://www.w3.org/Graphics/SVG/1.1/DTD/svg11.dtd">
<svg version="1.1" id="Capa_1" xmlns="http://www.w3.org/2000/svg" xmlns:xlink="http://www.w3.org/1999/xlink" x="0px" y="0px"
	 width="16.119px" height="16px" viewBox="0 0 16.119 16" enable-background="new 0 0 16.119 16" xml:space="preserve">
<path d="M15.942,6.473c-0.118-0.362-0.432-0.626-0.809-0.68l-4.31-0.626L8.897,1.261C8.728,0.919,8.381,0.703,8,0.703
	S7.272,0.919,7.103,1.261L5.176,5.166l-4.31,0.626c-0.377,0.055-0.69,0.319-0.807,0.681c-0.118,0.362-0.02,0.759,0.253,1.025
	l3.119,3.04l-0.736,4.293c-0.064,0.375,0.09,0.754,0.398,0.978C3.266,15.936,3.472,16,3.68,16c0.159,0,0.319-0.038,0.465-0.115
	L8,13.857l3.854,2.027C12.001,15.962,12.161,16,12.319,16c0.207,0,0.414-0.064,0.589-0.191c0.308-0.224,0.462-0.603,0.397-0.978
	l-0.736-4.293l3.119-3.04C15.962,7.232,16.06,6.835,15.942,6.473z M11.495,10.189L12.319,15L8,12.729V1.703l2.16,4.377l4.83,0.702
	L11.495,10.189z"/>
</svg>
