<?xml version="1.0" encoding="utf-8"?>
<!-- Generator: Adobe Illustrator 16.0.4, SVG Export Plug-In . SVG Version: 6.00 Build 0)  -->
<!DOCTYPE svg PUBLIC "-//W3C//DTD SVG 1.1//EN" "http://www.w3.org/Graphics/SVG/1.1/DTD/svg11.dtd">
<svg version="1.1" id="Capa_1" xmlns="http://www.w3.org/2000/svg" xmlns:xlink="http://www.w3.org/1999/xlink" x="0px" y="0px"
	 width="16px" height="16.027px" viewBox="0 0 16 16.027" enable-background="new 0 0 16 16.027" xml:space="preserve">
<g>
	<path d="M8.292,0.003C8.11-0.014,7.897,0.03,7.646,0.182c0,0-4.17,3.638-4.351,3.817H1C0.448,4,0,4.448,0,5v6.127
		c0,0.554,0.448,1,1,1h2.295c0.181,0.181,4.351,3.69,4.351,3.69c0.251,0.151,0.464,0.196,0.646,0.179
		c0.37-0.035,0.63-0.345,0.709-0.672C9.005,15.292,9.005,0.708,9,0.676C8.922,0.348,8.661,0.038,8.292,0.003z"/>
	<path d="M10.541,9.747c-0.247,0.125-0.346,0.425-0.223,0.672c0.089,0.174,0.265,0.275,0.447,0.275c0.075,0,0.151-0.018,0.225-0.053
		C12.001,10.131,12.629,9.12,12.629,8s-0.628-2.131-1.639-2.641c-0.247-0.125-0.547-0.025-0.672,0.222
		c-0.123,0.247-0.024,0.547,0.223,0.672C11.212,6.591,11.629,7.26,11.629,8S11.212,9.409,10.541,9.747z"/>
	<path d="M10.439,1.866C10.172,1.812,9.904,1.99,9.854,2.26C9.8,2.532,9.977,2.795,10.248,2.848C12.712,3.328,14.5,5.495,14.5,8
		s-1.788,4.672-4.252,5.152c-0.271,0.053-0.448,0.315-0.395,0.587c0.047,0.239,0.256,0.404,0.489,0.404l0.097-0.01
		C13.372,13.562,15.5,10.982,15.5,8C15.5,5.018,13.372,2.438,10.439,1.866z"/>
</g>
</svg>
