<?xml version="1.0" encoding="utf-8"?>
<!-- Generator: Adobe Illustrator 16.0.4, SVG Export Plug-In . SVG Version: 6.00 Build 0)  -->
<!DOCTYPE svg PUBLIC "-//W3C//DTD SVG 1.1//EN" "http://www.w3.org/Graphics/SVG/1.1/DTD/svg11.dtd">
<svg version="1.1" id="Capa_1" xmlns="http://www.w3.org/2000/svg" xmlns:xlink="http://www.w3.org/1999/xlink" x="0px" y="0px"
	 width="16.125px" height="16px" viewBox="0 0 16.125 16" enable-background="new 0 0 16.125 16" xml:space="preserve">
<path d="M15.812,8.109l-7.5-6c-0.183-0.146-0.442-0.146-0.625,0L5,4.259V3c0-0.552-0.448-1-1-1S3,2.448,3,3v2.859l-2.812,2.25
	c-0.215,0.173-0.25,0.487-0.078,0.704c0.172,0.215,0.486,0.25,0.702,0.078L2,7.941V15c0,0.552,0.448,1,1,1h3c0.552,0,1-0.448,1-1v-4
	h2v4c0,0.552,0.448,1,1,1h3c0.552,0,1-0.448,1-1V7.941l1.188,0.95C15.279,8.964,15.391,9,15.5,9c0.146,0,0.292-0.064,0.391-0.188
	C16.062,8.596,16.027,8.282,15.812,8.109z M13,15h-3v-5H6v5H3V7.141L8,3.14l5,4V15z"/>
</svg>
