<?xml version="1.0" encoding="utf-8"?>
<!-- Generator: Adobe Illustrator 16.0.4, SVG Export Plug-In . SVG Version: 6.00 Build 0)  -->
<!DOCTYPE svg PUBLIC "-//W3C//DTD SVG 1.1//EN" "http://www.w3.org/Graphics/SVG/1.1/DTD/svg11.dtd">
<svg version="1.1" id="Capa_1" xmlns="http://www.w3.org/2000/svg" xmlns:xlink="http://www.w3.org/1999/xlink" x="0px" y="0px"
	 width="16px" height="16px" viewBox="0 0 16 16" enable-background="new 0 0 16 16" xml:space="preserve">
<path d="M15,3h-4c-0.552,0-1,0.448-1,1c0,0-0.13,0.917-1,1H2C1.448,5,1,5.448,1,6v9c0,0.552,0.448,1,1,1h13c0.552,0,1-0.448,1-1V4
	C16,3.448,15.552,3,15,3z M11.5,11H9v2.5C9,13.775,8.775,14,8.5,14C8.224,14,8,13.775,8,13.5V11H5.5C5.224,11,5,10.775,5,10.5
	S5.224,10,5.5,10H8V7.5C8,7.224,8.224,7,8.5,7C8.775,7,9,7.224,9,7.5V10h2.5c0.275,0,0.5,0.225,0.5,0.5S11.775,11,11.5,11z"/>
</svg>
