<?xml version="1.0" encoding="utf-8"?>
<!-- Generator: Adobe Illustrator 16.0.4, SVG Export Plug-In . SVG Version: 6.00 Build 0)  -->
<!DOCTYPE svg PUBLIC "-//W3C//DTD SVG 1.1//EN" "http://www.w3.org/Graphics/SVG/1.1/DTD/svg11.dtd">
<svg version="1.1" id="Capa_1" xmlns="http://www.w3.org/2000/svg" xmlns:xlink="http://www.w3.org/1999/xlink" x="0px" y="0px"
	 width="16.125px" height="16.125px" viewBox="0 0 16.125 16.125" enable-background="new 0 0 16.125 16.125" xml:space="preserve">
<g>
	<polygon points="10.585,10.585 9.695,7.896 4.555,2.756 2.756,4.555 7.896,9.695 	"/>
	<path d="M2.172,0.373c-0.497-0.497-1.302-0.497-1.799,0s-0.497,1.302,0,1.799l1.324,1.324l1.799-1.799L2.172,0.373z"/>
	<path d="M15,3H7.911l1,1H15v11H4V8.912l-1-1V15c0,0.553,0.448,1,1,1h11c0.553,0,1-0.447,1-1V4C16,3.448,15.552,3,15,3z"/>
</g>
</svg>
