<?xml version="1.0" encoding="utf-8"?>
<!-- Generator: Adobe Illustrator 16.0.4, SVG Export Plug-In . SVG Version: 6.00 Build 0)  -->
<!DOCTYPE svg PUBLIC "-//W3C//DTD SVG 1.1//EN" "http://www.w3.org/Graphics/SVG/1.1/DTD/svg11.dtd">
<svg version="1.1" id="Capa_1" xmlns="http://www.w3.org/2000/svg" xmlns:xlink="http://www.w3.org/1999/xlink" x="0px" y="0px"
	 width="16.465px" height="16.465px" viewBox="0 0 16.465 16.465" enable-background="new 0 0 16.465 16.465" xml:space="preserve">
<path d="M13.805,3.197c-2.931-2.929-7.679-2.929-10.608,0c-2.929,2.929-2.929,7.678,0,10.608c2.929,2.928,7.678,2.928,10.608,0
	C16.732,10.875,16.732,6.126,13.805,3.197z M12.218,12.218c-0.194,0.195-0.512,0.195-0.706,0L6,6.707v3.036
	c0,0.276-0.224,0.5-0.5,0.5S5,10.02,5,9.743V5.5l0.039-0.191l0.104-0.157l0.004-0.006L5.15,5.144l0.158-0.105L5.5,5h4.243
	c0.276,0,0.5,0.224,0.5,0.5S10.02,6,9.743,6H6.707l5.51,5.51C12.413,11.706,12.413,12.021,12.218,12.218z"/>
</svg>
