<?xml version="1.0" encoding="utf-8"?>
<!-- Generator: Adobe Illustrator 16.0.4, SVG Export Plug-In . SVG Version: 6.00 Build 0)  -->
<!DOCTYPE svg PUBLIC "-//W3C//DTD SVG 1.1//EN" "http://www.w3.org/Graphics/SVG/1.1/DTD/svg11.dtd">
<svg version="1.1" id="Capa_1" xmlns="http://www.w3.org/2000/svg" xmlns:xlink="http://www.w3.org/1999/xlink" x="0px" y="0px"
	 width="16px" height="16.031px" viewBox="0 0 16 16.031" enable-background="new 0 0 16 16.031" xml:space="preserve">
<g>
	<path d="M8,0C4.692,0,2,2.692,2,6c0,1.934,0.94,3.76,2.516,4.885l0.074,0.049c0.366,0.215,0.402,0.907,0.394,1.034l-0.002,0.062V14
		c0,0.376,0.21,0.719,0.545,0.891l2.018,1.03c0.143,0.073,0.299,0.11,0.455,0.11c0.155,0,0.309-0.036,0.451-0.107l2.042-1.031
		c0.337-0.17,0.549-0.515,0.549-0.893v-1.958c0-0.987,0.603-1.313,0.608-1.315l0.222-0.143C13.225,9.439,14,7.77,14,6
		C14,2.692,11.309,0,8,0z M8,15.031L5.983,14h4.059L8,15.031z M10.041,12.042V13H5.982v-0.969L5.983,12h4.062L10.041,12.042z
		 M11.227,9.82c0,0-0.67,0.314-1.002,1.18H5.822c-0.124-0.346-0.339-0.702-0.725-0.93C3.828,9.165,3,7.679,3,6c0-2.761,2.239-5,5-5
		c2.762,0,5,2.239,5,5C13,7.532,12.311,8.902,11.227,9.82z"/>
	<path d="M8.5,2C8.224,2,8,2.224,8,2.5S8.224,3,8.5,3C9.625,3,11,4.023,11,5.547c0,0.276,0.225,0.5,0.5,0.5s0.5-0.224,0.5-0.5
		C12,3.266,10.219,2,8.5,2z"/>
</g>
</svg>
