<?xml version="1.0" encoding="utf-8"?>
<!-- Generator: Adobe Illustrator 16.0.4, SVG Export Plug-In . SVG Version: 6.00 Build 0)  -->
<!DOCTYPE svg PUBLIC "-//W3C//DTD SVG 1.1//EN" "http://www.w3.org/Graphics/SVG/1.1/DTD/svg11.dtd">
<svg version="1.1" id="Capa_1" xmlns="http://www.w3.org/2000/svg" xmlns:xlink="http://www.w3.org/1999/xlink" x="0px" y="0px"
	 width="16.035px" height="16.79px" viewBox="0 0 16.035 16.79" enable-background="new 0 0 16.035 16.79" xml:space="preserve">
<g>
	<path d="M1.245,3.127c0-0.44,0.23-1.002,0.535-1.307c0.4-0.4,1.485-0.843,1.99-0.341l4.723,4.724
		c0.069-0.231,0.104-0.471,0.104-0.711c0-0.652-0.254-1.263-0.713-1.723L4.682,0.567C3.72-0.395,1.808-0.034,0.867,0.907
		C0.321,1.453-0.018,2.299-0.018,3.115c0,0.634,0.208,1.191,0.585,1.568L3.77,7.885c0.639,0.639,1.579,0.863,2.434,0.608L1.48,3.77
		C1.326,3.616,1.245,3.393,1.245,3.127z"/>
	<path d="M15.432,11.317L12.23,8.115c-0.64-0.639-1.58-0.863-2.435-0.608l4.724,4.724c0.154,0.154,0.235,0.376,0.235,0.643
		c0,0.44-0.229,1.002-0.534,1.308c-0.4,0.399-1.486,0.843-1.99,0.341L7.507,9.797c-0.069,0.23-0.104,0.471-0.104,0.711
		c0,0.652,0.253,1.263,0.712,1.723l3.201,3.202c0.963,0.962,2.875,0.601,3.815-0.341c0.546-0.545,0.886-1.391,0.886-2.207
		C16.018,12.25,15.809,11.694,15.432,11.317z"/>
	<path d="M4.582,4.581C4.454,4.708,4.384,4.878,4.384,5.058c0,0.18,0.07,0.349,0.197,0.476l5.884,5.884
		c0.264,0.263,0.689,0.263,0.953,0c0.128-0.127,0.197-0.297,0.197-0.477s-0.07-0.35-0.197-0.477L5.534,4.581
		C5.272,4.319,4.844,4.319,4.582,4.581z"/>
</g>
</svg>
