<?xml version="1.0" encoding="utf-8"?>
<!-- Generator: Adobe Illustrator 16.0.4, SVG Export Plug-In . SVG Version: 6.00 Build 0)  -->
<!DOCTYPE svg PUBLIC "-//W3C//DTD SVG 1.1//EN" "http://www.w3.org/Graphics/SVG/1.1/DTD/svg11.dtd">
<svg version="1.1" id="Capa_1" xmlns="http://www.w3.org/2000/svg" xmlns:xlink="http://www.w3.org/1999/xlink" x="0px" y="0px"
	 width="16px" height="16px" viewBox="0 0 16 16" enable-background="new 0 0 16 16" xml:space="preserve">
<g>
	<path d="M15.941,2.812C15.814,2.405,15.449,2.104,15,2.104h-1v1.552c0,0.827-0.673,1.5-1.5,1.5S11,4.483,11,3.656V2.104H4.995
		v1.552c0,0.827-0.673,1.5-1.5,1.5c-0.827,0-1.5-0.673-1.5-1.5V2.104H1c-0.449,0-0.815,0.301-0.941,0.708H0V15c0,0.552,0.448,1,1,1
		h14c0.552,0,1-0.448,1-1V2.812H15.941z M15,15H1V7h14V15z"/>
	<path d="M3.495,4.156c0.276,0,0.5-0.224,0.5-0.5V0.5c0-0.276-0.224-0.5-0.5-0.5c-0.276,0-0.5,0.224-0.5,0.5v3.156
		C2.995,3.932,3.219,4.156,3.495,4.156z"/>
	<path d="M12.5,4.156c0.275,0,0.5-0.224,0.5-0.5V0.5C13,0.224,12.775,0,12.5,0S12,0.224,12,0.5v3.156
		C12,3.932,12.225,4.156,12.5,4.156z"/>
</g>
</svg>
