<?xml version="1.0" encoding="utf-8"?>
<!-- Generator: Adobe Illustrator 16.0.4, SVG Export Plug-In . SVG Version: 6.00 Build 0)  -->
<!DOCTYPE svg PUBLIC "-//W3C//DTD SVG 1.1//EN" "http://www.w3.org/Graphics/SVG/1.1/DTD/svg11.dtd">
<svg version="1.1" id="Capa_1" xmlns="http://www.w3.org/2000/svg" xmlns:xlink="http://www.w3.org/1999/xlink" x="0px" y="0px"
	 width="16px" height="16px" viewBox="0 0 16 16" enable-background="new 0 0 16 16" xml:space="preserve">
<path d="M8.5,1C4.358,1,1,4.358,1,8.5C1,12.643,4.358,16,8.5,16c4.143,0,7.5-3.357,7.5-7.5C16,4.358,12.643,1,8.5,1z M11.861,9.826
	l-0.002-0.002C11.781,9.932,11.67,10,11.545,10h-6.11c-0.123,0-0.233-0.064-0.312-0.169L5.118,9.826c-0.17-0.217-0.17-0.569,0-0.786
	l3.055-3.857l0.011-0.02c0.17-0.217,0.447-0.217,0.617,0l3.062,3.877C12.033,9.257,12.033,9.609,11.861,9.826z"/>
</svg>
