<?xml version="1.0" encoding="utf-8"?>
<!-- Generator: Adobe Illustrator 16.0.4, SVG Export Plug-In . SVG Version: 6.00 Build 0)  -->
<!DOCTYPE svg PUBLIC "-//W3C//DTD SVG 1.1//EN" "http://www.w3.org/Graphics/SVG/1.1/DTD/svg11.dtd">
<svg version="1.1" id="Capa_1" xmlns="http://www.w3.org/2000/svg" xmlns:xlink="http://www.w3.org/1999/xlink" x="0px" y="0px"
	 width="16px" height="16px" viewBox="0 0 16 16" enable-background="new 0 0 16 16" xml:space="preserve">
<path d="M13.5,7H3.707l2.146-2.146c0.195-0.195,0.195-0.512,0-0.707s-0.512-0.195-0.707,0l-3,3L2.143,7.152L2.039,7.309L2,7.5v0.002
	l0.039,0.189l0.104,0.157l0.003,0.006l3,3c0.195,0.195,0.512,0.195,0.707,0c0.195-0.194,0.195-0.512,0-0.707L3.707,8H13.5
	C13.775,8,14,7.776,14,7.5S13.775,7,13.5,7z"/>
</svg>
