<?xml version="1.0" encoding="utf-8"?>
<!-- Generator: Adobe Illustrator 16.0.4, SVG Export Plug-In . SVG Version: 6.00 Build 0)  -->
<!DOCTYPE svg PUBLIC "-//W3C//DTD SVG 1.1//EN" "http://www.w3.org/Graphics/SVG/1.1/DTD/svg11.dtd">
<svg version="1.1" id="Capa_1" xmlns="http://www.w3.org/2000/svg" xmlns:xlink="http://www.w3.org/1999/xlink" x="0px" y="0px"
	 width="16px" height="16px" viewBox="0 0 16 16" enable-background="new 0 0 16 16" xml:space="preserve">
<g>
	<path d="M15,5h-4V4c0-0.552-0.448-1-1-1H6C5.448,3,5,3.448,5,4v1H1C0.448,5,0,5.448,0,6v2h16V6C16,5.448,15.552,5,15,5z M10,5H6V4
		h4V5z"/>
	<rect x="6" y="9" width="4" height="1"/>
	<path d="M11,10c0,0.552-0.448,1-1,1H6c-0.552,0-1-0.448-1-1V9H0v6c0,0.552,0.448,1,1,1h14c0.552,0,1-0.448,1-1V9h-5V10z"/>
</g>
</svg>
