<?xml version="1.0" encoding="utf-8"?>
<!-- Generator: Adobe Illustrator 16.0.4, SVG Export Plug-In . SVG Version: 6.00 Build 0)  -->
<!DOCTYPE svg PUBLIC "-//W3C//DTD SVG 1.1//EN" "http://www.w3.org/Graphics/SVG/1.1/DTD/svg11.dtd">
<svg version="1.1" id="Capa_1" xmlns="http://www.w3.org/2000/svg" xmlns:xlink="http://www.w3.org/1999/xlink" x="0px" y="0px"
	 width="16px" height="16px" viewBox="0 0 16 16" enable-background="new 0 0 16 16" xml:space="preserve">
<g>
	<path d="M12,4H5C4.448,4,4,4.448,4,5v7c0,0.552,0.448,1,1,1h7c0.552,0,1-0.448,1-1V5C13,4.448,12.552,4,12,4z M12,12H5V5h7V12z"/>
	<path d="M6.5,9H8v1.5C8,10.775,8.224,11,8.5,11C8.775,11,9,10.775,9,10.5V9h1.5C10.775,9,11,8.775,11,8.5C11,8.224,10.775,8,10.5,8
		H9V6.5C9,6.224,8.775,6,8.5,6C8.224,6,8,6.224,8,6.5V8H6.5C6.224,8,6,8.224,6,8.5C6,8.775,6.224,9,6.5,9z"/>
</g>
</svg>
