<?xml version="1.0" encoding="utf-8"?>
<!-- Generator: Adobe Illustrator 16.0.4, SVG Export Plug-In . SVG Version: 6.00 Build 0)  -->
<!DOCTYPE svg PUBLIC "-//W3C//DTD SVG 1.1//EN" "http://www.w3.org/Graphics/SVG/1.1/DTD/svg11.dtd">
<svg version="1.1" id="Capa_1" xmlns="http://www.w3.org/2000/svg" xmlns:xlink="http://www.w3.org/1999/xlink" x="0px" y="0px"
	 width="16px" height="16px" viewBox="0 0 16 16" enable-background="new 0 0 16 16" xml:space="preserve">
<path d="M15,2h-5C9.448,2,9,2.448,9,3c0,0-0.13,0.917-1,1H1C0.448,4,0,4.432,0,4.984V14c0,0.552,0.448,1,1,1h14c0.552,0,1-0.448,1-1
	V3C16,2.448,15.552,2,15,2z M8.003,14.994l-3.122-4h2.122v-4c0-0.552,0.448-1,1-1s1,0.448,1,1v4h2.122L8.003,14.994z"/>
</svg>
