<?xml version="1.0" encoding="utf-8"?>
<!-- Generator: Adobe Illustrator 16.0.4, SVG Export Plug-In . SVG Version: 6.00 Build 0)  -->
<!DOCTYPE svg PUBLIC "-//W3C//DTD SVG 1.1//EN" "http://www.w3.org/Graphics/SVG/1.1/DTD/svg11.dtd">
<svg version="1.1" id="Capa_1" xmlns="http://www.w3.org/2000/svg" xmlns:xlink="http://www.w3.org/1999/xlink" x="0px" y="0px"
	 width="16px" height="16px" viewBox="0 0 16 16" enable-background="new 0 0 16 16" xml:space="preserve">
<path d="M12,0H5C4.448,0,4,0.448,4,1v14c0,0.552,0.448,1,1,1h7c0.552,0,1-0.448,1-1V1C13,0.448,12.552,0,12,0z M9.5,1h1
	C10.775,1,11,1.224,11,1.5S10.775,2,10.5,2h-1C9.225,2,9,1.776,9,1.5S9.225,1,9.5,1z M7.5,1C7.776,1,8,1.224,8,1.5S7.776,2,7.5,2
	S7,1.776,7,1.5S7.224,1,7.5,1z M8.562,15C8.251,15,8,14.748,8,14.438s0.252-0.562,0.562-0.562c0.31,0,0.562,0.252,0.562,0.562
	C9.124,14.748,8.873,15,8.562,15z M12,13H5V3h7V13z"/>
</svg>
