<?xml version="1.0" encoding="utf-8"?>
<!-- Generator: Adobe Illustrator 16.0.4, SVG Export Plug-In . SVG Version: 6.00 Build 0)  -->
<!DOCTYPE svg PUBLIC "-//W3C//DTD SVG 1.1//EN" "http://www.w3.org/Graphics/SVG/1.1/DTD/svg11.dtd">
<svg version="1.1" id="Capa_1" xmlns="http://www.w3.org/2000/svg" xmlns:xlink="http://www.w3.org/1999/xlink" x="0px" y="0px"
	 width="16px" height="16px" viewBox="0 0 16 16" enable-background="new 0 0 16 16" xml:space="preserve">
<path d="M12.654,8.886C12.245,8.421,11.529,8.164,11,8.03V2.85c0.523-0.177,0.967-0.399,1.318-0.658
	c0.3-0.221,0.451-0.592,0.394-0.96c-0.058-0.368-0.315-0.674-0.67-0.793C11.555,0.275,10.443,0,8.5,0
	C6.445,0,5.31,0.317,4.917,0.453c-0.349,0.121-0.603,0.425-0.66,0.79C4.2,1.607,4.349,1.974,4.644,2.197
	C5,2.464,5.455,2.69,5.999,2.868H6V8.03C5.472,8.163,4.755,8.42,4.345,8.886C4.132,9.128,4.049,9.458,4.121,9.771
	c0.072,0.314,0.292,0.574,0.589,0.699c0.71,0.297,1.917,0.484,3.291,0.522L8,11v3c0,0.552,0.224,2,0.5,2C8.775,16,9,14.552,9,14v-3
	l-0.001-0.008c1.374-0.037,2.581-0.227,3.291-0.523c0.297-0.123,0.517-0.384,0.589-0.697C12.951,9.457,12.868,9.127,12.654,8.886z
	 M8.5,10c-1.816,0-2.941-0.26-3.404-0.453c0.18-0.204,0.598-0.408,1.15-0.548L7,8.809V2.143L6.311,1.918
	C5.789,1.747,5.45,1.552,5.245,1.397C5.777,1.213,6.854,1,8.5,1c1.613,0,2.684,0.205,3.225,0.387
	c-0.211,0.156-0.548,0.347-1.045,0.516L10,2.133v6.676l0.754,0.19c0.553,0.14,0.971,0.344,1.15,0.548C11.441,9.74,10.316,10,8.5,10z
	"/>
</svg>
