<?xml version="1.0" encoding="utf-8"?>
<!-- Generator: Adobe Illustrator 16.0.4, SVG Export Plug-In . SVG Version: 6.00 Build 0)  -->
<!DOCTYPE svg PUBLIC "-//W3C//DTD SVG 1.1//EN" "http://www.w3.org/Graphics/SVG/1.1/DTD/svg11.dtd">
<svg version="1.1" id="Capa_1" xmlns="http://www.w3.org/2000/svg" xmlns:xlink="http://www.w3.org/1999/xlink" x="0px" y="0px"
	 width="16px" height="16px" viewBox="0 0 16 16" enable-background="new 0 0 16 16" xml:space="preserve">
<g>
	<path d="M14.961,1.309c-0.051-0.122-0.148-0.22-0.27-0.27L14.5,1h-4C10.225,1,10,1.224,10,1.5S10.225,2,10.5,2h2.793L9.146,6.146
		c-0.195,0.195-0.195,0.512,0,0.707c0.194,0.195,0.512,0.195,0.707,0L14,2.707V5.5C14,5.776,14.225,6,14.5,6S15,5.776,15,5.5v-4
		L14.961,1.309z"/>
	<path d="M6.146,9.146L2,13.293V10.5C2,10.225,1.776,10,1.5,10S1,10.225,1,10.5v4.002l0.038,0.189l0.104,0.156l0.004,0.006
		l0.004,0.004l0.158,0.104L1.5,15h4C5.776,15,6,14.775,6,14.5S5.776,14,5.5,14H2.707l4.146-4.146c0.195-0.194,0.195-0.512,0-0.707
		C6.658,8.952,6.341,8.952,6.146,9.146z"/>
</g>
</svg>
