<?xml version="1.0" encoding="utf-8"?>
<!-- Generator: Adobe Illustrator 16.0.4, SVG Export Plug-In . SVG Version: 6.00 Build 0)  -->
<!DOCTYPE svg PUBLIC "-//W3C//DTD SVG 1.1//EN" "http://www.w3.org/Graphics/SVG/1.1/DTD/svg11.dtd">
<svg version="1.1" id="Capa_1" xmlns="http://www.w3.org/2000/svg" xmlns:xlink="http://www.w3.org/1999/xlink" x="0px" y="0px"
	 width="16px" height="16px" viewBox="0 0 16 16" enable-background="new 0 0 16 16" xml:space="preserve">
<path d="M14,6h-0.923V5.077C13.077,2.273,10.805,0,8,0C5.196,0,2.923,2.273,2.923,5.077V6H2C1.448,6,1,6.448,1,7v8
	c0,0.552,0.448,1,1,1h12c0.552,0,1-0.448,1-1V7C15,6.448,14.552,6,14,6z M8,13c-1.105,0-2-0.895-2-2s0.895-2,2-2
	c1.105,0,2,0.895,2,2S9.105,13,8,13z M11.077,6H4.923V5.077C4.923,3.38,6.303,2,8,2c1.697,0,3.077,1.38,3.077,3.077V6z"/>
</svg>
