<?xml version="1.0" encoding="utf-8"?>
<!-- Generator: Adobe Illustrator 16.0.4, SVG Export Plug-In . SVG Version: 6.00 Build 0)  -->
<!DOCTYPE svg PUBLIC "-//W3C//DTD SVG 1.1//EN" "http://www.w3.org/Graphics/SVG/1.1/DTD/svg11.dtd">
<svg version="1.1" id="Capa_1" xmlns="http://www.w3.org/2000/svg" xmlns:xlink="http://www.w3.org/1999/xlink" x="0px" y="0px"
	 width="16px" height="16px" viewBox="0 0 16 16" enable-background="new 0 0 16 16" xml:space="preserve">
<path d="M13,6H3.923V5.077C3.923,3.38,5.303,2,7,2c1.118,0,2.091,0.604,2.629,1.499l0.02-0.015c0.182,0.258,0.467,0.438,0.806,0.438
	c0.552,0,1-0.448,1-1c0-0.135-0.028-0.264-0.077-0.382l-0.011-0.022c-0.044-0.1-0.107-0.188-0.181-0.267C10.275,0.9,8.752,0,7,0
	C4.196,0,1.923,2.273,1.923,5.077V6H1C0.448,6,0,6.448,0,7v8c0,0.552,0.448,1,1,1h12c0.552,0,1-0.448,1-1V7C14,6.448,13.552,6,13,6z
	 M7,13c-1.105,0-2-0.895-2-2s0.895-2,2-2s2,0.895,2,2S8.105,13,7,13z"/>
</svg>
