<?xml version="1.0" encoding="utf-8"?>
<!-- Generator: Adobe Illustrator 16.0.4, SVG Export Plug-In . SVG Version: 6.00 Build 0)  -->
<!DOCTYPE svg PUBLIC "-//W3C//DTD SVG 1.1//EN" "http://www.w3.org/Graphics/SVG/1.1/DTD/svg11.dtd">
<svg version="1.1" id="Capa_1" xmlns="http://www.w3.org/2000/svg" xmlns:xlink="http://www.w3.org/1999/xlink" x="0px" y="0px"
	 width="16.092px" height="16px" viewBox="0 0 16.092 16" enable-background="new 0 0 16.092 16" xml:space="preserve">
<path d="M15.865,4.979c-0.089-1.065-0.724-2.408-2.029-2.456c-3.644-0.245-7.962-0.312-11.672,0
	C1.012,2.652,0.223,4.054,0.137,5.119c-0.182,2.237-0.182,3.51,0,5.747c0.087,1.065,0.856,2.475,2.028,2.623
	c3.754,0.245,8.051,0.28,11.672,0c1.135-0.197,1.941-1.558,2.028-2.623C16.047,8.629,16.047,7.217,15.865,4.979z M6,10.83V5.095
	l5,2.868L6,10.83z"/>
</svg>
