<?xml version="1.0" encoding="utf-8"?>
<!-- Generator: Adobe Illustrator 16.0.4, SVG Export Plug-In . SVG Version: 6.00 Build 0)  -->
<!DOCTYPE svg PUBLIC "-//W3C//DTD SVG 1.1//EN" "http://www.w3.org/Graphics/SVG/1.1/DTD/svg11.dtd">
<svg version="1.1" id="Capa_1" xmlns="http://www.w3.org/2000/svg" xmlns:xlink="http://www.w3.org/1999/xlink" x="0px" y="0px"
	 width="16px" height="16px" viewBox="0 0 16 16" enable-background="new 0 0 16 16" xml:space="preserve">
<g>
	<path d="M10.287,0.004L10.213,0c-0.165,0-0.354,0.051-0.57,0.182c0,0-4.17,3.638-4.352,3.818H3C2.448,4,2,4.448,2,5v6.127
		c0,0.553,0.448,1,1,1h2.291c0.181,0.18,4.352,3.689,4.352,3.689C9.859,15.949,10.048,16,10.213,16l0.074-0.003
		c0.37-0.035,0.634-0.345,0.713-0.672V0.676C10.922,0.348,10.657,0.038,10.287,0.004z M10,14.812
		c-1.56-1.314-3.82-3.224-4.004-3.394c-0.187-0.187-0.441-0.291-0.706-0.291H3V5h2.291c0.256,0,0.512-0.107,0.697-0.283
		C6.17,4.544,8.43,2.567,10,1.197V14.812z"/>
	<path d="M12.99,5.359c-0.247-0.125-0.547-0.025-0.672,0.222c-0.123,0.247-0.024,0.547,0.223,0.672
		C13.212,6.591,13.629,7.26,13.629,8s-0.417,1.409-1.088,1.747c-0.247,0.125-0.346,0.425-0.223,0.672
		c0.089,0.174,0.265,0.274,0.447,0.274c0.075,0,0.151-0.017,0.225-0.053c1.011-0.51,1.639-1.521,1.639-2.641
		S14.001,5.869,12.99,5.359z"/>
</g>
</svg>
