<?xml version="1.0" encoding="utf-8"?>
<!-- Generator: Adobe Illustrator 16.0.4, SVG Export Plug-In . SVG Version: 6.00 Build 0)  -->
<!DOCTYPE svg PUBLIC "-//W3C//DTD SVG 1.1//EN" "http://www.w3.org/Graphics/SVG/1.1/DTD/svg11.dtd">
<svg version="1.1" id="Capa_1" xmlns="http://www.w3.org/2000/svg" xmlns:xlink="http://www.w3.org/1999/xlink" x="0px" y="0px"
	 width="16px" height="16px" viewBox="0 0 16 16" enable-background="new 0 0 16 16" xml:space="preserve">
<path d="M8,0C4.904,0,2.394,2.51,2.394,5.606c0,0.237,0.019,0.468,0.048,0.697c0.479,4.378,5.194,9.425,5.194,9.425
	c0.084,0.094,0.165,0.153,0.243,0.195l0.004,0.002l0.157,0.049l0.157-0.049l0.004-0.002c0.078-0.042,0.159-0.102,0.243-0.195
	c0,0,4.648-5.055,5.115-9.435c0.028-0.226,0.047-0.455,0.047-0.688C13.605,2.51,11.096,0,8,0z M8,9.212
	c-1.988,0-3.606-1.618-3.606-3.606S6.012,2,8,2c1.988,0,3.605,1.618,3.605,3.606S9.988,9.212,8,9.212z"/>
</svg>
