<?xml version="1.0" encoding="utf-8"?>
<!-- Generator: Adobe Illustrator 16.0.4, SVG Export Plug-In . SVG Version: 6.00 Build 0)  -->
<!DOCTYPE svg PUBLIC "-//W3C//DTD SVG 1.1//EN" "http://www.w3.org/Graphics/SVG/1.1/DTD/svg11.dtd">
<svg version="1.1" id="Capa_1" xmlns="http://www.w3.org/2000/svg" xmlns:xlink="http://www.w3.org/1999/xlink" x="0px" y="0px"
	 width="16px" height="16px" viewBox="0 0 16 16" enable-background="new 0 0 16 16" xml:space="preserve">
<path d="M15.217,2.024l-4.5-2L10.5,0l-0.195,0.019L5.491,1.978L1.218,0.024L1,0C0.775,0,0.554,0.076,0.375,0.22
	C0.138,0.409,0,0.696,0,1v12c0,0.468,0.325,0.874,0.782,0.977l4.479,2L5.479,16l0.195-0.02l4.814-1.959l4.294,1.955L15,16
	c0.225,0,0.447-0.076,0.626-0.221C15.861,15.59,16,15.303,16,15V3C16,2.531,15.674,2.125,15.217,2.024z M5,14.786L1,13V1l4,1.786
	V14.786z M10,13.2l-4,1.593v-12L10,1.2V13.2z M15,15l-4-1.777v-12L15,3V15z"/>
</svg>
