<?xml version="1.0" encoding="utf-8"?>
<!-- Generator: Adobe Illustrator 16.0.4, SVG Export Plug-In . SVG Version: 6.00 Build 0)  -->
<!DOCTYPE svg PUBLIC "-//W3C//DTD SVG 1.1//EN" "http://www.w3.org/Graphics/SVG/1.1/DTD/svg11.dtd">
<svg version="1.1" id="Capa_1" xmlns="http://www.w3.org/2000/svg" xmlns:xlink="http://www.w3.org/1999/xlink" x="0px" y="0px"
	 width="16px" height="16px" viewBox="0 0 16 16" enable-background="new 0 0 16 16" xml:space="preserve">
<g>
	<path d="M12.5,6C12.225,6,12,6.224,12,6.5V8c0,2.626-2.014,4-4,4c-1.927,0-4-1.252-4-4V6.5C4,6.224,3.776,6,3.5,6S3,6.224,3,6.5V8
		c0,2.84,1.883,4.506,4,4.904V15H5.5C5.224,15,5,15.225,5,15.5S5.224,16,5.5,16h5c0.275,0,0.5-0.225,0.5-0.5S10.775,15,10.5,15H9
		v-2.102c2.083-0.412,4-2.098,4-4.898V6.5C13,6.224,12.775,6,12.5,6z"/>
	<path d="M8,11c1.654,0,3-1.346,3-3V3c0-1.654-1.346-3-3-3C6.346,0,5,1.346,5,3v5C5,9.654,6.346,11,8,11z M6,3c0-1.105,0.895-2,2-2
		c1.105,0,2,0.895,2,2v5c0,1.105-0.895,2-2,2c-1.105,0-2-0.895-2-2V3z"/>
</g>
</svg>
