<?xml version="1.0" encoding="utf-8"?>
<!-- Generator: Adobe Illustrator 16.0.4, SVG Export Plug-In . SVG Version: 6.00 Build 0)  -->
<!DOCTYPE svg PUBLIC "-//W3C//DTD SVG 1.1//EN" "http://www.w3.org/Graphics/SVG/1.1/DTD/svg11.dtd">
<svg version="1.1" id="Capa_1" xmlns="http://www.w3.org/2000/svg" xmlns:xlink="http://www.w3.org/1999/xlink" x="0px" y="0px"
	 width="16px" height="16px" viewBox="0 0 16 16" enable-background="new 0 0 16 16" xml:space="preserve">
<g>
	<path d="M8,0C3.582,0,0,3.582,0,8s3.582,8,8,8s8-3.582,8-8C16,3.581,12.418,0,8,0z M8.552,9.27l-1.265-2.28
		c0.548-0.094,1.022-0.118,1.434-0.094l0.717,1.147l1.721-0.417c-0.676-0.662-1.911-1.284-4.169-0.882L6.842,6.771l1.396,2.584
		l-5.027,1.381c-0.109-0.168-0.197-0.348-0.262-0.537C2.624,9.258,2.891,8.292,3.567,7.525c0.409-0.459,0.977-0.841,1.668-1.108
		L4.812,5.531c0.376-0.12,0.783-0.21,1.215-0.268l0.444,0.823l0.145-0.023c1.337-0.202,2.643-0.214,3.848,0.069
		c1.229,0.242,2.356,0.779,2.877,1.382c0.104,0.121,0.185,0.247,0.238,0.376L8.552,9.27z"/>
	<path d="M4.648,9.202l1.72-0.417L5.599,7.177C4.617,7.703,4.493,8.494,4.648,9.202z"/>
</g>
</svg>
