<?xml version="1.0" encoding="utf-8"?>
<!-- Generator: Adobe Illustrator 16.0.4, SVG Export Plug-In . SVG Version: 6.00 Build 0)  -->
<!DOCTYPE svg PUBLIC "-//W3C//DTD SVG 1.1//EN" "http://www.w3.org/Graphics/SVG/1.1/DTD/svg11.dtd">
<svg version="1.1" id="Capa_1" xmlns="http://www.w3.org/2000/svg" xmlns:xlink="http://www.w3.org/1999/xlink" x="0px" y="0px"
	 width="16px" height="16px" viewBox="0 0 16 16" enable-background="new 0 0 16 16" xml:space="preserve">
<path d="M15.986,10.016L14,2c-0.281-0.625-0.791-1-1.344-1H3.25C2.698,1,2.25,1.375,2,2l-2,8v4.516c0,0.276,0.224,0.5,0.5,0.5h15
	c0.275,0,0.5-0.224,0.5-0.5v-4.453L15.986,10.016z M14.82,9.516c0,0.275-0.225,0.5-0.5,0.5h-0.002H10.5c-0.275,0-0.5,0.225-0.5,0.5
	V11.5c0,0.275-0.225,0.5-0.5,0.5l-0.029,0.016H6.517L6.5,12C6.224,12,6,11.775,6,11.5v-0.984c0-0.275-0.224-0.5-0.5-0.5H1.682H1.68
	c-0.276,0-0.508-0.225-0.508-0.5l-0.01-0.008l1.783-7.175C2.991,2.23,3.108,2,3.25,2h9.406c0.137,0,0.295,0.141,0.406,0.356
	l1.761,7.158L14.82,9.516z"/>
</svg>
