<?xml version="1.0" encoding="utf-8"?>
<!-- Generator: Adobe Illustrator 16.0.4, SVG Export Plug-In . SVG Version: 6.00 Build 0)  -->
<!DOCTYPE svg PUBLIC "-//W3C//DTD SVG 1.1//EN" "http://www.w3.org/Graphics/SVG/1.1/DTD/svg11.dtd">
<svg version="1.1" id="Capa_1" xmlns="http://www.w3.org/2000/svg" xmlns:xlink="http://www.w3.org/1999/xlink" x="0px" y="0px"
	 width="16px" height="16px" viewBox="0 0 16 16" enable-background="new 0 0 16 16" xml:space="preserve">
<path d="M13.5,7h-8C5.224,7,5,7.224,5,7.5S5.224,8,5.5,8h8C13.775,8,14,7.776,14,7.5S13.775,7,13.5,7z"/>
<path d="M13.5,3h-8C5.224,3,5,3.224,5,3.5S5.224,4,5.5,4h8C13.775,4,14,3.776,14,3.5S13.775,3,13.5,3z"/>
<path d="M13.5,11h-8C5.224,11,5,11.225,5,11.5S5.224,12,5.5,12h8c0.275,0,0.5-0.225,0.5-0.5S13.775,11,13.5,11z"/>
<polygon points="3.48,4.733 3.48,2.267 3.195,2.267 2.656,2.555 2.721,2.809 3.15,2.578 3.157,2.578 3.157,4.733 "/>
<path d="M2.687,8.274L2.426,8.527v0.205H4V8.456H2.892V8.449l0.197-0.182c0.52-0.501,0.85-0.869,0.85-1.324
	c0-0.353-0.224-0.717-0.755-0.717c-0.285,0-0.527,0.106-0.698,0.251l0.106,0.235c0.114-0.095,0.3-0.209,0.524-0.209
	c0.368,0,0.489,0.231,0.489,0.482C3.602,7.356,3.317,7.675,2.687,8.274z"/>
<path d="M3.097,12.464c-0.231,0-0.451-0.095-0.546-0.155L2.46,12.566c0.121,0.08,0.364,0.168,0.641,0.168
	c0.592,0,0.899-0.346,0.899-0.74c0-0.346-0.247-0.573-0.55-0.635v-0.006c0.304-0.11,0.455-0.326,0.455-0.582
	c0-0.299-0.22-0.588-0.706-0.588c-0.266,0-0.516,0.096-0.645,0.19l0.087,0.243c0.106-0.076,0.296-0.163,0.493-0.163
	c0.307,0,0.433,0.175,0.433,0.372c0,0.292-0.307,0.417-0.55,0.417H2.831v0.25h0.186c0.323,0,0.634,0.147,0.637,0.493
	C3.659,12.191,3.526,12.464,3.097,12.464z"/>
</svg>
