<?xml version="1.0" encoding="utf-8"?>
<!-- Generator: Adobe Illustrator 16.0.4, SVG Export Plug-In . SVG Version: 6.00 Build 0)  -->
<!DOCTYPE svg PUBLIC "-//W3C//DTD SVG 1.1//EN" "http://www.w3.org/Graphics/SVG/1.1/DTD/svg11.dtd">
<svg version="1.1" id="Capa_1" xmlns="http://www.w3.org/2000/svg" xmlns:xlink="http://www.w3.org/1999/xlink" x="0px" y="0px"
	 width="16px" height="16px" viewBox="0 0 16 16" enable-background="new 0 0 16 16" xml:space="preserve">
<path d="M13,8l-0.102,0.01C12.965,7.684,13,7.346,13,7c0-2.761-2.238-5-5-5C5.239,2,3,4.239,3,7l0.005,0.05
	C1.309,7.292,0,8.736,0,10.5c0,1.762,1.306,3.205,3,3.45V14h10c1.657,0,3-1.343,3-3S14.657,8,13,8z M13,13H3.314l-0.171-0.04
	C1.921,12.784,1,11.727,1,10.5c0-1.229,0.923-2.285,2.146-2.46c0.497-0.071,0.864-0.499,0.859-1L4,6.951C4.027,4.767,5.811,3,8,3
	c2.206,0,4,1.794,4,4c0,0.272-0.027,0.544-0.082,0.809c-0.062,0.3,0.018,0.612,0.216,0.845c0.19,0.226,0.47,0.354,0.765,0.354
	l0.035-0.001L13.041,9C14.125,9.021,15,9.911,15,11C15,12.104,14.104,13,13,13z"/>
</svg>
