<?xml version="1.0" encoding="utf-8"?>
<!-- Generator: Adobe Illustrator 16.0.4, SVG Export Plug-In . SVG Version: 6.00 Build 0)  -->
<!DOCTYPE svg PUBLIC "-//W3C//DTD SVG 1.1//EN" "http://www.w3.org/Graphics/SVG/1.1/DTD/svg11.dtd">
<svg version="1.1" id="Capa_1" xmlns="http://www.w3.org/2000/svg" xmlns:xlink="http://www.w3.org/1999/xlink" x="0px" y="0px"
	 width="16px" height="16px" viewBox="0 0 16 16" enable-background="new 0 0 16 16" xml:space="preserve">
<g>
	<path d="M15,2H1C0.448,2,0,2.448,0,3v10c0,0.552,0.448,1,1,1h14c0.552,0,1-0.448,1-1V3C16,2.448,15.552,2,15,2z M15,13H1V7h14V13z
		 M15,5.042H1V3h14V5.042z"/>
	<path d="M2.5,12h5C7.776,12,8,11.775,8,11.5S7.776,11,7.5,11h-5C2.224,11,2,11.225,2,11.5S2.224,12,2.5,12z"/>
	<circle cx="9.5" cy="11.5" r="0.5"/>
	<circle cx="11.5" cy="11.5" r="0.5"/>
	<circle cx="13.5" cy="11.5" r="0.5"/>
</g>
</svg>
