<?xml version="1.0" encoding="utf-8"?>
<!-- Generator: Adobe Illustrator 16.0.4, SVG Export Plug-In . SVG Version: 6.00 Build 0)  -->
<!DOCTYPE svg PUBLIC "-//W3C//DTD SVG 1.1//EN" "http://www.w3.org/Graphics/SVG/1.1/DTD/svg11.dtd">
<svg version="1.1" id="Capa_1" xmlns="http://www.w3.org/2000/svg" xmlns:xlink="http://www.w3.org/1999/xlink" x="0px" y="0px"
	 width="16px" height="16px" viewBox="0 0 16 16" enable-background="new 0 0 16 16" xml:space="preserve">
<g>
	<path d="M13,1h-2c0-0.552-0.448-1-1-1H7C6.448,0,6,0.448,6,1H4C3.448,1,3,1.448,3,2h11C14,1.448,13.552,1,13,1z"/>
	<path d="M3,15c0,0.552,0.448,1,1,1h9c0.552,0,1-0.448,1-1V3H3V15z M4,4h9v11H4V4z"/>
	<path d="M5.5,5C5.224,5,5,5.224,5,5.5v8C5,13.775,5.224,14,5.5,14S6,13.775,6,13.5v-8C6,5.224,5.776,5,5.5,5z"/>
	<path d="M8.5,5C8.224,5,8,5.224,8,5.5v8C8,13.775,8.224,14,8.5,14C8.775,14,9,13.775,9,13.5v-8C9,5.224,8.775,5,8.5,5z"/>
	<path d="M11.5,5C11.225,5,11,5.224,11,5.5v8c0,0.275,0.225,0.5,0.5,0.5s0.5-0.225,0.5-0.5v-8C12,5.224,11.775,5,11.5,5z"/>
</g>
</svg>
