<?xml version="1.0" encoding="utf-8"?>
<!-- Generator: Adobe Illustrator 16.0.4, SVG Export Plug-In . SVG Version: 6.00 Build 0)  -->
<!DOCTYPE svg PUBLIC "-//W3C//DTD SVG 1.1//EN" "http://www.w3.org/Graphics/SVG/1.1/DTD/svg11.dtd">
<svg version="1.1" id="Capa_1" xmlns="http://www.w3.org/2000/svg" xmlns:xlink="http://www.w3.org/1999/xlink" x="0px" y="0px"
	 width="16px" height="16px" viewBox="0 0 16 16" enable-background="new 0 0 16 16" xml:space="preserve">
<path d="M13.025,7.999L12.9,8C12.966,7.671,13,7.335,13,7c0-2.757-2.243-5-5-5C5.245,2,3,4.221,2.997,6.949L3.005,7.05
	C1.292,7.295,0,8.777,0,10.5c0,1.746,1.258,3.248,3,3.5h2.5C5.776,14,6,13.775,6,13.5S5.776,13,5.5,13l-2.427,0.005
	C1.911,12.834,1,11.732,1,10.5c0-1.229,0.922-2.285,2.146-2.46l0.43-0.062c0.246-0.035,0.429-0.246,0.429-0.495L3.997,6.951
	C4,4.772,5.795,3,8,3c2.206,0,4,1.794,4,4c0,0.271-0.027,0.544-0.082,0.809l-0.132,0.636C11.753,8.604,11.8,8.768,11.91,8.887
	c0.109,0.118,0.268,0.18,0.432,0.154c0.012-0.001,0.324-0.042,0.684-0.042C14.115,8.999,15,9.896,15,11s-0.896,2-2,2H9.5
	c-1.4,0-1.495-0.839-1.5-1V8.682l1.184,1.183c0.194,0.194,0.512,0.194,0.707,0c0.194-0.195,0.194-0.513,0-0.707L7.878,7.146
	C7.78,7.048,7.651,7,7.522,7L7.5,6.996c-0.144,0-0.271,0.062-0.362,0.159L5.124,9.167c-0.195,0.194-0.195,0.513,0,0.707
	s0.512,0.194,0.707,0L7,8.706V12c0,0.691,0.522,2,2.5,2H13c1.654,0,3-1.346,3-3S14.666,7.999,13.025,7.999z"/>
</svg>
