<?xml version="1.0" encoding="utf-8"?>
<!-- Generator: Adobe Illustrator 16.0.4, SVG Export Plug-In . SVG Version: 6.00 Build 0)  -->
<!DOCTYPE svg PUBLIC "-//W3C//DTD SVG 1.1//EN" "http://www.w3.org/Graphics/SVG/1.1/DTD/svg11.dtd">
<svg version="1.1" id="Capa_1" xmlns="http://www.w3.org/2000/svg" xmlns:xlink="http://www.w3.org/1999/xlink" x="0px" y="0px"
	 width="16px" height="16px" viewBox="0 0 16 16" enable-background="new 0 0 16 16" xml:space="preserve">
<g>
	<path d="M8,0C3.582,0,0,3.582,0,8s3.582,8,8,8s8-3.582,8-8C16,3.581,12.418,0,8,0z M10.169,12.73c-0.51,0-0.985-0.146-1.39-0.396
		c-0.26,0.047-0.527,0.074-0.802,0.074c-2.435,0-4.408-1.963-4.408-4.385c0-0.235,0.019-0.466,0.055-0.691
		C3.355,6.92,3.2,6.428,3.2,5.9c0-1.453,1.177-2.63,2.63-2.631c0.53,0,1.022,0.157,1.436,0.427c0.23-0.038,0.468-0.058,0.71-0.058
		c2.434,0,4.408,1.964,4.408,4.385c0,0.202-0.015,0.4-0.041,0.595C12.632,9.041,12.8,9.551,12.8,10.1
		C12.8,11.553,11.623,12.73,10.169,12.73z"/>
	<path d="M7.424,7.179c-1.274-0.31-0.577-1.4,0.455-1.384c1.002,0.016,1.512,1.074,1.965,1.019c0.455-0.055,0.842-0.736,0.127-1.346
		c-0.617-0.528-1.4-0.819-2.602-0.71C6.427,4.843,5.532,5.45,5.422,6.632C5.313,7.815,6.715,8.416,7.825,8.581
		c0.778,0.114,1.838,0.491,1.2,1.219c-0.584,0.669-1.692,0.255-1.983,0.073C6.751,9.689,6.423,9.035,5.877,9.07
		C5.33,9.107,5.061,9.825,5.732,10.455c0.601,0.562,1.256,0.874,2.657,0.8c1.402-0.073,2.658-1.31,2.166-2.476
		C10.062,7.615,8.698,7.488,7.424,7.179z"/>
</g>
</svg>
