<?xml version="1.0" encoding="utf-8"?>
<!-- Generator: Adobe Illustrator 16.0.4, SVG Export Plug-In . SVG Version: 6.00 Build 0)  -->
<!DOCTYPE svg PUBLIC "-//W3C//DTD SVG 1.1//EN" "http://www.w3.org/Graphics/SVG/1.1/DTD/svg11.dtd">
<svg version="1.1" id="Capa_1" xmlns="http://www.w3.org/2000/svg" xmlns:xlink="http://www.w3.org/1999/xlink" x="0px" y="0px"
	 width="16.061px" height="16px" viewBox="0 0 16.061 16" enable-background="new 0 0 16.061 16" xml:space="preserve">
<g>
	<path d="M8.287,0.003L8.213,0c-0.165,0-0.354,0.051-0.57,0.182c0,0-4.17,3.638-4.352,3.818H1C0.448,4,0,4.448,0,5v6.127
		c0,0.553,0.448,1,1,1h2.291c0.182,0.18,4.352,3.689,4.352,3.689C7.859,15.949,8.048,16,8.213,16l0.074-0.003
		c0.37-0.035,0.634-0.345,0.713-0.672V0.676C8.922,0.348,8.657,0.038,8.287,0.003z M8,14.812c-1.56-1.314-3.819-3.224-4.004-3.394
		c-0.187-0.187-0.44-0.291-0.706-0.291H1V11V5h2.291c0.256,0,0.513-0.107,0.697-0.283C4.17,4.544,6.43,2.567,8,1.197V14.812z"/>
	<path d="M14.095,8l1.726-1.726c0.239-0.238,0.239-0.625,0-0.863c-0.238-0.238-0.625-0.238-0.863,0l-1.726,1.726l-1.727-1.726
		c-0.237-0.238-0.625-0.238-0.862,0c-0.238,0.238-0.238,0.625,0,0.863L12.369,8l-1.726,1.727c-0.238,0.237-0.238,0.625,0,0.862
		c0.237,0.238,0.625,0.238,0.862,0l1.727-1.726l1.726,1.726c0.238,0.238,0.625,0.238,0.863,0c0.238-0.237,0.238-0.625,0-0.862
		L14.095,8z"/>
</g>
</svg>
