<?xml version="1.0" encoding="utf-8"?>
<!-- Generator: Adobe Illustrator 16.0.4, SVG Export Plug-In . SVG Version: 6.00 Build 0)  -->
<!DOCTYPE svg PUBLIC "-//W3C//DTD SVG 1.1//EN" "http://www.w3.org/Graphics/SVG/1.1/DTD/svg11.dtd">
<svg version="1.1" id="Capa_1" xmlns="http://www.w3.org/2000/svg" xmlns:xlink="http://www.w3.org/1999/xlink" x="0px" y="0px"
	 width="16px" height="16px" viewBox="0 0 16 16" enable-background="new 0 0 16 16" xml:space="preserve">
<path d="M8,0C3.582,0,0,3.582,0,8s3.582,8,8,8s8-3.582,8-8C16,3.581,12.418,0,8,0z M8.284,3.992C8.37,3.797,8.486,3.625,8.633,3.478
	c0.148-0.148,0.318-0.264,0.514-0.35S9.555,3,9.782,3c0.229,0,0.44,0.042,0.635,0.128c0.194,0.085,0.366,0.202,0.513,0.35
	c0.148,0.147,0.266,0.319,0.35,0.514c0.087,0.195,0.13,0.406,0.13,0.635s-0.043,0.44-0.13,0.635
	c-0.084,0.195-0.201,0.366-0.35,0.514c-0.147,0.147-0.318,0.264-0.513,0.35c-0.194,0.085-0.405,0.128-0.635,0.128
	c-0.228,0-0.44-0.043-0.636-0.128C8.952,6.04,8.781,5.924,8.633,5.776C8.486,5.628,8.37,5.457,8.284,5.262
	C8.198,5.067,8.155,4.855,8.155,4.627C8.155,4.398,8.198,4.187,8.284,3.992z M5.751,3.734c0.243-0.242,0.535-0.363,0.877-0.363
	c0.352,0,0.65,0.121,0.892,0.363C7.763,3.977,7.884,4.27,7.884,4.613c0,0.352-0.122,0.649-0.365,0.892
	C7.278,5.747,6.98,5.868,6.628,5.868c-0.341,0-0.634-0.121-0.877-0.364s-0.365-0.54-0.365-0.892C5.387,4.27,5.508,3.977,5.751,3.734
	z M3.568,3.963c0.185-0.186,0.411-0.279,0.677-0.279c0.267,0,0.49,0.093,0.671,0.279c0.18,0.185,0.27,0.406,0.27,0.663
	c0,0.267-0.091,0.492-0.27,0.678C4.735,5.49,4.512,5.583,4.245,5.583c-0.266,0-0.492-0.093-0.677-0.278
	C3.382,5.119,3.289,4.893,3.289,4.627C3.289,4.37,3.382,4.148,3.568,3.963z M12,13H7.605v-2H4.852V9H3.209V7.181
	c0-0.323-0.008-0.597,0.216-0.82c0.223-0.223,0.497-0.335,0.82-0.335c0.276,0,0.515,0.083,0.714,0.25
	c0.2,0.167,0.332,0.373,0.4,0.621c0.161-0.19,0.352-0.337,0.57-0.443C6.148,6.35,6.381,6.297,6.628,6.297
	c0.39,0,0.73,0.117,1.021,0.35c0.29,0.233,0.483,0.526,0.578,0.877c0.2-0.19,0.432-0.343,0.7-0.456
	c0.267-0.114,0.552-0.171,0.856-0.171s0.593,0.057,0.863,0.171c0.271,0.114,0.506,0.271,0.707,0.471
	c0.199,0.2,0.358,0.435,0.477,0.706C11.949,8.516,12,8.803,12,9.107V13z"/>
</svg>
