<?xml version="1.0" encoding="utf-8"?>
<!-- Generator: Adobe Illustrator 16.0.4, SVG Export Plug-In . SVG Version: 6.00 Build 0)  -->
<!DOCTYPE svg PUBLIC "-//W3C//DTD SVG 1.1//EN" "http://www.w3.org/Graphics/SVG/1.1/DTD/svg11.dtd">
<svg version="1.1" id="Capa_1" xmlns="http://www.w3.org/2000/svg" xmlns:xlink="http://www.w3.org/1999/xlink" x="0px" y="0px"
	 width="16px" height="16px" viewBox="0 0 16 16" enable-background="new 0 0 16 16" xml:space="preserve">
<g>
	<path d="M6.47,4.589c0.563,0,1.041-0.194,1.428-0.582C8.286,3.619,8.481,3.143,8.481,2.58c0-0.548-0.195-1.017-0.583-1.405
		C7.511,0.788,7.033,0.594,6.47,0.594c-0.546,0-1.015,0.194-1.403,0.581C4.679,1.564,4.484,2.032,4.484,2.58
		c0,0.563,0.195,1.039,0.583,1.427C5.456,4.395,5.924,4.589,6.47,4.589z"/>
	<path d="M9.68,4.441C9.915,4.677,10.189,4.863,10.501,5c0.312,0.136,0.651,0.205,1.017,0.205S12.221,5.136,12.533,5
		c0.312-0.138,0.585-0.323,0.822-0.559c0.235-0.236,0.422-0.51,0.56-0.822c0.137-0.312,0.206-0.65,0.206-1.017
		c0-0.365-0.068-0.703-0.206-1.016C13.779,1.274,13.591,1,13.355,0.764c-0.236-0.236-0.51-0.423-0.822-0.559
		C12.223,0.068,11.883,0,11.518,0s-0.705,0.068-1.017,0.205C10.189,0.341,9.915,0.528,9.68,0.764
		C9.443,1.001,9.258,1.275,9.12,1.587s-0.206,0.65-0.206,1.016c0,0.366,0.068,0.704,0.206,1.017C9.258,3.931,9.443,4.205,9.68,4.441
		z"/>
	<path d="M2.657,4.133c0.427,0,0.784-0.148,1.074-0.445C4.02,3.39,4.164,3.029,4.164,2.602c0-0.411-0.145-0.765-0.433-1.061
		c-0.29-0.297-0.647-0.446-1.074-0.446c-0.425,0-0.788,0.149-1.083,0.446c-0.298,0.296-0.446,0.65-0.446,1.061
		c0,0.427,0.149,0.788,0.446,1.085C1.87,3.984,2.232,4.133,2.657,4.133z"/>
	<path d="M14.794,8.391c-0.19-0.434-0.444-0.811-0.765-1.13c-0.318-0.32-0.696-0.571-1.129-0.754
		c-0.436-0.183-0.896-0.274-1.383-0.274c-0.488,0-0.944,0.091-1.369,0.274C9.721,6.69,9.35,6.934,9.029,7.238
		c-0.152-0.563-0.461-1.03-0.925-1.404c-0.465-0.373-1.009-0.56-1.634-0.56c-0.396,0-0.768,0.084-1.119,0.251
		C5.003,5.694,4.697,5.929,4.44,6.233C4.331,5.838,4.12,5.507,3.8,5.24C3.481,4.973,3.1,4.841,2.657,4.841
		c-0.517,0-0.955,0.179-1.312,0.536C0.987,5.734,1,6.173,1,6.69v3.201h2.629v2.621h4.405V16h7.032V9.771
		C15.066,9.285,14.984,8.824,14.794,8.391z"/>
</g>
</svg>
