<?xml version="1.0" encoding="utf-8"?>
<!-- Generator: Adobe Illustrator 16.0.4, SVG Export Plug-In . SVG Version: 6.00 Build 0)  -->
<!DOCTYPE svg PUBLIC "-//W3C//DTD SVG 1.1//EN" "http://www.w3.org/Graphics/SVG/1.1/DTD/svg11.dtd">
<svg version="1.1" id="Capa_1" xmlns="http://www.w3.org/2000/svg" xmlns:xlink="http://www.w3.org/1999/xlink" x="0px" y="0px"
	 width="16px" height="16px" viewBox="0 0 16 16" enable-background="new 0 0 16 16" xml:space="preserve">
<g>
	<path d="M15,3h-3.516C10.932,3,10.297,3.281,10,4c0,0-0.13,0.917-1,1H2C1.448,5,1,5.432,1,5.984V15c0,0.552,0.448,1,1,1h13
		c0.552,0,1-0.448,1-1V4C16,3.448,15.552,3,15,3z M15,5.984V15H2V6h7l0.096-0.005c0.938-0.089,1.518-0.746,1.785-1.421
		C11.141,3.922,11.594,4,11.594,4H15V5.984z"/>
	<path d="M11,10H9V8c0-0.276-0.225-0.5-0.5-0.5C8.224,7.5,8,7.724,8,8v2H6c-0.276,0-0.5,0.225-0.5,0.5S5.724,11,6,11h2v2
		c0,0.275,0.224,0.5,0.5,0.5C8.775,13.5,9,13.275,9,13v-2h2c0.275,0,0.5-0.225,0.5-0.5S11.275,10,11,10z"/>
</g>
</svg>
