<?xml version="1.0" encoding="utf-8"?>
<!-- Generator: Adobe Illustrator 16.0.4, SVG Export Plug-In . SVG Version: 6.00 Build 0)  -->
<!DOCTYPE svg PUBLIC "-//W3C//DTD SVG 1.1//EN" "http://www.w3.org/Graphics/SVG/1.1/DTD/svg11.dtd">
<svg version="1.1" id="Capa_1" xmlns="http://www.w3.org/2000/svg" xmlns:xlink="http://www.w3.org/1999/xlink" x="0px" y="0px"
	 width="16px" height="16.006px" viewBox="0 0 16 16.006" enable-background="new 0 0 16 16.006" xml:space="preserve">
<g>
	<path fill="#211915" d="M14.54,0H9.203C9.05,0.008,8.702,0.247,8.657,0.292L2.292,6.656c-0.39,0.39-0.39,1.022,0,1.412l0.794,0.794
		L2.292,9.656c-0.39,0.39-0.39,1.022,0,1.411l4.646,4.646c0.195,0.195,0.45,0.292,0.706,0.292c0.255,0,0.511-0.097,0.706-0.292
		l6.364-6.364C14.76,9.304,15,8.996,15,8.804V0.497C15.014,0.218,14.814,0,14.54,0z M14.012,8.635l-0.005,0.009l-6.362,6.364
		l-4.646-4.644l0.794-0.795l3.145,3.146c0.195,0.195,0.45,0.292,0.706,0.292c0.255,0,0.511-0.097,0.706-0.292l5.662-5.661V8.635z
		 M14.012,4v1.635l-0.005,0.008l-6.362,6.365L2.999,7.364L9.32,1.043L9.387,1h4.625V4z"/>
	<circle fill="#211915" cx="12.512" cy="2.496" r="0.5"/>
</g>
</svg>
