<?xml version="1.0" encoding="utf-8"?>
<!-- Generator: Adobe Illustrator 16.0.4, SVG Export Plug-In . SVG Version: 6.00 Build 0)  -->
<!DOCTYPE svg PUBLIC "-//W3C//DTD SVG 1.1//EN" "http://www.w3.org/Graphics/SVG/1.1/DTD/svg11.dtd">
<svg version="1.1" id="Capa_1" xmlns="http://www.w3.org/2000/svg" xmlns:xlink="http://www.w3.org/1999/xlink" x="0px" y="0px"
	 width="16px" height="16px" viewBox="0 0 16 16" enable-background="new 0 0 16 16" xml:space="preserve">
<g>
	<path d="M15,0H1C0.448,0,0,0.448,0,1v14c0,0.552,0.448,1,1,1h14c0.552,0,1-0.448,1-1V1C16,0.448,15.552,0,15,0z M15,15H1V1h14V15z"
		/>
	<polygon points="10.311,12.109 13,13 12.109,10.311 6.969,5.17 5.17,6.969 	"/>
	<path d="M4.111,5.91L5.91,4.111L4.586,2.787c-0.497-0.497-1.302-0.497-1.799,0s-0.497,1.302,0,1.799L4.111,5.91z"/>
</g>
</svg>
