<?xml version="1.0" encoding="utf-8"?>
<!-- Generator: Adobe Illustrator 16.0.4, SVG Export Plug-In . SVG Version: 6.00 Build 0)  -->
<!DOCTYPE svg PUBLIC "-//W3C//DTD SVG 1.1//EN" "http://www.w3.org/Graphics/SVG/1.1/DTD/svg11.dtd">
<svg version="1.1" id="Capa_1" xmlns="http://www.w3.org/2000/svg" xmlns:xlink="http://www.w3.org/1999/xlink" x="0px" y="0px"
	 width="16px" height="16px" viewBox="0 0 16 16" enable-background="new 0 0 16 16" xml:space="preserve">
<path d="M15,0H1C0.448,0,0,0.448,0,1v14c0,0.552,0.448,1,1,1h14c0.552,0,1-0.448,1-1V1C16,0.448,15.552,0,15,0z M2.787,4.586
	c-0.497-0.497-0.497-1.302,0-1.799s1.302-0.497,1.799,0L5.91,4.111L4.111,5.91L2.787,4.586z M10.311,12.109L5.17,6.969L6.969,5.17
	l5.141,5.141L13,13L10.311,12.109z"/>
</svg>
