<?xml version="1.0" encoding="utf-8"?>
<!-- Generator: Adobe Illustrator 16.0.4, SVG Export Plug-In . SVG Version: 6.00 Build 0)  -->
<!DOCTYPE svg PUBLIC "-//W3C//DTD SVG 1.1//EN" "http://www.w3.org/Graphics/SVG/1.1/DTD/svg11.dtd">
<svg version="1.1" id="Capa_1" xmlns="http://www.w3.org/2000/svg" xmlns:xlink="http://www.w3.org/1999/xlink" x="0px" y="0px"
	 width="16px" height="16px" viewBox="0 0 16 16" enable-background="new 0 0 16 16" xml:space="preserve">
<g>
	<path d="M4,14.93V7.84l-3.342,3.342C1.343,12.76,2.522,14.074,4,14.93z"/>
	<path d="M5,15.418C5.926,15.793,6.939,16,8,16c2.961,0,5.546-1.609,6.93-4H5V15.418z"/>
	<path d="M4.148,0.987C1.675,2.348,0,4.978,0,8c0,0.664,0.081,1.309,0.234,1.926L6.66,3.5L4.148,0.987z"/>
	<path d="M11,0.582C10.073,0.207,9.061,0,8,0C7.054,0,6.147,0.165,5.305,0.466L11,6.16V0.582z"/>
	<path d="M12,1.071V11h3.418C15.793,10.073,16,9.061,16,8C16,5.039,14.391,2.454,12,1.071z"/>
</g>
</svg>
