<?xml version="1.0" encoding="utf-8"?>
<!-- Generator: Adobe Illustrator 16.0.4, SVG Export Plug-In . SVG Version: 6.00 Build 0)  -->
<!DOCTYPE svg PUBLIC "-//W3C//DTD SVG 1.1//EN" "http://www.w3.org/Graphics/SVG/1.1/DTD/svg11.dtd">
<svg version="1.1" id="Capa_1" xmlns="http://www.w3.org/2000/svg" xmlns:xlink="http://www.w3.org/1999/xlink" x="0px" y="0px"
	 width="16px" height="16px" viewBox="0 0 16 16" enable-background="new 0 0 16 16" xml:space="preserve">
<path d="M13,0H3C1.343,0,0,1.343,0,3v10c0,1.657,1.343,3,3,3h10c1.657,0,3-1.343,3-3V3C16,1.343,14.657,0,13,0z M8,2
	c0.796,0,1.555,0.155,2.25,0.436V6.62L5.979,2.349C6.61,2.124,7.291,2,8,2z M2,8c0-2.267,1.256-4.239,3.111-5.26l1.884,1.885
	l-4.82,4.818C2.061,8.982,2,8.498,2,8z M5,13.197c-1.109-0.641-1.993-1.627-2.506-2.812L5,7.88V13.197z M8,14
	c-0.796,0-1.555-0.154-2.25-0.438V11h7.447C12.159,12.793,10.221,14,8,14z M13.562,10.25H11V2.803C12.793,3.841,14,5.779,14,8
	C14,8.796,13.846,9.555,13.562,10.25z"/>
</svg>
