<?xml version="1.0" encoding="utf-8"?>
<!-- Generator: Adobe Illustrator 16.0.4, SVG Export Plug-In . SVG Version: 6.00 Build 0)  -->
<!DOCTYPE svg PUBLIC "-//W3C//DTD SVG 1.1//EN" "http://www.w3.org/Graphics/SVG/1.1/DTD/svg11.dtd">
<svg version="1.1" id="Capa_1" xmlns="http://www.w3.org/2000/svg" xmlns:xlink="http://www.w3.org/1999/xlink" x="0px" y="0px"
	 width="16px" height="16px" viewBox="0 0 16 16" enable-background="new 0 0 16 16" xml:space="preserve">
<g>
	<path d="M15,4H1C0.448,4,0,4.448,0,5v3h1v7c0,0.552,0.448,1,1,1h12c0.552,0,1-0.448,1-1V8h1V5C16,4.448,15.552,4,15,4z M7,15H2V8h5
		V15z M7,7H1V5h6V7z M14,15H9.021V8H14V15z M15,7H9.021V5H15V7z"/>
	<path d="M4,3h4L7.999,2.992h0.003L8,3h4c1.381,0,2-0.672,2-1.5S13.381,0,12,0c-1.293,0-2.311,0.582-3,1.257
		C8.698,1.078,8.349,0.969,7.971,0.969c-0.362,0-0.697,0.102-0.991,0.268C6.292,0.57,5.28,0,4,0C2.619,0,2,0.672,2,1.5S2.619,3,4,3z
		 M12,1c0.456,0,1,0.087,1,0.5S12.456,2,12,2H9.729L9.706,1.958C10.214,1.464,10.984,1,12,1z M4,1c0.994,0,1.748,0.445,2.256,0.922
		L6.213,2H4C3.544,2,3,1.913,3,1.5S3.544,1,4,1z"/>
</g>
</svg>
