<?xml version="1.0" encoding="utf-8"?>
<!-- Generator: Adobe Illustrator 16.0.4, SVG Export Plug-In . SVG Version: 6.00 Build 0)  -->
<!DOCTYPE svg PUBLIC "-//W3C//DTD SVG 1.1//EN" "http://www.w3.org/Graphics/SVG/1.1/DTD/svg11.dtd">
<svg version="1.1" id="Capa_1" xmlns="http://www.w3.org/2000/svg" xmlns:xlink="http://www.w3.org/1999/xlink" x="0px" y="0px"
	 width="16px" height="16.414px" viewBox="0 0 16 16.414" enable-background="new 0 0 16 16.414" xml:space="preserve">
<path d="M11,8.029V2.85c1.264-0.428,2-1.117,2-1.607c0-1.657-9-1.657-9,0c0,0.539,0.737,1.213,2,1.625v5.161
	C4.737,8.35,4,8.943,4,9.757c0,0.767,1.93,1.175,4.001,1.231L8,11v3c0,0.552,0.224,2,0.5,2C8.775,16,9,14.552,9,14v-3l-0.001-0.012
	C11.07,10.932,13,10.523,13,9.757C13,8.943,12.264,8.349,11,8.029z"/>
</svg>
