<?xml version="1.0" encoding="utf-8"?>
<!-- Generator: Adobe Illustrator 16.0.4, SVG Export Plug-In . SVG Version: 6.00 Build 0)  -->
<!DOCTYPE svg PUBLIC "-//W3C//DTD SVG 1.1//EN" "http://www.w3.org/Graphics/SVG/1.1/DTD/svg11.dtd">
<svg version="1.1" id="Capa_1" xmlns="http://www.w3.org/2000/svg" xmlns:xlink="http://www.w3.org/1999/xlink" x="0px" y="0px"
	 width="16px" height="16px" viewBox="0 0 16 16" enable-background="new 0 0 16 16" xml:space="preserve">
<path d="M8,0C3.582,0,0,3.582,0,8s3.582,8,8,8s8-3.582,8-8S12.418,0,8,0z M8,14.044c-0.569,0-1.03-0.461-1.03-1.03
	c0-0.568,0.461-1.029,1.03-1.029c0.568,0,1.029,0.461,1.029,1.029C9.029,13.583,8.568,14.044,8,14.044z M9.816,9.126
	C9.396,9.357,9,9.814,9,10c0,0.552-0.448,1-1,1s-1-0.448-1-1c0-1.27,1.164-2.248,1.852-2.626C9.863,6.816,10,6.208,10,5.688
	C10,4.219,8.747,4,8,4C7.037,4,6,4.632,6,6.021c0,0.552-0.448,1-1,1s-1-0.448-1-1C4,3.409,6.061,2,8,2c1.991,0,4,1.14,4,3.688
	C12,7.171,11.266,8.329,9.816,9.126z"/>
</svg>
