<?xml version="1.0" encoding="utf-8"?>
<!-- Generator: Adobe Illustrator 16.0.4, SVG Export Plug-In . SVG Version: 6.00 Build 0)  -->
<!DOCTYPE svg PUBLIC "-//W3C//DTD SVG 1.1//EN" "http://www.w3.org/Graphics/SVG/1.1/DTD/svg11.dtd">
<svg version="1.1" id="Capa_1" xmlns="http://www.w3.org/2000/svg" xmlns:xlink="http://www.w3.org/1999/xlink" x="0px" y="0px"
	 width="16px" height="16px" viewBox="0 0 16 16" enable-background="new 0 0 16 16" xml:space="preserve">
<g>
	<path d="M13,2H3C2.448,2,2,2.448,2,3v10c0,0.552,0.448,1,1,1h10c0.552,0,1-0.448,1-1V3C14,2.448,13.552,2,13,2z M13,13H3V3h10V13z"
		/>
	<path d="M6,11h4c0.552,0,1-0.448,1-1V6c0-0.552-0.448-1-1-1H6C5.448,5,5,5.448,5,6v4C5,10.552,5.448,11,6,11z"/>
</g>
</svg>
