<?xml version="1.0" encoding="utf-8"?>
<!-- Generator: Adobe Illustrator 16.0.4, SVG Export Plug-In . SVG Version: 6.00 Build 0)  -->
<!DOCTYPE svg PUBLIC "-//W3C//DTD SVG 1.1//EN" "http://www.w3.org/Graphics/SVG/1.1/DTD/svg11.dtd">
<svg version="1.1" id="Capa_1" xmlns="http://www.w3.org/2000/svg" xmlns:xlink="http://www.w3.org/1999/xlink" x="0px" y="0px"
	 width="16px" height="16px" viewBox="0 0 16 16" enable-background="new 0 0 16 16" xml:space="preserve">
<g>
	<path d="M13,3h-2.005C10.971,1.339,9.641,0,8,0C6.359,0,5.029,1.339,5.005,3H3C2.448,3,2,3.448,2,4v11c0,0.552,0.448,1,1,1h10
		c0.552,0,1-0.448,1-1V4C14,3.448,13.552,3,13,3z M8,1c1.087,0,1.971,0.893,1.995,2h-3.99C6.029,1.893,6.913,1,8,1z M13,15H3V4h10
		V15z"/>
	<path d="M6.5,6h3C9.775,6,10,5.776,10,5.5S9.775,5,9.5,5h-3C6.224,5,6,5.224,6,5.5S6.224,6,6.5,6z"/>
</g>
</svg>
