<?xml version="1.0" encoding="utf-8"?>
<!-- Generator: Adobe Illustrator 16.0.4, SVG Export Plug-In . SVG Version: 6.00 Build 0)  -->
<!DOCTYPE svg PUBLIC "-//W3C//DTD SVG 1.1//EN" "http://www.w3.org/Graphics/SVG/1.1/DTD/svg11.dtd">
<svg version="1.1" id="Capa_1" xmlns="http://www.w3.org/2000/svg" xmlns:xlink="http://www.w3.org/1999/xlink" x="0px" y="0px"
	 width="16px" height="16px" viewBox="0 0 16 16" enable-background="new 0 0 16 16" xml:space="preserve">
<path d="M15,3h-4.516C9.932,3,9.297,3.281,9,4c0,0-0.13,0.917-1,1H1C0.448,5,0,5.432,0,5.984V15c0,0.552,0.448,1,1,1h14
	c0.552,0,1-0.448,1-1V4C16,3.448,15.552,3,15,3z M15,5.984V15H1V6h7l0.095-0.005c0.938-0.089,1.518-0.745,1.786-1.42
	C10.141,3.922,10.594,4,10.594,4H15V5.984z"/>
</svg>
