<?xml version="1.0" encoding="utf-8"?>
<!-- Generator: Adobe Illustrator 16.0.4, SVG Export Plug-In . SVG Version: 6.00 Build 0)  -->
<!DOCTYPE svg PUBLIC "-//W3C//DTD SVG 1.1//EN" "http://www.w3.org/Graphics/SVG/1.1/DTD/svg11.dtd">
<svg version="1.1" id="Capa_1" xmlns="http://www.w3.org/2000/svg" xmlns:xlink="http://www.w3.org/1999/xlink" x="0px" y="0px"
	 width="16px" height="16px" viewBox="0 0 16 16" enable-background="new 0 0 16 16" xml:space="preserve">
<path d="M14.477,0H2.521c-1.38,0-2.497,1.109-2.517,2.484L0,2.479v11C0,14.871,1.129,16,2.521,16h9.456c0.551,0,1-0.448,1-1V4.5
	c0-0.276-0.225-0.5-0.5-0.5H4L3.879,4.007L2.521,4C1.682,4,1,3.359,1,2.521C1,1.682,1.661,1,2.5,1H14v11.5
	c0,0.275,0.2,0.5,0.477,0.5C14.754,13,15,12.775,15,12.5v-12C15,0.224,14.753,0,14.477,0z"/>
</svg>
