<?xml version="1.0" encoding="utf-8"?>
<!-- Generator: Adobe Illustrator 16.0.4, SVG Export Plug-In . SVG Version: 6.00 Build 0)  -->
<!DOCTYPE svg PUBLIC "-//W3C//DTD SVG 1.1//EN" "http://www.w3.org/Graphics/SVG/1.1/DTD/svg11.dtd">
<svg version="1.1" id="Capa_1" xmlns="http://www.w3.org/2000/svg" xmlns:xlink="http://www.w3.org/1999/xlink" x="0px" y="0px"
	 width="16px" height="16px" viewBox="0 0 16 16" enable-background="new 0 0 16 16" xml:space="preserve">
<g>
	<path d="M7.606,0C4.51,0,2,2.51,2,5.606c0,0.237,0.019,0.468,0.048,0.697c0.479,4.378,5.194,9.425,5.194,9.425
		c0.084,0.094,0.165,0.153,0.243,0.195l0.004,0.002l0.157,0.049l0.157-0.049l0.004-0.002c0.078-0.042,0.159-0.102,0.243-0.195
		c0,0,4.648-5.055,5.115-9.435c0.028-0.226,0.047-0.455,0.047-0.688C13.212,2.51,10.702,0,7.606,0z M12.171,6.188
		c-0.358,3.356-3.509,7.294-4.524,8.492C6.606,13.48,3.41,9.552,3.04,6.18C3.013,5.959,3,5.777,3,5.606C3,3.066,5.066,1,7.606,1
		c2.541,0,4.606,2.066,4.606,4.606C12.212,5.775,12.2,5.955,12.171,6.188z"/>
	<path d="M7.606,3C6.169,3,5,4.169,5,5.606s1.169,2.606,2.606,2.606s2.606-1.169,2.606-2.606S9.043,3,7.606,3z M7.606,7.212
		C6.72,7.212,6,6.491,6,5.606C6,4.721,6.72,4,7.606,4c0.885,0,1.606,0.72,1.606,1.606C9.212,6.492,8.492,7.212,7.606,7.212z"/>
</g>
</svg>
