<?xml version="1.0" encoding="utf-8"?>
<!-- Generator: Adobe Illustrator 16.0.4, SVG Export Plug-In . SVG Version: 6.00 Build 0)  -->
<!DOCTYPE svg PUBLIC "-//W3C//DTD SVG 1.1//EN" "http://www.w3.org/Graphics/SVG/1.1/DTD/svg11.dtd">
<svg version="1.1" id="Capa_1" xmlns="http://www.w3.org/2000/svg" xmlns:xlink="http://www.w3.org/1999/xlink" x="0px" y="0px"
	 width="16px" height="16px" viewBox="0 0 16 16" enable-background="new 0 0 16 16" xml:space="preserve">
<g>
	<path d="M8.536,1.072c-4.122,0-7.464,3.342-7.464,7.464S4.414,16,8.536,16S16,12.658,16,8.536S12.658,1.072,8.536,1.072z M8.536,15
		c-3.564,0-6.464-2.9-6.464-6.464c0-3.564,2.9-6.464,6.464-6.464C12.1,2.072,15,4.972,15,8.536C15,12.1,12.1,15,8.536,15z"/>
	<path d="M8.881,4.647c-0.1-0.1-0.23-0.148-0.361-0.146C8.387,4.499,8.256,4.547,8.156,4.647L4.811,7.606
		c-0.196,0.196-0.196,0.515,0,0.711c0.196,0.197,0.515,0.197,0.711,0l2.996-2.651l2.996,2.651c0.196,0.197,0.516,0.197,0.711,0
		c0.196-0.196,0.196-0.515,0-0.711L8.881,4.647z"/>
	<path d="M8.881,8.233c-0.1-0.1-0.23-0.148-0.361-0.146C8.387,8.085,8.256,8.133,8.156,8.233l-3.345,2.958
		c-0.196,0.197-0.196,0.516,0,0.711c0.196,0.197,0.515,0.197,0.711,0l2.996-2.649l2.996,2.649c0.196,0.197,0.516,0.197,0.711,0
		c0.196-0.195,0.196-0.514,0-0.711L8.881,8.233z"/>
</g>
</svg>
