<?xml version="1.0" encoding="utf-8"?>
<!-- Generator: Adobe Illustrator 16.0.4, SVG Export Plug-In . SVG Version: 6.00 Build 0)  -->
<!DOCTYPE svg PUBLIC "-//W3C//DTD SVG 1.1//EN" "http://www.w3.org/Graphics/SVG/1.1/DTD/svg11.dtd">
<svg version="1.1" id="Capa_1" xmlns="http://www.w3.org/2000/svg" xmlns:xlink="http://www.w3.org/1999/xlink" x="0px" y="0px"
	 width="16px" height="16px" viewBox="0 0 16 16" enable-background="new 0 0 16 16" xml:space="preserve">
<path d="M8.5,1C4.358,1,1,4.358,1,8.5C1,12.643,4.358,16,8.5,16c4.143,0,7.5-3.357,7.5-7.5C16,4.358,12.643,1,8.5,1z M12.098,7.607
	L8.855,10.85c-0.099,0.099-0.228,0.147-0.355,0.146c-0.129,0-0.257-0.048-0.355-0.146L4.902,7.607c-0.195-0.195-0.195-0.512,0-0.707
	c0.195-0.195,0.512-0.195,0.707,0L8.5,9.791L11.391,6.9c0.195-0.195,0.512-0.195,0.707,0C12.293,7.095,12.293,7.412,12.098,7.607z"
	/>
</svg>
