<?xml version="1.0" encoding="utf-8"?>
<!-- Generator: Adobe Illustrator 16.0.4, SVG Export Plug-In . SVG Version: 6.00 Build 0)  -->
<!DOCTYPE svg PUBLIC "-//W3C//DTD SVG 1.1//EN" "http://www.w3.org/Graphics/SVG/1.1/DTD/svg11.dtd">
<svg version="1.1" id="Capa_1" xmlns="http://www.w3.org/2000/svg" xmlns:xlink="http://www.w3.org/1999/xlink" x="0px" y="0px"
	 width="16px" height="16px" viewBox="0 0 16 16" enable-background="new 0 0 16 16" xml:space="preserve">
<g>
	<path d="M8,0C3.582,0,0,3.582,0,8s3.582,8,8,8s8-3.582,8-8S12.418,0,8,0z M8,15c-3.86,0-7-3.141-7-7c0-3.86,3.14-7,7-7
		c3.859,0,7,3.14,7,7C15,11.859,11.859,15,8,15z"/>
	<path d="M11.234,4.076l-1.86,1.162L8.131,6.013c0.998,0.066,1.79,0.857,1.855,1.856l0.775-1.242l1.162-1.862
		c0.124-0.197,0.096-0.454-0.07-0.618C11.688,3.981,11.43,3.953,11.234,4.076z"/>
	<path d="M8.131,6.013L8,6C6.895,6,6,6.895,6,8l0.013,0.131L5.238,9.374l-1.162,1.862c-0.124,0.197-0.095,0.453,0.07,0.617
		C4.243,11.95,4.371,12,4.5,12c0.092,0,0.184-0.025,0.265-0.076l1.861-1.162l1.243-0.775L8,10c1.105,0,2-0.895,2-2L9.986,7.869
		C9.921,6.871,9.129,6.079,8.131,6.013z M8,9C7.449,9,7,8.551,7,8s0.449-1,1-1s1,0.449,1,1S8.551,9,8,9z"/>
</g>
</svg>
