<?xml version="1.0" encoding="utf-8"?>
<!-- Generator: Adobe Illustrator 17.0.0, SVG Export Plug-In . SVG Version: 6.00 Build 0)  -->
<!DOCTYPE svg PUBLIC "-//W3C//DTD SVG 1.1//EN" "http://www.w3.org/Graphics/SVG/1.1/DTD/svg11.dtd">
<svg version="1.1" id="Capa_1" xmlns="http://www.w3.org/2000/svg" xmlns:xlink="http://www.w3.org/1999/xlink" x="0px" y="0px"
	 width="16px" height="16px" viewBox="0 0 16 16" enable-background="new 0 0 16 16" xml:space="preserve">
<path d="M15.5,0h-2c-0.121,0-0.238,0.044-0.33,0.124L6.268,6.175C5.911,6.1,5.359,6,5,6c-2.757,0-5,2.243-5,5s2.243,5,5,5
	s5-2.243,5-5c0-0.818-0.156-1.368-0.333-1.824l1.702-0.578c0.207-0.07,0.344-0.267,0.339-0.485l-0.042-1.898l1.91-0.133
	c0.256-0.018,0.457-0.227,0.465-0.483l0.07-2.279l1.496-0.332C15.837,2.938,16,2.734,16,2.5v-2C16,0.224,15.775,0,15.5,0z"/>
</svg>
