<?xml version="1.0" encoding="utf-8"?>
<!-- Generator: Adobe Illustrator 16.0.4, SVG Export Plug-In . SVG Version: 6.00 Build 0)  -->
<!DOCTYPE svg PUBLIC "-//W3C//DTD SVG 1.1//EN" "http://www.w3.org/Graphics/SVG/1.1/DTD/svg11.dtd">
<svg version="1.1" id="Capa_1" xmlns="http://www.w3.org/2000/svg" xmlns:xlink="http://www.w3.org/1999/xlink" x="0px" y="0px"
	 width="16px" height="16px" viewBox="0 0 16 16" enable-background="new 0 0 16 16" xml:space="preserve">
<path d="M14.042,0H2C1.448,0,1,0.448,1,1v14c0,0.552,0.448,1,1,1h12.042c0.552,0,1-0.448,1-1V1C15.042,0.448,14.594,0,14.042,0z
	 M11.542,13H4.5C4.224,13,4,12.775,4,12.5S4.224,12,4.5,12h7.042c0.276,0,0.5,0.225,0.5,0.5S11.818,13,11.542,13z M11.542,10H4.5
	C4.224,10,4,9.775,4,9.5S4.224,9,4.5,9h7.042c0.276,0,0.5,0.225,0.5,0.5S11.818,10,11.542,10z M11.542,7H4.5C4.224,7,4,6.776,4,6.5
	S4.224,6,4.5,6h7.042c0.276,0,0.5,0.224,0.5,0.5S11.818,7,11.542,7z M11.542,4H7.5C7.224,4,7,3.776,7,3.5S7.224,3,7.5,3h4.042
	c0.276,0,0.5,0.224,0.5,0.5S11.818,4,11.542,4z"/>
</svg>
