<?xml version="1.0" encoding="utf-8"?>
<!-- Generator: Adobe Illustrator 16.0.4, SVG Export Plug-In . SVG Version: 6.00 Build 0)  -->
<!DOCTYPE svg PUBLIC "-//W3C//DTD SVG 1.1//EN" "http://www.w3.org/Graphics/SVG/1.1/DTD/svg11.dtd">
<svg version="1.1" id="Capa_1" xmlns="http://www.w3.org/2000/svg" xmlns:xlink="http://www.w3.org/1999/xlink" x="0px" y="0px"
	 width="16px" height="16px" viewBox="0 0 16 16" enable-background="new 0 0 16 16" xml:space="preserve">
<path d="M15.277,0H0.722C0.324,0,0,0.323,0,0.721v14.558C0,15.676,0.324,16,0.722,16h14.555C15.676,16,16,15.676,16,15.279V0.721
	C16,0.323,15.676,0,15.277,0z M8,5.208c1.542,0,2.792,1.25,2.792,2.792S9.542,10.792,8,10.792S5.208,9.542,5.208,8
	S6.458,5.208,8,5.208z M14,14H2V7h1.317C3.248,7.323,3.208,7.657,3.208,8c0,2.643,2.15,4.792,4.792,4.792
	c2.643,0,4.792-2.149,4.792-4.792c0-0.343-0.04-0.677-0.108-1H14V14z M14,5h-3V2h3V5z"/>
</svg>
