<?xml version="1.0" encoding="utf-8"?>
<!-- Generator: Adobe Illustrator 16.0.4, SVG Export Plug-In . SVG Version: 6.00 Build 0)  -->
<!DOCTYPE svg PUBLIC "-//W3C//DTD SVG 1.1//EN" "http://www.w3.org/Graphics/SVG/1.1/DTD/svg11.dtd">
<svg version="1.1" id="Capa_1" xmlns="http://www.w3.org/2000/svg" xmlns:xlink="http://www.w3.org/1999/xlink" x="0px" y="0px"
	 width="16px" height="16px" viewBox="0 0 16 16" enable-background="new 0 0 16 16" xml:space="preserve">
<g>
	<path d="M8,0C3.582,0,0,3.582,0,8s3.582,8,8,8s8-3.582,8-8C16,3.581,12.418,0,8,0z M8,14c-3.314,0-6-2.686-6-6c0-3.314,2.686-6,6-6
		c3.314,0,6,2.686,6,6C14,11.314,11.314,14,8,14z"/>
	<path d="M12.1,6.349c-1.576-0.786-3.271-1.184-5.042-1.184c-0.922,0-1.84,0.112-2.731,0.333C4.032,5.571,3.853,5.927,3.926,6.221
		c0.073,0.294,0.371,0.474,0.666,0.401c0.804-0.199,1.634-0.3,2.467-0.3c1.598,0,3.128,0.359,4.55,1.068
		c0.078,0.039,0.162,0.058,0.244,0.058c0.203,0,0.396-0.169,0.494-0.362C12.482,6.815,12.372,6.484,12.1,6.349z"/>
	<path d="M7.058,9.816c-0.743,0-1.477,0.11-2.182,0.328c-0.218,0.066-0.339,0.528-0.272,0.746c0.067,0.217,0.298,0.34,0.516,0.271
		c0.625-0.194,1.278-0.292,1.938-0.292c1.102,0,2.193,0.28,3.154,0.81l0.199,0.051c0.146,0,0.287-0.078,0.36-0.215
		c0.11-0.199,0.039-0.681-0.162-0.791C9.527,10.131,8.299,9.816,7.058,9.816z"/>
	<path d="M11.329,8.609c-1.31-0.68-2.786-1.041-4.27-1.041c-0.828,0-1.652,0.11-2.447,0.327c-0.256,0.07-0.407,0.507-0.337,0.763
		c0.07,0.256,0.334,0.407,0.591,0.337c0.712-0.194,1.451-0.293,2.193-0.293c1.35,0,2.636,0.314,3.828,0.932
		c0.07,0.037,0.146,0.055,0.221,0.055c0.174,0,0.341-0.269,0.427-0.433C11.656,9.021,11.564,8.73,11.329,8.609z"/>
</g>
</svg>
