<?xml version="1.0" encoding="utf-8"?>
<!-- Generator: Adobe Illustrator 17.0.0, SVG Export Plug-In . SVG Version: 6.00 Build 0)  -->
<!DOCTYPE svg PUBLIC "-//W3C//DTD SVG 1.1//EN" "http://www.w3.org/Graphics/SVG/1.1/DTD/svg11.dtd">
<svg version="1.1" id="Capa_1" xmlns="http://www.w3.org/2000/svg" xmlns:xlink="http://www.w3.org/1999/xlink" x="0px" y="0px"
	 width="16px" height="16px" viewBox="0 0 16 16" enable-background="new 0 0 16 16" xml:space="preserve">
<path d="M8,0.625C3.927,0.625,0.625,3.927,0.625,8S3.927,15.375,8,15.375S15.375,12.073,15.375,8C15.375,3.926,12.073,0.625,8,0.625
	z M12.609,12.277c0,0.183-0.149,0.333-0.333,0.333H3.723c-0.183,0-0.333-0.149-0.333-0.333V3.723c0-0.183,0.149-0.333,0.333-0.333
	h8.553c0.183,0,0.333,0.149,0.333,0.333V12.277z M6.156,8c0-1.018,0.826-1.844,1.844-1.844S9.844,6.982,9.844,8S9.018,9.844,8,9.844
	S6.156,9.018,6.156,8z M9.844,4.312h1.844v1.844H9.844V4.312z M10.681,7.539h1.007v4.148H4.312V7.539h1.007
	C5.28,7.724,5.257,7.804,5.257,8c0,1.513,1.231,2.743,2.743,2.743c1.513,0,2.743-1.23,2.743-2.743
	C10.743,7.804,10.72,7.724,10.681,7.539z"/>
</svg>
