<?xml version="1.0" encoding="utf-8"?>
<!-- Generator: Adobe Illustrator 16.0.4, SVG Export Plug-In . SVG Version: 6.00 Build 0)  -->
<!DOCTYPE svg PUBLIC "-//W3C//DTD SVG 1.1//EN" "http://www.w3.org/Graphics/SVG/1.1/DTD/svg11.dtd">
<svg version="1.1" id="Capa_1" xmlns="http://www.w3.org/2000/svg" xmlns:xlink="http://www.w3.org/1999/xlink" x="0px" y="0px"
	 width="16px" height="16px" viewBox="0 0 16 16" enable-background="new 0 0 16 16" xml:space="preserve">
<g>
	<path d="M13,8v2c0,0.551-0.449,1-1,1s-1-0.449-1-1.219V7.842L9.938,8.217L9,7.842v1.938C9,11.654,10.346,13,12,13s3-1.346,3-3V8H13
		z"/>
	<path d="M9,6.75l0.938,0.375L11,6.75V5.78C11,4.345,9.654,3,8,3C6.346,3,5,4.345,5,6v4c0,0.551-0.449,1-1,1s-1-0.449-1-1V8H1v2
		c0,1.654,1.346,3,3,3s3-1.346,3-3V6c0-0.551,0.449-1,1-1c0.55,0,1,0.448,1,0.78V6.75z"/>
</g>
</svg>
