<?xml version="1.0" encoding="utf-8"?>
<!-- Generator: Adobe Illustrator 16.0.4, SVG Export Plug-In . SVG Version: 6.00 Build 0)  -->
<!DOCTYPE svg PUBLIC "-//W3C//DTD SVG 1.1//EN" "http://www.w3.org/Graphics/SVG/1.1/DTD/svg11.dtd">
<svg version="1.1" id="Capa_1" xmlns="http://www.w3.org/2000/svg" xmlns:xlink="http://www.w3.org/1999/xlink" x="0px" y="0px"
	 width="16px" height="16px" viewBox="0 0 16 16" enable-background="new 0 0 16 16" xml:space="preserve">
<path d="M13,0H3C1.343,0,0,1.343,0,3v10c0,1.657,1.343,3,3,3h10c1.657,0,3-1.343,3-3V3C16,1.343,14.657,0,13,0z M1.84,8
	c0-0.87,0.192-1.696,0.534-2.441L5.312,13.4C3.257,12.427,1.84,10.375,1.84,8z M8,14c-0.605,0-1.188-0.086-1.74-0.244l1.928-5.037
	l1.814,4.858l0.044,0.083C9.406,13.88,8.718,14,8,14z M8.848,5.187C9.218,5.168,9.552,5.13,9.552,5.13
	c0.333-0.039,0.294-0.513-0.038-0.495c0,0-0.998,0.076-1.643,0.076c-0.605,0-1.622-0.076-1.622-0.076
	C5.918,4.617,5.879,5.111,6.21,5.13c0,0,0.314,0.038,0.646,0.056l0.96,2.562l-1.472,3.939l-2.119-6.5
	C4.596,5.168,4.93,5.13,4.93,5.13c0.332-0.039,0.293-0.513-0.039-0.495c0,0-0.998,0.076-1.642,0.076L2.853,4.704
	C3.955,3.076,5.848,2,8,2c1.604,0,3.064,0.598,4.16,1.575L12.08,3.57c-0.605,0-1.035,0.513-1.035,1.065
	c0,0.495,0.293,0.913,0.605,1.408c0.234,0.4,0.401,0.621,0.401,1.362c0,0.513-0.202,1.111-0.468,1.941l-0.615,1.998L8.848,5.187z
	 M11.096,13.186l1.883-5.298c0.351-0.856,0.467-1.54,0.467-2.149c0-0.221-0.014-0.426-0.041-0.617C13.887,5.976,14.16,6.957,14.16,8
	C14.16,10.214,12.928,12.146,11.096,13.186z"/>
</svg>
