<?xml version="1.0" encoding="utf-8"?>
<!-- Generator: Adobe Illustrator 16.0.4, SVG Export Plug-In . SVG Version: 6.00 Build 0)  -->
<!DOCTYPE svg PUBLIC "-//W3C//DTD SVG 1.1//EN" "http://www.w3.org/Graphics/SVG/1.1/DTD/svg11.dtd">
<svg version="1.1" id="Capa_1" xmlns="http://www.w3.org/2000/svg" xmlns:xlink="http://www.w3.org/1999/xlink" x="0px" y="0px"
	 width="16px" height="16px" viewBox="0 0 16 16" enable-background="new 0 0 16 16" xml:space="preserve">
<path d="M8,0C3.589,0,0,3.589,0,8s3.589,8,8,8s8-3.589,8-8S12.411,0,8,0z M13.289,3.689c0.952,1.163,1.527,2.644,1.542,4.257
	c-0.226-0.048-2.483-0.506-4.758-0.22L9.926,7.373C9.784,7.04,9.632,6.709,9.473,6.383C12,5.352,13.145,3.884,13.289,3.689z
	 M8,1.177c1.736,0,3.323,0.651,4.529,1.722c-0.122,0.175-1.15,1.557-3.58,2.468c-1.12-2.057-2.361-3.747-2.55-4
	C6.913,1.243,7.449,1.177,8,1.177z M5.095,1.826c0.18,0.247,1.401,1.939,2.533,3.952C4.432,6.627,1.617,6.615,1.311,6.611
	C1.754,4.49,3.183,2.728,5.095,1.826z M1.166,8.01l0.003-0.209C1.468,7.808,4.78,7.85,8.192,6.829
	c0.196,0.383,0.382,0.772,0.554,1.16L8.477,8.07c-3.524,1.139-5.399,4.245-5.554,4.509C1.832,11.368,1.167,9.766,1.166,8.01z
	 M7.999,14.843c-1.579,0-3.035-0.538-4.194-1.442c0.123-0.25,1.507-2.924,5.361-4.267l0.045-0.015
	c0.96,2.492,1.355,4.582,1.458,5.182C9.85,14.65,8.947,14.844,7.999,14.843z M11.818,13.675c-0.07-0.416-0.434-2.416-1.327-4.872
	c2.141-0.343,4.022,0.219,4.256,0.293C14.441,10.996,13.352,12.639,11.818,13.675z"/>
</svg>
