<?xml version="1.0" encoding="utf-8"?>
<!-- Generator: Adobe Illustrator 16.0.4, SVG Export Plug-In . SVG Version: 6.00 Build 0)  -->
<!DOCTYPE svg PUBLIC "-//W3C//DTD SVG 1.1//EN" "http://www.w3.org/Graphics/SVG/1.1/DTD/svg11.dtd">
<svg version="1.1" id="Capa_1" xmlns="http://www.w3.org/2000/svg" xmlns:xlink="http://www.w3.org/1999/xlink" x="0px" y="0px"
	 width="16px" height="16px" viewBox="0 0 16 16" enable-background="new 0 0 16 16" xml:space="preserve">
<path d="M13.374,10.637c-0.594,0-1.14,0.199-1.58,0.532L5.244,8.003L5.25,7.884l6.543-3.162c0.439,0.333,0.985,0.532,1.58,0.532
	C14.825,5.254,16,4.078,16,2.627S14.825,0,13.374,0s-2.627,1.176-2.627,2.627v0.002L4.262,5.764C3.813,5.406,3.245,5.19,2.627,5.19
	C1.176,5.19,0,6.367,0,7.817c0,1.451,1.176,2.626,2.627,2.626c0.524,0,1.012-0.155,1.422-0.42l6.698,3.238v0.002
	c0,1.451,1.176,2.627,2.627,2.627S16,14.715,16,13.264S14.825,10.637,13.374,10.637z"/>
</svg>
