<?xml version="1.0" encoding="utf-8"?>
<!-- Generator: Adobe Illustrator 16.0.4, SVG Export Plug-In . SVG Version: 6.00 Build 0)  -->
<!DOCTYPE svg PUBLIC "-//W3C//DTD SVG 1.1//EN" "http://www.w3.org/Graphics/SVG/1.1/DTD/svg11.dtd">
<svg version="1.1" id="Capa_1" xmlns="http://www.w3.org/2000/svg" xmlns:xlink="http://www.w3.org/1999/xlink" x="0px" y="0px"
	 width="16px" height="16px" viewBox="0 0 16 16" enable-background="new 0 0 16 16" xml:space="preserve">
<g>
	<path d="M8,0C3.582,0,0,3.582,0,8s3.582,8,8,8s8-3.582,8-8C16,3.581,12.418,0,8,0z M13,8.011v4.634C13,12.84,12.84,13,12.645,13
		H3.5C3.224,13,3,12.775,3,12.5V3.356C3,3.16,3.16,3,3.356,3H12.5C12.775,3,13,3.224,13,3.5V8.011z"/>
	<rect x="4" y="8.011" width="4.006" height="3.989"/>
	<rect x="8.006" y="4" width="3.994" height="4.011"/>
</g>
</svg>
