<?xml version="1.0" encoding="utf-8"?>
<!-- Generator: Adobe Illustrator 16.0.4, SVG Export Plug-In . SVG Version: 6.00 Build 0)  -->
<!DOCTYPE svg PUBLIC "-//W3C//DTD SVG 1.1//EN" "http://www.w3.org/Graphics/SVG/1.1/DTD/svg11.dtd">
<svg version="1.1" id="Capa_1" xmlns="http://www.w3.org/2000/svg" xmlns:xlink="http://www.w3.org/1999/xlink" x="0px" y="0px"
	 width="16.277px" height="16px" viewBox="0 0 16.277 16" enable-background="new 0 0 16.277 16" xml:space="preserve">
<path d="M8.779,6.358C8.169,6.322,7.465,6.359,6.65,6.498l1.88,3.389L16,7.836c-0.081-0.192-0.198-0.379-0.354-0.559
	c-0.772-0.895-2.449-1.693-4.274-2.053C9.58,4.804,7.64,4.822,5.653,5.122L5.439,5.156l-0.66-1.223
	c-0.643,0.086-1.246,0.22-1.806,0.398l0.629,1.316C2.574,6.045,1.731,6.612,1.123,7.294c-1.004,1.14-1.401,2.575-0.919,3.974
	c0.097,0.281,0.228,0.549,0.39,0.799l7.47-2.051L5.99,6.174l0.218-0.041c3.354-0.598,5.188,0.326,6.193,1.31l-2.556,0.62
	L8.779,6.358z M2.73,9.786c-0.23-1.052-0.047-2.227,1.413-3.009l1.144,2.39L2.73,9.786z"/>
</svg>
