<?xml version="1.0" encoding="utf-8"?>
<!-- Generator: Adobe Illustrator 16.0.4, SVG Export Plug-In . SVG Version: 6.00 Build 0)  -->
<!DOCTYPE svg PUBLIC "-//W3C//DTD SVG 1.1//EN" "http://www.w3.org/Graphics/SVG/1.1/DTD/svg11.dtd">
<svg version="1.1" id="Capa_1" xmlns="http://www.w3.org/2000/svg" xmlns:xlink="http://www.w3.org/1999/xlink" x="0px" y="0px"
	 width="16px" height="16px" viewBox="0 0 16 16" enable-background="new 0 0 16 16" xml:space="preserve">
<g>
	<path d="M13,0H3C1.343,0,0,1.343,0,3v10c0,1.657,1.343,3,3,3h10c1.657,0,3-1.343,3-3V3C16,1.343,14.657,0,13,0z M13,8.011v4.634
		C13,12.84,12.84,13,12.645,13H3.5C3.224,13,3,12.775,3,12.5V3.356C3,3.16,3.16,3,3.356,3H12.5C12.775,3,13,3.224,13,3.5V8.011z"/>
	<rect x="8.006" y="4" width="3.994" height="4.011"/>
	<rect x="4" y="8.011" width="4.006" height="3.989"/>
</g>
</svg>
