<?xml version="1.0" encoding="utf-8"?>
<!-- Generator: Adobe Illustrator 16.0.4, SVG Export Plug-In . SVG Version: 6.00 Build 0)  -->
<!DOCTYPE svg PUBLIC "-//W3C//DTD SVG 1.1//EN" "http://www.w3.org/Graphics/SVG/1.1/DTD/svg11.dtd">
<svg version="1.1" id="Capa_1" xmlns="http://www.w3.org/2000/svg" xmlns:xlink="http://www.w3.org/1999/xlink" x="0px" y="0px"
	 width="16px" height="16px" viewBox="0 0 16 16" enable-background="new 0 0 16 16" xml:space="preserve">
<g>
	<path d="M15,1H2C1.448,1,1,1.448,1,2v13c0,0.552,0.448,1,1,1h13c0.552,0,1-0.448,1-1V2C16,1.448,15.552,1,15,1z M15,15H2V2h13V15z"
		/>
	<path d="M4.5,9h8C12.775,9,13,8.775,13,8.5C13,8.224,12.775,8,12.5,8h-8C4.224,8,4,8.224,4,8.5C4,8.775,4.224,9,4.5,9z"/>
	<path d="M4.5,6h8C12.775,6,13,5.776,13,5.5S12.775,5,12.5,5h-8C4.224,5,4,5.224,4,5.5S4.224,6,4.5,6z"/>
	<path d="M4.5,12h8c0.275,0,0.5-0.225,0.5-0.5S12.775,11,12.5,11h-8C4.224,11,4,11.225,4,11.5S4.224,12,4.5,12z"/>
</g>
</svg>
