<?xml version="1.0" encoding="utf-8"?>
<!-- Generator: Adobe Illustrator 16.0.4, SVG Export Plug-In . SVG Version: 6.00 Build 0)  -->
<!DOCTYPE svg PUBLIC "-//W3C//DTD SVG 1.1//EN" "http://www.w3.org/Graphics/SVG/1.1/DTD/svg11.dtd">
<svg version="1.1" id="Capa_1" xmlns="http://www.w3.org/2000/svg" xmlns:xlink="http://www.w3.org/1999/xlink" x="0px" y="0px"
	 width="16px" height="16px" viewBox="0 0 16 16" enable-background="new 0 0 16 16" xml:space="preserve">
<path d="M8,0C3.582,0,0,3.582,0,8s3.582,8,8,8s8-3.582,8-8C16,3.581,12.418,0,8,0z M8,5.856c-0.394,0-0.715,0.321-0.715,0.715V9.43
	c0,1.182-0.962,2.145-2.144,2.145S2.997,10.611,2.997,9.43V8h1.429v1.43c0,0.394,0.321,0.715,0.715,0.715S5.856,9.823,5.856,9.43
	V6.571c0-1.182,0.962-2.144,2.144-2.144c1.182,0,2.145,0.962,2.145,1.988v0.693L9.229,7.375L8.714,7.107V6.414
	C8.714,6.177,8.393,5.856,8,5.856z M13.003,9.43L13.003,9.43c-0.001,1.182-0.963,2.144-2.146,2.144
	c-1.182,0-2.144-0.962-2.144-2.302V7.888l0.515,0.268l0.916-0.268v1.385c0,0.55,0.32,0.871,0.715,0.871
	c0.394,0,0.715-0.321,0.715-0.715V8h1.429V9.43z"/>
</svg>
