<?xml version="1.0" encoding="utf-8"?>
<!-- Generator: Adobe Illustrator 16.0.4, SVG Export Plug-In . SVG Version: 6.00 Build 0)  -->
<!DOCTYPE svg PUBLIC "-//W3C//DTD SVG 1.1//EN" "http://www.w3.org/Graphics/SVG/1.1/DTD/svg11.dtd">
<svg version="1.1" id="Capa_1" xmlns="http://www.w3.org/2000/svg" xmlns:xlink="http://www.w3.org/1999/xlink" x="0px" y="0px"
	 width="16px" height="16px" viewBox="0 0 16 16" enable-background="new 0 0 16 16" xml:space="preserve">
<path d="M13,0H3C1.343,0,0,1.343,0,3v10c0,1.657,1.343,3,3,3h10c1.657,0,3-1.343,3-3V3C16,1.343,14.657,0,13,0z M8,5.856
	c-0.394,0-0.715,0.321-0.715,0.715V9.43c0,1.182-0.962,2.145-2.144,2.145S2.997,10.611,2.997,9.43V8h1.429v1.43
	c0,0.394,0.321,0.715,0.715,0.715S5.856,9.823,5.856,9.43V6.571c0-1.182,0.962-2.144,2.144-2.144c1.182,0,2.145,0.962,2.145,1.988
	v0.693L9.229,7.375L8.714,7.107V6.414C8.714,6.177,8.393,5.856,8,5.856z M13.003,9.43L13.003,9.43
	c-0.001,1.182-0.963,2.144-2.146,2.144c-1.182,0-2.144-0.962-2.144-2.302V7.888l0.515,0.268l0.916-0.268v1.385
	c0,0.55,0.32,0.871,0.715,0.871c0.394,0,0.715-0.321,0.715-0.715V8h1.429V9.43z"/>
</svg>
