<?xml version="1.0" encoding="utf-8"?>
<!-- Generator: Adobe Illustrator 16.0.4, SVG Export Plug-In . SVG Version: 6.00 Build 0)  -->
<!DOCTYPE svg PUBLIC "-//W3C//DTD SVG 1.1//EN" "http://www.w3.org/Graphics/SVG/1.1/DTD/svg11.dtd">
<svg version="1.1" id="Capa_1" xmlns="http://www.w3.org/2000/svg" xmlns:xlink="http://www.w3.org/1999/xlink" x="0px" y="0px"
	 width="16px" height="16px" viewBox="0 0 16 16" enable-background="new 0 0 16 16" xml:space="preserve">
<path d="M13,0H3C2.448,0,2,0.448,2,1v14c0,0.552,0.448,1,1,1h10c0.552,0,1-0.448,1-1V1C14,0.448,13.552,0,13,0z M8,15.562
	c-0.311,0-0.562-0.252-0.562-0.562S7.689,14.438,8,14.438S8.562,14.689,8.562,15S8.311,15.562,8,15.562z M12,14H4V2h8V14z"/>
</svg>
