<?xml version="1.0" encoding="utf-8"?>
<!-- Generator: Adobe Illustrator 16.0.4, SVG Export Plug-In . SVG Version: 6.00 Build 0)  -->
<!DOCTYPE svg PUBLIC "-//W3C//DTD SVG 1.1//EN" "http://www.w3.org/Graphics/SVG/1.1/DTD/svg11.dtd">
<svg version="1.1" id="Capa_1" xmlns="http://www.w3.org/2000/svg" xmlns:xlink="http://www.w3.org/1999/xlink" x="0px" y="0px"
	 width="16px" height="16px" viewBox="0 0 16 16" enable-background="new 0 0 16 16" xml:space="preserve">
<path d="M15.283,11.823c-0.034-0.066-0.85-1.617-3.109-2.165c-0.158-0.041-0.32,0.001-0.441,0.105
	c-0.713,0.608-1.698,1.258-2.123,1.324c-2.85-1.393-4.44-4.066-4.5-4.573c-0.035-0.285,0.618-1.286,1.369-2.1
	c0.095-0.103,0.143-0.243,0.13-0.383c-0.191-2.197-2.483-3.275-2.58-3.319C3.937,0.67,3.835,0.657,3.737,0.674
	c-2.646,0.439-3.044,1.979-3.06,2.043c-0.022,0.09-0.018,0.183,0.01,0.27c3.156,9.792,9.715,11.607,11.872,12.205l0.406,0.117
	l0.154,0.023l0.207-0.045c0.066-0.03,1.624-0.764,2.005-3.158C15.348,12.025,15.331,11.917,15.283,11.823z"/>
</svg>
