<?xml version="1.0" encoding="utf-8"?>
<!-- Generator: Adobe Illustrator 16.0.4, SVG Export Plug-In . SVG Version: 6.00 Build 0)  -->
<!DOCTYPE svg PUBLIC "-//W3C//DTD SVG 1.1//EN" "http://www.w3.org/Graphics/SVG/1.1/DTD/svg11.dtd">
<svg version="1.1" id="Capa_1" xmlns="http://www.w3.org/2000/svg" xmlns:xlink="http://www.w3.org/1999/xlink" x="0px" y="0px"
	 width="16px" height="16px" viewBox="0 0 16 16" enable-background="new 0 0 16 16" xml:space="preserve">
<path d="M8.5,1C4.358,1,1,4.358,1,8.5C1,12.643,4.358,16,8.5,16c4.143,0,7.5-3.357,7.5-7.5C16,4.358,12.643,1,8.5,1z M11.854,7.854
	c-0.194,0.195-0.512,0.195-0.707,0L9,5.707V13.5C9,13.775,8.775,14,8.5,14C8.224,14,8,13.775,8,13.5V5.707L5.854,7.854
	c-0.195,0.195-0.512,0.195-0.707,0s-0.195-0.512,0-0.707l3-3L8.15,4.144l0.158-0.105c0.122-0.051,0.26-0.051,0.381,0l0.164,0.107
	l3,3C12.049,7.342,12.049,7.658,11.854,7.854z"/>
</svg>
