<?xml version="1.0" encoding="utf-8"?>
<!-- Generator: Adobe Illustrator 16.0.4, SVG Export Plug-In . SVG Version: 6.00 Build 0)  -->
<!DOCTYPE svg PUBLIC "-//W3C//DTD SVG 1.1//EN" "http://www.w3.org/Graphics/SVG/1.1/DTD/svg11.dtd">
<svg version="1.1" id="Capa_1" xmlns="http://www.w3.org/2000/svg" xmlns:xlink="http://www.w3.org/1999/xlink" x="0px" y="0px"
	 width="16px" height="16px" viewBox="0 0 16 16" enable-background="new 0 0 16 16" xml:space="preserve">
<path d="M11.854,10.146c-0.195-0.194-0.513-0.194-0.707,0L9,12.293V2.5C9,2.224,8.775,2,8.5,2C8.224,2,8,2.224,8,2.5v9.793
	l-2.146-2.146c-0.195-0.194-0.512-0.194-0.707,0c-0.195,0.195-0.195,0.513,0,0.707l3,3l0.004,0.004l0.158,0.104
	c0.122,0.052,0.259,0.052,0.382,0l0.162-0.108l3-3C12.048,10.659,12.048,10.342,11.854,10.146z"/>
</svg>
