<?xml version="1.0" encoding="utf-8"?>
<!-- Generator: Adobe Illustrator 16.0.4, SVG Export Plug-In . SVG Version: 6.00 Build 0)  -->
<!DOCTYPE svg PUBLIC "-//W3C//DTD SVG 1.1//EN" "http://www.w3.org/Graphics/SVG/1.1/DTD/svg11.dtd">
<svg version="1.1" id="Capa_1" xmlns="http://www.w3.org/2000/svg" xmlns:xlink="http://www.w3.org/1999/xlink" x="0px" y="0px"
	 width="16px" height="16px" viewBox="0 0 16 16" enable-background="new 0 0 16 16" xml:space="preserve">
<path d="M15,5h-4V4c0-0.552-0.448-1-1-1H6C5.448,3,5,3.448,5,4v1H1C0.448,5,0,5.448,0,6v9c0,0.552,0.448,1,1,1h14
	c0.552,0,1-0.448,1-1V6C16,5.448,15.552,5,15,5z M6,4h4v1H6V4z M15,15H1V9h4v1c0,0.552,0.448,1,1,1h4c0.552,0,1-0.448,1-1V9h4V15z
	 M6,9h4v1H6V9z M15,8h-5H6H1V6h5h4h5V8z"/>
</svg>
