<?xml version="1.0" encoding="utf-8"?>
<!-- Generator: Adobe Illustrator 16.0.4, SVG Export Plug-In . SVG Version: 6.00 Build 0)  -->
<!DOCTYPE svg PUBLIC "-//W3C//DTD SVG 1.1//EN" "http://www.w3.org/Graphics/SVG/1.1/DTD/svg11.dtd">
<svg version="1.1" id="Capa_1" xmlns="http://www.w3.org/2000/svg" xmlns:xlink="http://www.w3.org/1999/xlink" x="0px" y="0px"
	 width="16px" height="16px" viewBox="0 0 16 16" enable-background="new 0 0 16 16" xml:space="preserve">
<g>
	<path d="M8.5,1C4.358,1,1,4.358,1,8.5C1,12.643,4.358,16,8.5,16c4.143,0,7.5-3.357,7.5-7.5C16,4.358,12.643,1,8.5,1z M8.5,15
		C4.916,15,2,12.084,2,8.5S4.916,2,8.5,2S15,4.916,15,8.5S12.084,15,8.5,15z"/>
	<path d="M9.826,5.118c-0.217-0.17-0.569-0.17-0.786,0L5.163,8.18c-0.217,0.17-0.217,0.447,0,0.617l0.02,0.012l3.857,3.055
		c0.217,0.17,0.569,0.17,0.786,0l0.004-0.006c0.105-0.08,0.17-0.189,0.17-0.312v-6.11C10,5.31,9.932,5.199,9.824,5.12L9.826,5.118z"
		/>
</g>
</svg>
