<?xml version="1.0" encoding="utf-8"?>
<!-- Generator: Adobe Illustrator 16.0.4, SVG Export Plug-In . SVG Version: 6.00 Build 0)  -->
<!DOCTYPE svg PUBLIC "-//W3C//DTD SVG 1.1//EN" "http://www.w3.org/Graphics/SVG/1.1/DTD/svg11.dtd">
<svg version="1.1" id="Capa_1" xmlns="http://www.w3.org/2000/svg" xmlns:xlink="http://www.w3.org/1999/xlink" x="0px" y="0px"
	 width="16px" height="16px" viewBox="0 0 16 16" enable-background="new 0 0 16 16" xml:space="preserve">
<path d="M9,7h3.999V4H9V0H6.42C6.318,0.825,6.13,1.506,5.859,2.039c-0.271,0.535-0.631,0.992-1.08,1.374
	C4.333,3.794,3.63,4.087,3.002,4.291V7h2.147v5.168H5.148c0,0.73,0.077,1.29,0.23,1.675c0.154,0.386,0.428,0.749,0.826,1.091
	c0.396,0.34,0.876,0.605,1.438,0.791C8.205,15.908,8.635,16,9.367,16c0.645,0,1.242-0.064,1.798-0.193
	c0.554-0.131,1.149-0.318,1.833-0.64v-2.406c-0.801,0.527-1.28,0.634-2.09,0.634c-0.455,0-0.859-0.105-1.215-0.318
	c-0.267-0.157-0.51-0.43-0.608-0.69c-0.099-0.263-0.087-0.798-0.087-1.727L9,7z"/>
</svg>
