<?xml version="1.0" encoding="utf-8"?>
<!-- Generator: Adobe Illustrator 16.0.4, SVG Export Plug-In . SVG Version: 6.00 Build 0)  -->
<!DOCTYPE svg PUBLIC "-//W3C//DTD SVG 1.1//EN" "http://www.w3.org/Graphics/SVG/1.1/DTD/svg11.dtd">
<svg version="1.1" id="Capa_1" xmlns="http://www.w3.org/2000/svg" xmlns:xlink="http://www.w3.org/1999/xlink" x="0px" y="0px"
	 width="16px" height="16px" viewBox="0 0 16 16" enable-background="new 0 0 16 16" xml:space="preserve">
<path d="M8.536,1.072c-4.122,0-7.464,3.342-7.464,7.464S4.414,16,8.536,16S16,12.658,16,8.536S12.658,1.072,8.536,1.072z
	 M5.096,12.227c-0.196-0.197-0.196-0.516,0-0.711l2.65-2.996l-2.65-2.997C4.9,5.326,4.9,5.007,5.096,4.811
	c0.196-0.196,0.515-0.196,0.711,0l2.958,3.345c0.101,0.1,0.148,0.231,0.146,0.361C8.915,8.65,8.867,8.781,8.768,8.881l-2.959,3.346
	C5.611,12.423,5.293,12.423,5.096,12.227z M12.354,8.881l-2.959,3.346c-0.196,0.195-0.516,0.195-0.711,0
	c-0.197-0.197-0.197-0.516,0-0.711l2.649-2.996L8.684,5.523c-0.197-0.196-0.197-0.515,0-0.711c0.195-0.196,0.515-0.196,0.711,0
	l2.959,3.345c0.1,0.1,0.147,0.231,0.146,0.362C12.5,8.65,12.453,8.781,12.354,8.881z"/>
</svg>
