<?xml version="1.0" encoding="utf-8"?>
<!-- Generator: Adobe Illustrator 16.0.4, SVG Export Plug-In . SVG Version: 6.00 Build 0)  -->
<!DOCTYPE svg PUBLIC "-//W3C//DTD SVG 1.1//EN" "http://www.w3.org/Graphics/SVG/1.1/DTD/svg11.dtd">
<svg version="1.1" id="Capa_1" xmlns="http://www.w3.org/2000/svg" xmlns:xlink="http://www.w3.org/1999/xlink" x="0px" y="0px"
	 width="16px" height="16px" viewBox="0 0 16 16" enable-background="new 0 0 16 16" xml:space="preserve">
<g>
	<path d="M11.775,13.226c-0.194-0.194-0.512-0.194-0.707,0L10,14.295V5.505c0-0.276-0.225-0.5-0.5-0.5S9,5.229,9,5.505v8.8
		l-1.152-1.152c-0.195-0.195-0.512-0.195-0.707,0c-0.195,0.195-0.195,0.512,0,0.707l2,1.999c0.098,0.099,0.227,0.147,0.354,0.146
		c0.129,0,0.257-0.047,0.354-0.146l1.926-1.926C11.971,13.738,11.971,13.42,11.775,13.226z"/>
	<path d="M7,1.705l1.152,1.152c0.195,0.195,0.512,0.195,0.708,0s0.195-0.512,0-0.707l-2-1.999C6.762,0.053,6.634,0.005,6.505,0.005
		S6.248,0.053,6.15,0.151L4.224,2.077c-0.195,0.195-0.195,0.512,0,0.707c0.195,0.195,0.512,0.195,0.707,0L6,1.715v8.79
		c0,0.277,0.224,0.5,0.5,0.5s0.5-0.223,0.5-0.5V1.705z"/>
</g>
</svg>
