<?xml version="1.0" encoding="utf-8"?>
<!-- Generator: Adobe Illustrator 16.0.4, SVG Export Plug-In . SVG Version: 6.00 Build 0)  -->
<!DOCTYPE svg PUBLIC "-//W3C//DTD SVG 1.1//EN" "http://www.w3.org/Graphics/SVG/1.1/DTD/svg11.dtd">
<svg version="1.1" id="Capa_1" xmlns="http://www.w3.org/2000/svg" xmlns:xlink="http://www.w3.org/1999/xlink" x="0px" y="0px"
	 width="16px" height="16.027px" viewBox="0 0 16 16.027" enable-background="new 0 0 16 16.027" xml:space="preserve">
<g>
	<path d="M10.292,0.003c-0.183-0.017-0.396,0.027-0.646,0.18c0,0-4.17,3.638-4.352,3.817H3C2.448,4,2,4.448,2,5v6.127
		c0,0.553,0.448,1,1,1h2.295c0.181,0.181,4.352,3.69,4.352,3.69c0.25,0.151,0.463,0.196,0.646,0.179
		c0.37-0.035,0.63-0.345,0.709-0.672c0.005-0.032,0.005-14.617,0-14.648C10.922,0.348,10.661,0.038,10.292,0.003z"/>
	<path d="M12.99,5.359c-0.247-0.125-0.547-0.025-0.672,0.222c-0.123,0.247-0.024,0.547,0.223,0.672
		C13.212,6.591,13.629,7.26,13.629,8s-0.417,1.409-1.088,1.747c-0.247,0.125-0.346,0.425-0.223,0.672
		c0.089,0.174,0.265,0.275,0.447,0.275c0.075,0,0.151-0.018,0.225-0.053C14.001,10.131,14.629,9.12,14.629,8
		S14.001,5.869,12.99,5.359z"/>
</g>
</svg>
