<?xml version="1.0" encoding="utf-8"?>
<!-- Generator: Adobe Illustrator 16.0.4, SVG Export Plug-In . SVG Version: 6.00 Build 0)  -->
<!DOCTYPE svg PUBLIC "-//W3C//DTD SVG 1.1//EN" "http://www.w3.org/Graphics/SVG/1.1/DTD/svg11.dtd">
<svg version="1.1" id="Capa_1" xmlns="http://www.w3.org/2000/svg" xmlns:xlink="http://www.w3.org/1999/xlink" x="0px" y="0px"
	 width="16px" height="16px" viewBox="0 0 16 16" enable-background="new 0 0 16 16" xml:space="preserve">
<g>
	<path d="M8.287,0.003L8.213,0C8.048,0,7.859,0.051,7.642,0.182c0,0-4.17,3.638-4.351,3.818H1C0.448,4,0,4.448,0,5v6.127
		c0,0.553,0.448,1,1,1h2.291c0.181,0.18,4.351,3.689,4.351,3.689C7.859,15.949,8.048,16,8.213,16l0.074-0.003
		c0.37-0.035,0.634-0.345,0.713-0.672V0.676C8.922,0.348,8.657,0.038,8.287,0.003z M8,14.812c-1.56-1.314-3.82-3.224-4.004-3.394
		c-0.187-0.187-0.441-0.291-0.706-0.291H1V11V5h2.291c0.256,0,0.512-0.107,0.697-0.283C4.17,4.544,6.43,2.567,8,1.197V14.812z"/>
	<path d="M10.541,9.747c-0.247,0.125-0.346,0.425-0.223,0.672c0.089,0.174,0.265,0.274,0.447,0.274c0.075,0,0.151-0.017,0.225-0.053
		c1.011-0.51,1.639-1.521,1.639-2.641s-0.628-2.131-1.639-2.641c-0.247-0.125-0.547-0.025-0.672,0.222
		c-0.123,0.247-0.024,0.547,0.223,0.672C11.212,6.591,11.629,7.26,11.629,8S11.212,9.409,10.541,9.747z"/>
	<path d="M10.439,1.866C10.173,1.812,9.904,1.99,9.854,2.261C9.8,2.532,9.977,2.795,10.248,2.848C12.712,3.328,14.5,5.495,14.5,8
		s-1.788,4.672-4.252,5.152c-0.271,0.053-0.448,0.315-0.395,0.587c0.047,0.239,0.256,0.403,0.489,0.403l0.097-0.009
		C13.372,13.562,15.5,10.982,15.5,8C15.5,5.018,13.372,2.438,10.439,1.866z"/>
</g>
</svg>
