<?xml version="1.0" encoding="utf-8"?>
<!-- Generator: Adobe Illustrator 16.0.4, SVG Export Plug-In . SVG Version: 6.00 Build 0)  -->
<!DOCTYPE svg PUBLIC "-//W3C//DTD SVG 1.1//EN" "http://www.w3.org/Graphics/SVG/1.1/DTD/svg11.dtd">
<svg version="1.1" id="Capa_1" xmlns="http://www.w3.org/2000/svg" xmlns:xlink="http://www.w3.org/1999/xlink" x="0px" y="0px"
	 width="16px" height="16px" viewBox="0 0 16 16" enable-background="new 0 0 16 16" xml:space="preserve">
<path d="M8,0C3.582,0,0,3.582,0,8s3.582,8,8,8s8-3.582,8-8S12.418,0,8,0z M1.143,8c0-0.968,0.214-1.888,0.594-2.718l3.271,8.728
	C2.72,12.928,1.143,10.643,1.143,8z M8,14.68c-0.673,0-1.322-0.097-1.937-0.272L8.12,8.584l2.106,5.624l0.049,0.093
	C9.564,14.545,8.799,14.68,8,14.68z M8.943,4.869c0.412-0.021,0.785-0.063,0.785-0.063c0.369-0.043,0.326-0.571-0.043-0.551
	c0,0-1.111,0.085-1.828,0.085c-0.673,0-1.806-0.085-1.806-0.085c-0.37-0.021-0.413,0.529-0.044,0.551c0,0,0.35,0.042,0.719,0.063
	L7.795,7.72l-1.501,4.383L3.798,4.869c0.414-0.021,0.785-0.063,0.785-0.063C4.952,4.763,4.909,4.235,4.54,4.255
	c0,0-1.111,0.085-1.827,0.085L2.272,4.332C3.497,2.519,5.605,1.321,8,1.321c1.785,0,3.41,0.665,4.631,1.753l-0.089-0.006
	c-0.674,0-1.151,0.571-1.151,1.185c0,0.551,0.325,1.016,0.672,1.567c0.263,0.446,0.566,1.017,0.566,1.842
	c0,0.571-0.225,1.234-0.521,2.16l-0.685,2.225L8.943,4.869z M11.447,13.771l2.095-5.897c0.392-0.953,0.521-1.714,0.521-2.392
	c0-0.246-0.016-0.474-0.045-0.687c0.534,0.952,0.84,2.044,0.84,3.205C14.857,10.464,13.486,12.615,11.447,13.771z"/>
</svg>
