<?xml version="1.0" encoding="utf-8"?>
<!-- Generator: Adobe Illustrator 16.0.4, SVG Export Plug-In . SVG Version: 6.00 Build 0)  -->
<!DOCTYPE svg PUBLIC "-//W3C//DTD SVG 1.1//EN" "http://www.w3.org/Graphics/SVG/1.1/DTD/svg11.dtd">
<svg version="1.1" id="Capa_1" xmlns="http://www.w3.org/2000/svg" xmlns:xlink="http://www.w3.org/1999/xlink" x="0px" y="0px"
	 width="16px" height="16px" viewBox="0 0 16 16" enable-background="new 0 0 16 16" xml:space="preserve">
<g>
	<path d="M13,0H3C1.343,0,0,1.343,0,3v10c0,1.657,1.343,3,3,3h10c1.657,0,3-1.343,3-3V3C16,1.343,14.657,0,13,0z M12.915,9.791
		c-0.054,0.666-0.56,1.516-1.267,1.639c-2.264,0.176-4.949,0.154-7.295,0c-0.732-0.092-1.213-0.974-1.267-1.639
		c-0.114-1.398-0.114-2.194,0-3.592C3.14,5.534,3.633,4.657,4.353,4.577c2.319-0.195,5.018-0.153,7.295,0
		c0.815,0.03,1.213,0.869,1.267,1.535C13.027,7.51,13.027,8.393,12.915,9.791z"/>
	<polygon points="7,10 10,8 7,6 	"/>
</g>
</svg>
